<svg width="160" height="60" viewBox="0 0 160 60" fill="none" xmlns="http://www.w3.org/2000/svg">
<path d="M86.2009 26.0234C86.2009 26.0234 84.6647 25.8935 82.3573 25.7069C81.2202 25.5583 79.8922 25.3843 78.4726 25.1754C77.7621 25.0849 77.0267 24.9849 76.2797 24.8901C75.5328 24.7952 74.798 24.6194 74.0472 24.4851C72.5551 24.1916 71.0458 23.9675 69.6646 23.6592C68.2834 23.351 67.038 23.0375 65.9124 22.7603C64.7868 22.483 63.8912 22.3029 63.3018 22.0972L62.3153 21.8064L62.4017 21.5829L63.3851 21.882C63.9847 22.1106 64.9168 22.2951 65.9957 22.545C67.0745 22.795 68.3763 23.1109 69.7395 23.4408C71.1028 23.7707 72.63 23.9732 74.1169 24.2552C74.8645 24.3979 75.6038 24.5373 76.3463 24.6685L78.5391 24.9538C79.9568 25.143 81.2682 25.3106 82.4155 25.4822L86.2476 25.8037L86.2009 26.0234Z" fill="#E30016"/>
<path d="M83.9446 59.4897C83.9446 59.4897 82.0612 59.4174 79.1368 59.195C77.6948 59.044 76.0055 58.8653 74.2035 58.6815C73.2906 58.5708 72.3714 58.4767 71.4521 58.3826C70.5328 58.2885 69.5392 58.0901 68.5827 57.9438C66.6596 57.6283 64.7256 57.3657 62.9312 57.0139C61.1368 56.6621 59.4513 56.2758 58.0105 55.9733C56.5697 55.6708 55.3615 55.4096 54.503 55.1582C53.6446 54.9068 53.1974 54.8028 53.1974 54.8028L53.2806 54.5876C53.2806 54.5876 53.7579 54.7126 54.5895 54.9347C55.421 55.1568 56.6196 55.4429 58.0521 55.7422C59.4845 56.0415 61.1713 56.3998 62.9644 56.7796C64.7576 57.1595 66.6845 57.3909 68.6077 57.7064C69.5724 57.8558 70.5289 58.0021 71.4738 58.1534C72.4187 58.3048 73.354 58.3575 74.2284 58.444C76.0606 58.6488 77.705 58.82 79.1502 58.9627C80.5954 59.1054 81.7921 59.1248 82.6313 59.1788L83.9496 59.2542L83.9497 59.3776C83.9497 59.3776 84.612 59.2218 85.5241 58.9142C86.5975 58.5647 87.6163 58.0676 88.5512 57.4376C90.171 56.2886 91.9722 53.2617 94.5338 50.2208C95.8708 48.6047 97.3727 47.1307 99.0156 45.8225C100.862 44.43 102.941 43.3708 105.157 42.6934L103.433 42.7769L105.057 42.6553C102.808 42.2687 100.685 41.3517 98.8661 39.9811C97.2347 38.7834 95.804 37.337 94.6269 35.6955C92.3392 32.5911 91.006 29.4897 89.7418 28.2857C89.0266 27.6226 88.2464 27.0323 87.4127 26.5237C87.0233 26.2877 86.6222 26.0713 86.2108 25.8754C87.4503 25.7592 88.597 25.7596 89.695 25.7129C90.7253 25.6735 91.757 25.6958 92.7846 25.7797C93.6991 25.8479 94.6084 25.9726 95.5072 26.1531C96.3319 26.2892 97.1478 26.4735 97.9506 26.7049C99.4132 27.1406 100.817 27.7523 102.13 28.5265C103.391 29.2269 104.593 30.0283 105.723 30.9228C106.852 31.8092 107.96 32.7255 109.044 33.7279C110.128 34.7302 111.252 35.6051 112.439 36.5138C114.927 38.5207 117.808 39.9913 120.9 40.8323L122.611 40.5349L124.557 40.2227L127.059 39.7331C130.736 39.0459 135.609 37.9598 140.429 36.6918C145.249 35.4237 150.01 33.9342 153.552 32.7582L159.416 30.6917L160 32.3202L154.036 34.225C150.437 35.3031 145.613 36.6551 140.736 37.7775C135.858 38.8998 130.939 39.8547 127.23 40.4255L124.706 40.8496C123.953 40.9425 123.297 41.034 122.77 41.0612L121.063 41.2745C118.299 43.0054 115.792 45.1123 113.616 47.5339L110.523 50.9609C109.481 52.0738 108.42 53.1606 107.258 54.1895C106.068 55.262 104.779 56.2206 103.408 57.0526C101.859 57.9193 100.212 58.6017 98.5026 59.0859C97.5276 59.3624 96.5368 59.5809 95.5356 59.7401C94.4131 59.8845 93.2836 59.9675 92.152 59.9885C90.956 60.0168 89.6748 59.9937 88.3597 59.9101C86.8922 59.8178 85.431 59.6443 83.983 59.3903L83.9446 59.4897Z" fill="#E30016"/>
<path d="M100.316 42.9283C98.1521 43.7556 96.3288 45.4063 94.4004 47.131C92.3641 49.1047 90.2049 50.9493 87.9356 52.6537C86.6096 53.5413 85.1999 54.2984 83.7262 54.9143C82.92 55.2498 82.0959 55.5412 81.2576 55.787C80.3582 56.0645 79.4351 56.2593 78.5 56.3692C76.3497 56.6364 74.1766 56.6708 72.0191 56.4718C69.3367 56.1064 66.6952 55.4903 64.1297 54.6315C65.797 54.4025 67.4197 53.9227 68.9421 53.2088C70.0337 52.6038 71.0819 51.9244 72.0792 51.1757C73.2359 50.3346 74.497 49.2482 75.7824 48.2472C78.3119 46.131 81.0094 44.2214 83.8486 42.5373C82.9956 41.9057 82.1852 41.2192 81.4228 40.482C80.7098 39.7468 80.035 38.9759 79.4012 38.1723C78.1618 36.6074 77.1192 35.0036 76.1227 33.5028C75.1262 32.002 74.2123 30.4852 73.1909 29.2219C72.2613 27.9705 71.0987 26.9081 69.7661 26.0922C71.9422 26.0435 74.1175 26.2143 76.2587 26.602C78.0134 26.8292 79.7324 27.2741 81.3754 27.9263C82.1333 28.2153 82.8406 28.561 83.521 28.8775C84.187 29.2063 84.8333 29.5733 85.4566 29.9765C86.6551 30.7493 87.7797 31.6297 88.8165 32.6065C90.8841 34.4018 92.6437 36.45 94.436 38.3397C96.1043 40.2062 98.096 41.7603 100.316 42.9283Z" fill="#E30016"/>
<path d="M69.7574 26.2117C69.7574 26.2117 68.3493 25.8742 66.2595 25.3718C65.7342 25.2474 65.1589 25.104 64.5554 24.9594C63.9519 24.8147 63.3203 24.6689 62.6745 24.4606C61.39 24.0753 60.0139 23.655 58.6429 23.2461C57.2719 22.8373 55.9522 22.296 54.6869 21.861C53.4216 21.426 52.246 21.0062 51.2889 20.5652L48.0215 19.1293L48.1047 18.9141C48.1047 18.9141 49.395 19.4821 51.3337 20.3259C52.3004 20.742 53.4824 21.1453 54.7234 21.6185C55.9643 22.0917 57.2969 22.5999 58.6743 22.9921C60.0516 23.3844 61.413 23.8181 62.6975 24.2034C63.3141 24.4046 63.9409 24.5739 64.5752 24.7105C65.1787 24.8551 65.7457 24.9954 66.271 25.1197C68.3774 25.6285 69.7688 25.9597 69.7688 25.9597L69.7574 26.2117Z" fill="#E30016"/>
<path d="M64.1384 54.7579C64.1384 54.7579 63.6964 54.6654 62.9155 54.51L59.6982 53.8341L57.5495 53.3851C56.7853 53.2362 55.9858 53.0548 55.1658 52.8275C53.511 52.3865 51.7448 51.9124 49.9702 51.4351C48.1956 50.9579 46.4755 50.3399 44.8578 49.8275C43.2402 49.3152 41.6956 48.8116 40.4079 48.3111C37.8337 47.282 36.1276 46.6029 36.1276 46.6029L36.2141 46.3794C36.2141 46.3794 37.9381 47.0368 40.4911 48.0959C41.7737 48.585 43.3112 49.0573 44.9327 49.6091C46.5542 50.161 48.2993 50.7885 50.0483 51.2085C51.7972 51.6285 53.5641 52.1503 55.2406 52.6091C56.1023 52.8522 56.8634 53.0095 57.6244 53.1667C58.3855 53.324 59.1101 53.4768 59.7731 53.6157C62.4285 54.1629 64.1966 54.5332 64.1966 54.5332L64.1384 54.7579Z" fill="#E30016"/>
<path d="M80.7085 42.3276C78.9321 43.3958 77.2233 44.5712 75.5916 45.8473C74.5676 46.6096 73.5031 47.3165 72.4027 47.9651C71.1757 48.6676 69.8999 49.2825 68.5852 49.8052C67.1101 50.4055 65.5763 50.8519 64.0085 51.1373C62.2128 51.423 60.3935 51.5341 58.5763 51.4689C56.4432 51.3876 54.3284 51.0469 52.279 50.4542C51.0942 50.1449 49.927 49.7728 48.7824 49.3393C47.5907 48.8374 46.335 48.254 45.1184 47.6191L45.0896 47.6936L42.1009 46.6489C40.3186 45.9693 37.9783 44.9533 35.6303 43.9819C34.4476 43.5309 33.3142 42.9278 32.2398 42.3946C31.1654 41.8614 30.1628 41.3651 29.3036 40.9425C28.4445 40.5199 27.6987 40.15 27.2381 39.9078L26.4532 39.4661L26.5364 39.2509L27.3213 39.6926C27.8184 39.9392 28.5309 40.2964 29.3868 40.7273C30.2428 41.1581 31.2486 41.6462 32.3147 42.1762C33.3808 42.7062 34.5206 43.2928 35.7083 43.7553C38.0448 44.7317 40.3884 45.7394 42.1591 46.4242L45.1478 47.4689L45.1062 47.5765C46.7757 47.6343 48.4436 47.4201 50.0437 46.9423C53.7774 45.5167 58.1503 41.3998 67.187 40.3722C65.1015 39.2614 63.2254 37.8004 61.6415 36.0539C61.0097 35.3459 60.4487 34.5785 59.9664 33.7625C59.4935 32.9837 59.0935 32.2138 58.7154 31.4617C57.9758 29.9639 57.3579 28.522 56.5927 27.2139C55.8531 25.8145 54.8596 24.563 53.6623 23.5224L53.6175 23.6383L51.215 22.8077C49.7909 22.2646 47.922 21.4379 46.059 20.6705C45.1095 20.3084 44.2215 19.8368 43.3791 19.4206C42.5366 19.0043 41.7774 18.6198 41.0618 18.271C40.3461 17.9221 39.8156 17.6628 39.4569 17.4785L38.8655 17.1295L38.9487 16.9143L39.5401 17.2633C39.9565 17.4221 40.5043 17.7354 41.145 18.0557C41.7856 18.376 42.6147 18.7777 43.4571 19.1939C44.2996 19.6102 45.1844 20.0901 46.1339 20.4521C48.0245 21.1731 49.8555 22.0233 51.2681 22.5715C52.6808 23.1197 53.6706 23.4021 53.6706 23.4021L53.629 23.5097C54.7533 23.6915 55.8052 23.9122 56.8046 24.1698C57.804 24.4274 58.7758 24.6081 59.6727 24.8836C61.3337 25.4149 62.9549 26.0617 64.5244 26.8192C65.9092 27.4969 67.2197 28.315 68.4352 29.2604C69.5684 30.0919 70.6407 31.0023 71.644 31.9848C72.5924 32.9121 73.4908 33.8888 74.3352 34.9107C75.1426 35.9119 75.9122 36.8133 76.6517 37.6936C77.8596 39.3574 79.2175 40.9085 80.7085 42.3276Z" fill="#E30016"/>
<path d="M62.0392 39.2735C61.2106 39.6032 60.3998 39.9757 59.6103 40.3894L56.9534 41.6748C54.8611 42.7022 52.6583 43.4905 50.3873 44.0245C49.0376 44.2642 47.6706 44.3941 46.2998 44.4129C45.5593 44.4249 44.795 44.3994 43.9987 44.3332C43.1689 44.2862 42.3446 44.1689 41.5349 43.9826C39.687 43.5651 37.8765 42.9986 36.1215 42.2886C35.1102 41.8887 34.1318 41.4108 33.1955 40.8594C32.1986 40.2988 31.176 39.6809 30.0977 38.9848C31.7418 39.243 33.4168 39.2406 35.0604 38.9776C36.8364 38.4881 38.5632 37.8365 40.2187 37.0314C42.3586 36.0692 44.5777 35.2916 46.8514 34.7071C45.2391 32.21 44.06 29.4616 43.3633 26.5762C43.1812 25.9844 42.9978 25.4206 42.8061 24.8536C42.6229 24.2719 42.4065 23.701 42.1581 23.1437C41.635 21.9651 40.9167 20.8821 40.033 19.9398C40.9991 20.3082 41.9262 20.6047 42.7815 20.9879C43.6368 21.371 44.4024 21.739 45.2288 22.0731C46.6632 22.6986 48.0322 23.4625 49.3164 24.3537C49.902 24.767 50.4709 25.1739 51.0181 25.5631C51.5653 25.9522 52.0567 26.3865 52.5315 26.8145C53.4429 27.6404 54.2843 28.5394 55.0472 29.5025C56.4421 31.1719 57.7051 32.946 58.8248 34.8089C59.3619 35.669 59.8688 36.5082 60.3834 37.3028C60.8869 37.9984 61.4403 38.657 62.0392 39.2735Z" fill="#E30016"/>
<path d="M39.9822 20.1C39.9822 20.1 39.774 20.0206 39.4363 19.8064C39.0987 19.5922 38.574 19.3921 38.0121 19.0163C36.8806 18.3094 35.3532 17.366 33.8181 16.4672C33.0365 16.0172 32.3349 15.4837 31.6538 14.996L29.8079 13.6652C28.7251 12.8818 28.0056 12.37 28.0056 12.37L28.1523 12.1885L29.9578 13.4754C30.4934 13.8696 31.1226 14.3185 31.7954 14.803C32.487 15.3354 33.2097 15.8266 33.9596 16.2742C35.5037 17.2239 36.9895 18.1515 38.137 18.817C38.6989 19.1927 39.2172 19.4094 39.5529 19.6039L40.102 19.8893L39.9822 20.1Z" fill="#E30016"/>
<path d="M30.0763 39.1189L29.3908 38.791C28.9494 38.6226 28.3081 38.3781 27.6091 37.9121C26.165 37.1239 24.2365 36.0561 22.3049 34.9965C21.3285 34.4817 20.4071 33.8739 19.5428 33.3164C18.6785 32.7588 17.861 32.2286 17.1639 31.7823L14.8734 30.2915L15.0066 30.0953L17.2971 31.5862L19.6792 33.1119C20.5435 33.6695 21.4617 34.2856 22.4329 34.7889C24.3614 35.8568 26.2847 36.9131 27.7256 37.7096C28.4355 38.1227 29.0768 38.3673 29.5073 38.5884C29.9379 38.8096 30.1877 38.9049 30.1877 38.9049L30.0763 39.1189Z" fill="#E30016"/>
<path d="M25.9869 14.4032C27.4415 15.1124 28.8493 15.9126 30.202 16.7989C30.8222 17.1968 31.3867 17.6401 31.9569 18.019C32.5271 18.3979 33.066 18.7838 33.5651 19.1736C35.3483 20.5943 36.9685 22.206 38.3964 23.9794C39.5645 25.4934 40.5667 27.1269 41.386 28.8523C42.2057 30.3901 42.8646 31.9237 43.4755 33.3344C41.8693 33.9507 40.2281 34.4729 38.5606 34.8985C36.5649 35.3158 34.5204 35.4537 32.4865 35.3082C29.8865 35.1199 27.3462 34.4444 24.9994 33.3174C24.2998 33.0506 23.6104 32.6833 22.8961 32.3064C22.1631 31.8956 21.4538 31.4444 20.7715 30.9548C19.212 29.8741 17.7186 28.702 16.2993 27.4447L16.2577 27.5523C16.2577 27.5523 13.6211 25.5971 10.9929 23.645C10.6598 23.3945 10.3317 23.1554 10.0069 22.9081C9.68201 22.6607 9.39177 22.3981 9.09832 22.1437L7.50225 20.7847L5.94462 19.4499L6.09128 19.2683L7.64378 20.5917C8.10831 20.9968 8.65486 21.4617 9.23664 21.959L10.1452 22.7234C10.4649 22.9593 10.7981 23.2098 11.1261 23.4489L16.3825 27.353L16.3409 27.4606C17.9199 27.93 19.5636 28.1497 21.2115 28.1117C22.4498 28.0235 24.1075 27.5918 25.9537 27.365C27.9667 26.9661 30.05 27.105 31.9907 27.7675C28.951 24.8037 28.4393 22.8894 28.2197 20.8871C28.1568 18.5528 27.3899 16.2915 26.0183 14.3961L25.9767 14.5037L20.9322 10.2245L20.2434 9.53445L18.9702 8.27958L17.7291 7.06543L17.9058 6.90488L19.1386 8.11585L20.4035 9.36754C20.6419 9.59141 20.8853 9.82674 21.0923 10.0576C21.2993 10.2885 21.6203 10.4964 21.8868 10.7215C24.0153 12.483 26.1233 14.3222 26.1233 14.3222L25.9869 14.4032Z" fill="#E30016"/>
<path d="M28.1593 25.5649C26.4803 25.8762 24.7585 25.8825 23.0775 25.5836C21.6148 25.3442 20.188 24.9245 18.83 24.3344C16.8969 23.3342 15.1434 22.0236 13.6402 20.4556C13.3669 20.1741 13.0977 19.8815 12.8329 19.5779C12.5817 19.2636 12.3369 18.9328 12.0953 18.5937C11.607 17.9041 11.1116 17.1833 10.6258 16.4377L9.11923 14.106C8.86673 13.6963 8.5963 13.3082 8.34828 12.8622L7.60614 11.5439C6.60572 9.75664 5.47396 7.93832 4.2051 6.02973C2.9574 3.91793 1.55175 1.90235 0 0C1.54856 1.88886 3.23719 3.65991 5.05178 5.2983C6.71241 6.6214 8.45051 7.84558 10.2569 8.96439L11.4851 9.7177C11.8894 9.95735 12.2764 10.1429 12.7236 10.3704C13.5212 10.7791 14.3188 11.1877 15.1197 11.5881C15.9205 11.9885 16.5932 12.3495 17.2679 12.7302C17.6019 12.9209 17.9293 13.1123 18.2501 13.3042C18.5999 13.4376 18.9093 13.6506 19.2233 13.8273C20.9556 14.8308 22.5026 16.121 23.7974 17.6422C24.751 18.6338 25.5791 19.7374 26.2633 20.9286C27.0476 22.4081 27.6827 23.9611 28.1593 25.5649Z" fill="#E30016"/>
</svg>
