<svg width="28" height="29" viewBox="0 0 28 29" fill="none" xmlns="http://www.w3.org/2000/svg">
<path d="M13.6624 0.5C11.5249 0.5 6.23741 0.725 3.42491 3.425C1.39991 5.3375 0.61241 8.2625 0.49991 11.75C0.27491 17.2625 1.51241 20.75 3.53741 22.55C3.98741 22.8875 5.11241 23.7875 7.24991 24.4625V27.275C7.24991 27.275 7.24991 28.4 7.92491 28.625C8.03741 28.625 8.14991 28.7375 8.26241 28.7375C8.93741 28.7375 9.49991 27.95 10.2874 27.1625C10.9624 26.375 11.5249 25.8125 11.8624 25.25H14.3374C16.4749 25.25 21.7624 25.025 24.5749 22.325C26.5999 20.3 27.3874 17.375 27.3874 13.6625C27.4999 13.1 27.4999 12.425 27.4999 11.75C27.3874 7.5875 26.1499 4.775 24.4624 3.2C23.7874 2.6375 20.8624 0.5 14.5624 0.5H13.6624ZM13.4374 2.6375H14.4499C20.4124 2.6375 22.6624 4.55 22.8874 4.775C24.2374 5.9 25.0249 8.375 25.1374 11.6375V12.0875C25.2499 12.7625 25.2499 13.325 25.2499 13.6625C25.1374 17.0375 24.4624 19.2875 23.1124 20.75C20.7499 22.8875 15.7999 23 14.4499 23H12.3124L10.5124 25.025L9.38741 26.2625L9.16241 26.6C8.93741 26.825 8.59991 27.275 8.37491 27.3875V22.325C6.12491 21.7625 5.22491 20.975 4.99991 20.75C3.42491 19.4 2.52491 16.1375 2.74991 11.75V10.625C2.97491 7.925 3.64991 6.125 4.77491 4.8875C7.13741 2.75 12.0874 2.6375 13.4374 2.6375ZM13.3249 5.1125C12.7624 5.1125 12.7624 5.9 13.3249 5.9C17.4874 5.9 21.0874 8.7125 21.0874 14C21.0874 14.5625 21.8749 14.5625 21.8749 14C21.8749 8.2625 18.0499 5 13.3249 5.1125ZM8.86654 6.15312C8.61163 6.12258 8.35488 6.19282 8.15103 6.34888C7.02603 6.91138 5.89991 8.03862 6.23741 9.27612C6.23741 9.27612 6.46241 10.2875 7.69991 12.425C8.37491 13.4375 8.93741 14.3375 9.49991 15.0125C10.0624 15.8 10.9624 16.7 11.8624 17.375C13.6624 18.8375 16.4749 20.3 17.7124 20.6375C18.8374 20.975 20.0749 19.85 20.6374 18.725C20.8624 18.275 20.7499 17.7125 20.2999 17.375C19.6249 16.7 18.4999 15.9125 17.7124 15.4625C17.1499 15.125 16.4749 15.35 16.2499 15.6875L15.6874 16.3625C15.4624 16.7 14.8999 16.7 14.8999 16.7C11.1874 15.6875 10.1749 11.8625 10.1749 11.8625C10.1749 11.8625 10.1749 11.4125 10.5124 11.075L11.1874 10.5125C11.5249 10.2875 11.7499 9.6125 11.4124 9.05C11.1874 8.7125 10.8499 8.0375 10.5124 7.7C10.1749 7.25 9.49991 6.4625 9.49991 6.4625C9.32923 6.29158 9.10627 6.18268 8.86654 6.15312ZM14.1124 7.3625C13.5499 7.25 13.4374 8.15 13.9999 8.15C17.1499 8.375 18.9499 10.5125 18.8374 13.2125C18.7249 13.775 19.6249 13.775 19.6249 13.2125C19.7374 10.0625 17.7124 7.475 14.1124 7.3625ZM14.4499 9.5C13.8874 9.3875 13.8874 10.2875 14.4499 10.2875C15.7999 10.2875 16.4749 11.075 16.4749 12.425C16.5874 12.9875 17.3749 12.9875 17.3749 12.425C17.2624 10.625 16.2499 9.5 14.4499 9.5Z" fill="#FFFCF9"/>
</svg>
