<svg width="260" height="140" viewBox="0 0 260 140" fill="none" xmlns="http://www.w3.org/2000/svg">
<path fill-rule="evenodd" clip-rule="evenodd" d="M31.9749 90.3008C26.7544 90.8865 21.9313 90.5723 17.3752 89.363C11.224 87.7291 7.00245 88.7391 3.69386 92.6411C-0.156587 97.1817 -0.987277 102.53 1.15725 108.991C3.58594 116.313 9.09803 123.819 14.1696 127.317C30.5855 138.635 49.7102 140.739 72.6414 139.802C82.907 139.383 93.2025 137.885 103.159 136.437C105.38 136.114 107.6 135.791 109.823 135.479C121.729 133.808 134.469 133.006 146.967 138.4L147.36 138.574C149.221 139.401 149.767 139.429 150.283 138.721C150.911 137.861 150.573 137.185 149.59 135.738C149.378 135.424 149.168 135.114 148.986 134.805C145.968 129.692 140.984 127.642 135.706 125.469L134.355 124.912C133.99 124.76 133.532 124.681 133.048 124.598C131.872 124.397 130.266 124.121 129.25 122.477L128.769 121.698L129.486 121.114C130.217 120.518 131.122 120.432 131.849 120.363C132.81 120.271 132.812 120.241 132.845 119.957C132.972 118.848 132.065 118.044 130.455 117.028C126.604 114.599 122.294 113.469 118.208 112.522L116.649 112.16L117.525 110.883C120.108 107.119 119.828 105.249 112.932 99.2818C112.736 99.451 112.611 99.647 112.543 99.8918C112.552 100.113 112.607 100.328 112.702 100.54C114.285 103.011 115.077 104.261 114.736 105.599C114.392 106.954 113.038 107.738 110.346 109.284C110.165 109.408 109.98 109.528 109.794 109.646C108.716 110.336 108.192 110.711 108.216 111.584C108.541 111.955 108.991 112.239 109.66 112.502C110.609 112.732 111.582 112.879 112.613 113.035C115.315 113.445 118.109 113.867 120.7 115.838L121.415 116.382L121.008 117.161C120.025 119.044 118.368 119.311 117.158 119.506C116.731 119.574 116.328 119.639 116.012 119.761L115.734 119.831C111.868 120.304 107.966 120.268 104.193 120.234C102.023 120.215 99.7809 120.195 97.5919 120.273C93.7352 120.387 90.6533 120.908 87.9045 121.907C87.8821 121.931 87.8641 121.957 87.8506 121.991C87.9592 122.106 88.0819 122.2 88.221 122.276C90.9981 122.454 93.8242 122.588 96.5582 122.72C103.181 123.038 110.031 123.368 116.771 124.294C122.699 125.108 128.295 126.874 133.461 128.661L141.038 131.282L133.007 130.747C124.563 130.176 116.642 131.443 108.976 132.661C105.747 133.175 102.407 133.705 99.1071 134.084C82.1825 136.028 64.0364 137.337 46.0048 133.786C32.2595 131.08 21.9276 126.359 13.4887 118.93C7.92965 114.034 5.46455 108.427 5.95209 101.788C6.22818 98.04 7.34281 95.4853 9.3585 93.9769C11.1439 92.6398 13.5952 92.2141 16.6444 92.7128C22.4611 93.6614 28.1379 93.4908 33.6242 92.8472C36.0691 92.5599 41.9983 91.4338 46.6725 89.3268C48.2298 88.6254 47.5197 87.3813 46.3143 86.6993C45.4097 86.1878 43.7464 85.4203 42.9855 86.1345C40.032 88.9038 34.0203 90.0714 31.9749 90.3008Z" fill="#E30016"/>
<path fill-rule="evenodd" clip-rule="evenodd" d="M105.481 27.6135C105.481 27.6135 106.838 25.9113 109.96 23.0175C111.528 21.5704 113.513 19.8255 116.038 17.8454C118.573 15.8846 121.689 13.6421 125.749 11.8358C128.726 10.5152 132.198 9.48783 135.929 9.26896C139.645 9.04843 143.718 9.58186 147.518 11.7257C148.489 12.2917 149.39 12.9513 150.244 13.7779C151.088 14.6035 151.88 15.575 152.485 16.7693C152.777 17.3721 153.04 18.01 153.196 18.7009C153.294 19.0361 153.327 19.3976 153.386 19.7433L153.418 20.2731L153.431 20.5374V20.7901L153.422 20.8851C153.4 21.153 153.395 21.3584 153.355 21.6759C153.298 22.0391 153.231 22.3983 153.156 22.7509C152.984 23.3422 152.796 23.9092 152.564 24.4133C151.65 26.4425 150.506 27.929 149.647 29.4316C149.21 30.1757 148.863 30.9086 148.642 31.6264C148.519 31.9869 148.472 32.3383 148.422 32.6883L148.404 33.2079V33.2401C148.413 33.3354 148.385 33.129 148.39 33.1589V33.1809L148.399 33.2681L148.422 33.4432L148.462 33.7933C148.544 34.3277 148.842 35.0665 149.262 35.6426C149.681 36.2408 150.218 36.7719 150.798 37.2311C151.97 38.1447 153.306 38.7511 154.599 39.1475C157.211 39.8803 159.717 39.7923 161.77 39.7111C163.84 39.5859 165.503 39.4863 166.647 39.4166C167.796 39.3657 168.425 39.369 168.425 39.369C168.425 39.369 167.803 39.4479 166.677 39.6427C165.551 39.8515 163.915 40.1551 161.877 40.5331C159.828 40.8555 157.318 41.2706 154.371 40.7835C152.91 40.4996 151.368 39.9987 149.86 39.0409C149.111 38.5552 148.366 37.9557 147.702 37.165C147.039 36.3591 146.469 35.427 146.163 34.1226L146.096 33.7781L146.042 33.5175L146.037 33.4965L146.024 33.3712V33.3157L145.978 32.4227C146.001 31.8407 146.049 31.2471 146.18 30.7091C146.418 29.616 146.811 28.6303 147.239 27.7354C148.092 25.9475 149.089 24.3495 149.644 22.7775C149.79 22.3877 149.877 22.0065 149.962 21.6401C149.971 21.4997 149.989 21.3663 150.016 21.2332C150.034 21.0521 150.025 20.7451 150.03 20.5062V20.3636C150.03 20.2245 150.03 20.5236 150.03 20.4888V20.4737L150.012 20.3544L149.98 20.1177C149.931 19.9623 149.922 19.8048 149.857 19.6503C149.769 19.3398 149.608 19.0338 149.44 18.7288C148.713 17.5124 147.384 16.4239 145.973 15.7291C143.026 14.2962 139.633 13.9819 136.479 14.3146C133.293 14.6393 130.33 15.5855 127.639 16.7762C123.992 18.3959 120.889 20.2196 118.164 21.7235C115.441 23.2459 113.111 24.4379 111.234 25.3072C107.473 27.0571 105.481 27.6135 105.481 27.6135Z" fill="#E30016"/>
<path fill-rule="evenodd" clip-rule="evenodd" d="M257.756 51.3914C257.756 51.3914 257.306 51.4702 256.687 51.1409C255.36 50.435 252.574 49.0517 248.206 47.3556C247.44 47.001 246.637 46.6345 245.781 46.252C237.709 42.6438 225.7 37.909 210.299 33.233C206.12 31.9648 201.681 30.7022 197.015 29.4711C198.401 29.7609 199.755 30.0948 201.084 30.3347C222.124 34.1457 250.514 46.9892 256.905 49.9598C257.757 50.3551 258.019 50.9276 258.019 50.9276L257.756 51.3914ZM226.27 43.6652C226.459 45.5401 227.551 49.2525 225.148 48.7701C224.016 48.5416 222.506 48.006 221.225 47.5018C219.784 46.9349 217.544 46.8304 217.322 43.8739C217.23 42.6461 217.029 41.4012 217.021 40.4885C217.021 39.9042 217.757 39.2295 218.257 39.3593C219.757 39.7524 222.522 40.7623 222.522 40.7623L224.927 41.5878C224.927 41.5878 226.079 41.7906 226.27 43.6652ZM213.356 44.3784C212.087 44.1164 210.343 43.5078 208.852 42.936C207.178 42.2938 204.738 42.1594 203.87 38.8713C203.509 37.5054 203.028 36.1212 202.827 35.1067C202.698 34.4563 203.353 33.7132 203.92 33.8627C205.624 34.3113 211.529 36.5363 211.529 36.5363C211.529 36.5363 212.879 36.6313 213.484 38.7158C214.087 40.8018 216.054 44.9361 213.356 44.3784ZM199.839 41.532C198.477 41.3223 196.586 40.7751 194.966 40.2556C193.144 39.6712 190.56 39.6528 189.359 36.2799C188.861 34.8796 188.233 33.4651 187.933 32.4203C187.741 31.7525 188.367 30.947 188.978 31.0745C190.814 31.4571 194.285 32.489 194.285 32.489L197.287 33.3261C197.287 33.3261 198.665 33.5078 199.481 35.6437C200.298 37.7792 202.731 41.9773 199.839 41.532ZM185.268 26.1458C184.296 26.3243 179.317 26.0288 176.396 25.666C175.214 25.5188 175.267 24.6176 176.355 23.6241C178.296 21.8537 184.595 20.5786 185.816 20.5112C187.757 20.4057 189.812 20.6006 191.567 21.0157C192.769 21.3006 194.108 22.1495 191.816 23.5906C189.35 25.1382 186.469 25.9233 185.269 26.1458H185.268ZM188.08 36.8689C188.244 37.8278 187.345 39.1773 185.204 38.5094C182.514 37.6714 179.553 36.7124 177.075 35.7189C174.712 34.7695 173.555 32.8111 172.988 31.1287C172.744 30.4021 173.853 29.3596 174.509 29.4385C176.309 29.6564 182.353 30.9572 183.948 31.3989C186.717 32.1676 187.713 34.7205 188.08 36.8689ZM199.545 22.3105C200.798 22.4867 205.481 23.288 208.528 23.8594C209.763 24.0915 210.148 24.9785 209.553 25.2822C207.347 26.4114 204.203 27.5544 202.303 28.0924C201.502 28.3185 199.966 28.2525 199.168 28.0924C197.611 27.7782 195.245 27.2961 193.524 26.9448C192.267 26.6875 191.976 26.0729 192.886 25.4885C194.9 24.1947 198.332 22.1403 199.545 22.3105ZM214.903 25.8083C216.334 26.2444 218.841 27.0306 220.384 27.6438C221.006 27.8906 221.393 28.8937 220.606 29.3551C219.402 30.06 217.476 30.8819 216.285 31.3237C215.761 31.5172 214.64 31.4975 213.929 31.2635C212.306 30.7288 209.602 29.7491 207.919 29.1326C207.023 28.8042 208.067 27.8827 208.067 27.8827L212.364 26.0693C212.364 26.0693 214.225 25.6023 214.903 25.8083ZM226.226 30.1422C227.476 30.5237 229.667 31.2099 231.017 31.7456C231.559 31.9612 231.898 32.839 231.209 33.2413C230.158 33.8568 228.474 34.5759 227.434 34.9607C226.976 35.131 225.996 35.1136 225.375 34.9098C223.957 34.4425 221.594 33.5857 220.123 33.0464C219.34 32.7601 220.253 31.9543 220.253 31.9543L224.007 30.3706C224.007 30.3706 225.633 29.9614 226.226 30.1422ZM249.308 36.8468C250.94 37.8811 248.96 38.7668 248.502 38.4956C248.334 38.3961 248.133 38.2788 247.9 38.1457C245.306 36.6592 238.687 33.1312 227.247 28.6954C227.247 28.6954 241.828 32.1075 249.308 36.8468ZM259.035 48.5311C253.097 45.9923 242.438 41.0834 230.839 36.5304C229.264 35.9125 230.917 35.175 232.303 34.6268C233.258 34.2499 242.837 37.7779 245.995 39.6679C247.654 40.6601 248.796 39.6748 248.796 39.6748L251.339 37.7142C251.339 37.7142 252.063 36.1606 250.683 35.385C244.219 31.7525 218.05 22.138 186.55 19.032C185.526 18.9311 178.268 19.1142 174.539 22.9866C174.45 23.0783 173.339 24.6351 172.857 24.9854C172.679 24.9644 172.497 24.9459 172.319 24.9249L171.051 32.8354C171.556 34.2755 172.458 35.5694 173.466 36.4702C174.668 37.5449 176.369 38.303 178.499 38.9502C199.183 42.7598 216.612 50.151 228.72 60.5204C229.555 61.2359 231.214 62.9054 232.885 62.9054C234.556 62.9054 233.06 60.5507 233.06 60.5507C233.06 60.5507 225.945 51.8889 217.306 47.278C217.306 47.278 219.94 48.1197 224.748 50.9115C225.814 51.5316 227.271 50.9487 227.643 50.4116C228.196 49.6107 228.366 48.4999 228.366 48.4999L228.863 42.0526L243.87 48.0398C243.87 48.0398 252.597 52.2797 255.266 53.0516C257.937 53.8226 258.373 52.9323 258.373 52.9323L259.623 51.0808C259.623 51.0808 260.133 49.9575 259.966 49.519C259.826 49.1516 259.557 48.754 259.035 48.5311Z" fill="#E30016"/>
<path fill-rule="evenodd" clip-rule="evenodd" d="M187.757 101.405C196.169 103.924 202.84 109.71 208.992 116.273C211.919 119.394 214.838 122.541 218.014 125.398C218.796 126.099 220.677 126.601 221.888 125.824C223.1 125.048 222.512 122.697 221.875 121.783C219.662 118.602 217.123 115.646 214.664 112.633C214.416 112.329 214.128 111.521 214.232 111.422C214.387 111.275 215.116 111.382 215.323 111.584C218.003 114.174 220.738 116.71 223.309 119.402C226.711 122.964 229.759 123.967 232.011 121.996C234.147 120.129 233.131 116.277 229.728 113.068C227.792 111.244 225.903 109.37 224.188 107.269C223.835 106.836 224.294 106.612 224.873 106.94C227.092 108.198 229.351 109.404 231.336 110.956C234.714 113.597 236.326 113.63 240.882 110.019C241.263 109.718 241.642 109.416 242.036 109.104C242.344 108.858 243.005 109.405 242.994 109.862C242.903 113.694 241.876 114.307 235.837 116.169C236.953 117.245 237.168 119.645 237.122 120.935C236.902 127.026 228.351 127.229 227.33 126.579C226.794 128.386 225.91 129.615 224.184 130.727C221.565 132.411 218.519 131.45 216.35 129.202C212.207 124.909 208.443 120.242 204.155 116.103C198.786 110.922 193.048 106.117 187.756 101.405H187.757Z" fill="#E30016"/>
<path fill-rule="evenodd" clip-rule="evenodd" d="M68.1994 85.2955L68.4347 85.2165C70.3037 84.632 72.9112 81.0813 73.8464 76.9078C74.4693 76.5971 75.1307 76.4797 75.7155 76.4797C77.0384 76.4797 77.7401 77.3372 77.7401 78.3124C77.7401 80.6522 74.7019 84.0855 72.2881 85.7246C72.8328 87.9052 73.9236 92.4695 76.726 92.4695C77.5069 92.4695 78.3627 91.7679 79.376 90.8305C79.8037 91.0278 80.0364 91.377 80.0364 91.7679C80.0364 92.0405 79.921 92.3512 79.6863 92.6251C78.2848 94.3427 75.5987 96.4865 73.9621 96.4865C70.0687 96.4865 69.058 90.2459 68.4719 87.2035L67.7716 87.4008L66.4079 94.032C66.0201 95.823 64.5388 96.4865 63.1373 96.4865C62.4373 96.4865 61.7749 96.2925 61.3082 95.9818L64.5016 81.0047C64.6568 80.3411 64.4611 80.0304 64.1111 80.0304C63.9163 80.0304 63.6833 80.1859 63.3328 80.4966C62.8279 80.1859 62.5542 78.976 63.3328 78.3496C64.6566 77.2988 66.0584 76.4797 67.6936 76.4797C69.0946 76.4797 69.8732 77.1015 69.5627 78.6235L68.1994 85.2955Z" fill="#E30016"/>
<path fill-rule="evenodd" clip-rule="evenodd" d="M68.7955 86.6871L68.9588 87.5303C69.5264 90.5071 70.5827 96.0473 73.9724 96.0473C75.3765 96.0473 77.9505 94.0988 79.3837 92.349C79.5509 92.1559 79.6418 91.9409 79.6418 91.7511C79.6418 91.5895 79.5729 91.4449 79.443 91.3302C78.5261 92.1595 77.6278 92.8604 76.7406 92.8604C73.6575 92.8604 72.529 88.356 71.9227 85.9378L71.8244 85.5493L72.0623 85.3887C74.5594 83.7015 77.3415 80.3907 77.3415 78.3366C77.3415 77.6833 76.9191 76.9189 75.7285 76.9189C75.3492 76.9189 74.7927 76.9746 74.2143 77.2231C73.1913 81.5134 70.4874 85.0104 68.5607 85.6093L67.6521 85.9171L69.1611 78.5658C69.2762 78.0072 69.2254 77.5919 69.0123 77.3342C68.7845 77.0588 68.3401 76.9189 67.6943 76.9189C66.0435 76.9189 64.632 77.8672 63.5852 78.6939C63.2702 78.946 63.2435 79.3129 63.2547 79.5082C63.2637 79.6747 63.3113 79.8285 63.3697 79.9465C63.9068 79.544 64.4613 79.5695 64.7584 79.9396C64.9737 80.2068 65.0202 80.6011 64.8997 81.1144L61.7664 95.749C62.1538 95.9411 62.6361 96.0473 63.1309 96.0473C63.8559 96.0473 65.5847 95.8404 66.0027 93.9231L67.4173 87.0723L68.7955 86.6871ZM73.9724 96.8649C69.9117 96.8649 68.7655 90.9349 68.1521 87.7178L68.1249 87.7233L66.8103 94.0906C66.3645 96.1374 64.6169 96.8649 63.1287 96.8649C62.3656 96.8649 61.6138 96.6567 61.0659 96.2915L60.8346 96.1388L64.09 80.9374C64.1646 80.6185 64.1259 80.4739 64.108 80.4471C64.072 80.4622 63.9561 80.5061 63.601 80.8194L63.3702 81.0243L63.1068 80.8624C62.7297 80.6323 62.4633 80.1199 62.4278 79.5603C62.3874 78.9601 62.6211 78.4121 63.0647 78.057C64.2179 77.1458 65.7842 76.1013 67.6925 76.1013C68.5999 76.1013 69.2577 76.3419 69.6514 76.8173C70.0294 77.2739 70.1368 77.9171 69.9705 78.7287L68.7586 84.6321C70.4342 83.7094 72.6186 80.5444 73.451 76.8484L73.4914 76.6586L73.6665 76.5721C74.4499 76.1836 75.2176 76.1013 75.725 76.1013C77.4023 76.1013 78.1653 77.2601 78.1653 78.3366C78.1653 80.9178 75.0262 84.2876 72.7619 85.8998C73.29 87.9987 74.3632 92.0425 76.7371 92.0425C77.3987 92.0425 78.2712 91.2899 79.1081 90.5185L79.3118 90.331L79.5646 90.4467C80.13 90.7047 80.467 91.1929 80.467 91.7511C80.467 92.1385 80.3065 92.5365 80.0162 92.8718C78.7016 94.4767 75.8629 96.8649 73.9685 96.8649H73.9724Z" fill="#E30016"/>
<path fill-rule="evenodd" clip-rule="evenodd" d="M98.8821 80.545C97.8689 81.3996 96.351 83.2265 94.7555 84.2398C94.7959 84.3949 94.7958 84.5496 94.7958 84.6676C94.7958 90.6164 89.3078 96.4865 84.6376 96.4865C80.6295 96.4865 78.917 93.2598 78.917 89.6034C78.917 83.7334 83.0036 76.3851 88.8799 76.3851C90.8252 76.3851 92.3839 76.9286 93.551 78.6772C93.4738 79.5725 92.8112 80.0002 92.2281 79.7655C91.4876 79.4938 90.6709 79.3387 89.7375 79.3387C86.1941 79.3387 83.8982 84.5496 83.8982 88.3591C83.8982 91.7808 85.0669 93.1051 86.4291 93.1051C88.4139 93.1051 90.9044 90.2266 90.9044 86.7286C90.9044 86.2217 90.8252 85.6772 90.7095 85.1324C90.0098 85.0944 89.3472 84.9394 88.9197 84.6676C88.1016 82.527 88.9557 80.5831 91.176 80.5831C92.5005 80.5831 93.6288 81.2446 94.2518 82.372C95.8078 81.3997 97.2472 79.7285 98.883 78.4044C99.6222 79.0289 99.4284 80.0799 98.883 80.545H98.8821Z" fill="#E30016"/>
<path fill-rule="evenodd" clip-rule="evenodd" d="M88.881 76.6856C83.493 76.6856 79.314 83.5979 79.314 89.5454C79.314 91.0697 79.6977 96.0441 84.6315 96.0441C88.894 96.0441 94.3941 90.4902 94.3941 84.5894C94.3941 84.4848 94.3943 84.3677 94.3673 84.2607L94.2932 83.974L94.545 83.8151C95.556 83.1718 96.537 82.1875 97.4014 81.3177C97.8489 80.8685 98.271 80.4447 98.6313 80.1396C98.8384 79.9619 98.9736 79.6496 98.9722 79.3432C98.9722 79.2129 98.945 79.0447 98.8529 78.8775C98.3249 79.3268 97.8098 79.8098 97.3102 80.2798C96.3576 81.1762 95.4582 82.0213 94.4818 82.6321L94.1098 82.8654L93.8992 82.4823C93.3443 81.477 92.3528 80.8998 91.1805 80.8998C90.388 80.8998 89.775 81.1798 89.4062 81.708C88.9641 82.3428 88.9114 83.3077 89.2587 84.3107C89.6096 84.493 90.1389 84.6148 90.7369 84.6474L91.0542 84.6635L91.1196 84.9725C91.2566 85.6224 91.3232 86.174 91.3232 86.6594C91.3232 90.4323 88.6443 93.4704 86.4252 93.4704C85.5382 93.4704 83.4779 92.9665 83.4779 88.2962C83.4779 84.3433 85.859 78.8299 89.7396 78.8299C90.6863 78.8299 91.549 78.9786 92.3784 79.285C92.4453 79.3116 92.5017 79.3221 92.5578 79.3221C92.7861 79.3221 93.0491 79.1201 93.1304 78.6778C92.1505 77.2835 90.8714 76.6856 88.881 76.6856ZM84.6315 96.8649C80.1016 96.8649 78.4865 93.0837 78.4865 89.5454C78.4865 83.0872 82.9327 75.8649 88.881 75.8649C91.2101 75.8649 92.7591 76.6313 93.9049 78.3494L93.9843 78.4688L93.9707 78.6117C93.8606 79.8747 92.834 80.3555 92.0774 80.0501C91.3527 79.7832 90.5839 79.6506 89.7379 79.6506C86.4202 79.6506 84.3033 84.7714 84.3033 88.2962C84.3033 91.022 85.0953 92.6496 86.4234 92.6496C88.2175 92.6496 90.4943 89.8284 90.4943 86.6594C90.4943 86.3053 90.4538 85.9048 90.3662 85.4415C89.6868 85.3694 89.1002 85.193 88.6954 84.934L88.5808 84.8609L88.5317 84.7346C88.0285 83.4133 88.098 82.1398 88.7243 81.241C89.2464 80.4914 90.118 80.0791 91.1788 80.0791C92.4881 80.0791 93.6561 80.6806 94.3853 81.709C95.1684 81.1611 95.9342 80.4414 96.7384 79.6845C97.3468 79.1132 97.9756 78.5212 98.637 77.9848L98.9046 77.7676L99.167 77.9907C99.5718 78.3329 99.7966 78.8124 99.798 79.3409C99.798 79.8842 99.5588 80.4285 99.1692 80.7619C98.8336 81.0472 98.4225 81.4596 97.9885 81.8949C97.155 82.7318 96.2179 83.6733 95.2137 84.3584C95.2182 84.4476 95.2181 84.5266 95.2181 84.5894C95.2181 90.5554 89.7751 96.8649 84.628 96.8649H84.6315Z" fill="#E30016"/>
<path fill-rule="evenodd" clip-rule="evenodd" d="M104.265 82.8733L102.123 93.0475C102.823 93.437 103.447 93.4787 104.07 93.4787C108.044 93.4787 110.42 88.1743 110.42 84.3178C110.42 81.5872 109.447 80.3781 108.122 80.3781C106.954 80.3781 105.552 81.2766 104.265 82.8733ZM100.098 81.0028C100.253 80.3781 100.057 80.029 99.7072 80.029C99.5119 80.029 99.2792 80.1845 98.9282 80.4951C98.4231 80.1845 98.1497 78.975 98.9282 78.3502C100.253 77.2984 101.655 76.4797 103.292 76.4797C104.693 76.4797 105.512 77.143 105.161 78.6226L104.965 79.5594C106.485 77.6892 108.315 76.4797 110.265 76.4797C113.692 76.4797 115.211 79.3657 115.211 82.9114C115.211 88.762 110.965 96.4785 104.305 96.4785C103.37 96.4785 102.395 96.1294 101.617 95.4661L98.9282 108.408C98.5394 110.202 97.1772 110.865 95.773 110.865C95.0727 110.865 94.4105 110.671 93.9427 110.357L100.098 81.0028Z" fill="#E30016"/>
<path fill-rule="evenodd" clip-rule="evenodd" d="M102.576 92.8232C103.097 93.049 103.573 93.0696 104.051 93.0696C107.728 93.0696 109.986 87.9818 109.986 84.3339C109.986 82.0954 109.299 80.8106 108.102 80.8106C107.073 80.8106 105.812 81.6334 104.632 83.0721L102.576 92.8232ZM104.051 93.8882C103.434 93.8882 102.705 93.8511 101.904 93.4053L101.64 93.2583L103.863 82.7135L103.924 82.637C105.28 80.9566 106.803 79.9924 108.102 79.9924C108.917 79.9924 110.812 80.4159 110.812 84.3339C110.812 88.2387 108.405 93.8882 104.051 93.8882ZM94.395 110.124C94.7809 110.317 95.2632 110.425 95.7599 110.425C96.6133 110.425 98.1065 110.148 98.5099 108.295L101.337 94.6995L101.87 95.152C102.551 95.7317 103.432 96.064 104.287 96.064C110.785 96.064 114.774 88.4148 114.774 82.931C114.774 79.1673 113.079 76.9196 110.243 76.9196C108.098 76.9196 106.354 78.5085 105.27 79.8418L104.198 81.159L104.738 78.5665C104.866 78.0272 104.823 77.6243 104.612 77.3628C104.32 76.997 103.724 76.9196 103.275 76.9196C101.626 76.9196 100.216 77.8697 99.1724 78.6972C98.8569 78.9498 98.8303 79.3152 98.8433 79.5108C98.8523 79.6774 98.898 79.8316 98.9577 79.9507C99.4903 79.5491 100.037 79.5675 100.34 79.9507C100.491 80.1407 100.638 80.4993 100.483 81.1243L94.395 110.124ZM95.7599 111.243C94.9971 111.243 94.2452 111.033 93.6983 110.667L93.4691 110.513L99.6776 80.9425C99.7579 80.6164 99.7092 80.475 99.6868 80.4543C99.6599 80.4668 99.5408 80.5108 99.1868 80.8248L98.9564 81.0281L98.6935 80.8674C98.3175 80.6358 98.0506 80.1243 98.0156 79.5629C97.9752 78.9622 98.2094 78.4137 98.651 78.0584C99.8023 77.1463 101.366 76.1013 103.272 76.1013C104.178 76.1013 104.865 76.3615 105.259 76.8546C105.549 77.2169 105.672 77.6788 105.626 78.2332C107.08 76.8327 108.655 76.1013 110.241 76.1013C113.545 76.1013 115.599 78.7182 115.599 82.931C115.599 88.7561 111.294 96.8832 104.285 96.8832C103.438 96.8832 102.603 96.6345 101.872 96.1726L99.3165 108.464C98.9365 110.206 97.6068 111.243 95.7577 111.243H95.7599Z" fill="#E30016"/>
<path fill-rule="evenodd" clip-rule="evenodd" d="M145.375 90.8314C145.802 91.0284 146.037 91.3766 146.037 91.7668C146.037 92.0389 145.921 92.3494 145.687 92.6225C143.856 94.686 141.052 96.4771 138.947 96.4771C137 96.4771 134.547 95.4665 135.324 90.366L136.338 83.7081L129.755 96.3222C127.923 96.7908 126.561 96.2838 126.482 94.4543L126.21 83.6294C125.08 87.4075 123.989 90.0545 122.859 91.9625C121.108 94.9998 119.199 96.439 117.718 96.4771C116.122 96.5187 114.953 94.9591 114.953 92.119C114.953 90.2478 116.238 89.7023 117.679 89.7023C118.146 89.7023 118.769 89.8993 119.276 90.2478C118.769 91.3385 118.615 92.508 118.615 93.2848C120.64 92.0389 122.587 90.0161 125.393 79.5815C123.406 79.8155 121.964 80.3606 120.913 81.5278C120.367 80.9061 120.094 80.2054 120.094 79.5434C120.094 77.1268 122.197 76.1959 124.418 76.1959C126.404 76.1959 129.092 76.3892 130.183 76.8166L130.689 90.0545L136.726 79.0767C137.78 77.1684 138.636 76.5061 140.038 76.5061C140.74 76.5061 141.403 76.6994 141.908 77.0132L140.116 89.8993C139.805 92.0773 140.273 92.7814 141.285 92.7814C142.726 92.7814 144.4 91.8076 145.375 90.8314Z" fill="#E30016"/>
<path fill-rule="evenodd" clip-rule="evenodd" d="M126.576 81.0024L126.914 94.4154C126.962 95.5112 127.51 96.0468 128.59 96.0468C128.865 96.0468 129.167 96.0111 129.492 95.9383L137.136 81.2986L135.75 90.4005C135.419 92.5675 135.658 94.1353 136.461 95.0589C137.025 95.709 137.867 96.0376 138.963 96.0376C140.776 96.0376 143.479 94.4767 145.389 92.3244C145.545 92.1431 145.637 91.9276 145.637 91.7403C145.637 91.5796 145.569 91.4372 145.441 91.3214C144.395 92.2713 142.782 93.1624 141.299 93.1624C140.776 93.1624 140.367 92.9991 140.083 92.6764C139.632 92.1614 139.516 91.2519 139.721 89.8173L141.474 77.2164C141.054 77.0104 140.559 76.8982 140.053 76.8982C138.985 76.8982 138.199 77.2745 137.105 79.2552L130.351 91.532L129.799 77.096C128.671 76.7618 126.322 76.5883 124.438 76.5883C123.522 76.5883 120.528 76.7998 120.528 79.5248C120.528 79.9775 120.684 80.4471 120.972 80.8821C121.999 79.9286 123.379 79.3893 125.362 79.1558L125.968 79.0853L125.811 79.6672C122.937 90.3552 120.879 92.3582 118.853 93.6043L118.223 93.9933V93.2572C118.223 92.7885 118.28 91.6245 118.775 90.3876C118.419 90.2027 118.016 90.0869 117.7 90.0869C116.144 90.0869 115.388 90.7415 115.388 92.0909C115.388 93.3557 115.63 94.3957 116.087 95.0993C116.486 95.7136 117.037 96.039 117.678 96.039C119.195 96.0006 120.986 94.3911 122.521 91.7334C123.673 89.7861 124.756 87.091 125.831 83.4913L126.576 81.0024ZM128.59 96.8649C127.067 96.8662 126.154 95.9822 126.087 94.4433L125.877 86.0761C125.022 88.5978 124.152 90.5946 123.236 92.143C121.534 95.091 119.534 96.8107 117.75 96.857C116.757 96.857 115.946 96.3896 115.395 95.5424C114.853 94.706 114.565 93.5131 114.565 92.0909C114.565 90.2709 115.681 89.2675 117.704 89.2675C118.28 89.2675 118.983 89.5047 119.537 89.8865L119.819 90.0823L119.676 90.3936C119.331 91.1361 119.176 91.8849 119.107 92.4438C120.741 91.1975 122.479 88.7099 124.854 80.0548C123.192 80.3277 122.065 80.8706 121.245 81.7801L120.933 82.1261L120.625 81.7765C120.031 81.1008 119.706 80.3012 119.706 79.5248C119.706 77.2085 121.52 75.7703 124.442 75.7703C126.492 75.7703 129.219 75.9736 130.357 76.4194L130.607 76.5178L131.066 88.5259L136.384 78.8629C137.503 76.8346 138.499 76.0802 140.057 76.0802C140.811 76.0802 141.554 76.2826 142.146 76.6496L142.372 76.7907L140.543 89.9294C140.339 91.3654 140.521 91.923 140.712 92.1394C140.789 92.2274 140.934 92.3441 141.303 92.3441C142.658 92.3441 144.22 91.3978 145.098 90.5172L145.303 90.3125L145.566 90.4339C146.13 90.693 146.468 91.1814 146.468 91.7403C146.468 92.1234 146.309 92.5212 146.02 92.8591C144.307 94.787 141.374 96.857 138.967 96.857C137.638 96.857 136.557 96.4194 135.839 95.5922C134.872 94.479 134.567 92.6915 134.937 90.2777L135.577 86.0751L130.06 96.6428L129.88 96.688C129.421 96.8061 128.988 96.8649 128.594 96.8649H128.59Z" fill="#E30016"/>
<path fill-rule="evenodd" clip-rule="evenodd" d="M147.109 81.0048C147.265 80.3797 147.069 80.0292 146.719 80.0292C146.525 80.0292 146.292 80.1857 145.941 80.4967C145.437 80.1857 145.165 78.976 145.941 78.3497C147.264 77.2988 148.665 76.4797 150.299 76.4797C151.699 76.4797 152.476 77.1433 152.167 78.6235L149.793 89.6997C149.443 91.3006 149.949 92.0023 151.116 92.0023C152.476 92.0023 153.644 91.2204 154.694 89.9736L157.029 78.9379C157.418 77.1433 158.896 76.4797 160.296 76.4797C160.998 76.4797 161.658 76.6734 162.126 76.9877L159.403 89.897C158.974 91.8852 159.481 92.7424 160.259 92.7424C160.958 92.7424 161.852 92.2748 162.435 90.8712C163.175 90.8712 163.603 91.2621 163.603 91.9234C163.603 94.6538 160.414 96.4865 158.235 96.4865C156.329 96.4865 154.423 95.5109 154.617 92.0789C153.062 94.6156 151.155 96.4865 148.937 96.4865C144.62 96.4865 144.62 91.9234 145.28 88.998L147.109 81.0048Z" fill="#E30016"/>
<path fill-rule="evenodd" clip-rule="evenodd" d="M155.124 90.455L155.032 92.0844C154.953 93.4789 155.235 94.5232 155.868 95.1856C156.55 95.8982 157.536 96.0473 158.244 96.0473C160.221 96.0473 163.208 94.396 163.208 91.9065C163.208 91.7688 163.208 91.3872 162.71 91.2899C162.144 92.4486 161.249 93.132 160.271 93.132C159.865 93.132 159.517 92.9692 159.264 92.6614C158.806 92.0995 158.719 91.1375 159.009 89.8008L161.676 77.2207C161.29 77.0276 160.806 76.9201 160.31 76.9201C159.586 76.9201 157.859 77.127 157.44 79.0478L155.081 90.1462L155.014 90.2249C153.78 91.6842 152.503 92.3942 151.112 92.3942C150.452 92.3942 149.956 92.1966 149.639 91.8081C149.247 91.326 149.163 90.6055 149.383 89.6028L151.76 78.5633C151.874 78.0199 151.823 77.6105 151.607 77.3479C151.316 76.9939 150.732 76.9201 150.293 76.9201C148.644 76.9201 147.231 77.8681 146.187 78.6951C145.871 78.9472 145.845 79.3136 145.857 79.509C145.866 79.6755 145.913 79.8283 145.972 79.9472C146.504 79.546 147.054 79.5647 147.357 79.9472C147.508 80.138 147.655 80.4956 147.5 81.1201L145.668 89.0813C145.455 90.0214 144.867 93.2268 146.26 94.9476C146.851 95.6773 147.749 96.0473 148.93 96.0473C150.755 96.0473 152.55 94.6343 154.265 91.8485L155.124 90.455ZM158.244 96.8649C156.996 96.8649 155.966 96.4784 155.267 95.7465C154.705 95.1591 154.361 94.3649 154.241 93.3749C152.571 95.6924 150.788 96.8649 148.93 96.8649C147.486 96.8649 146.371 96.3919 145.615 95.4587C144.034 93.508 144.562 90.2226 144.861 88.901L146.695 80.9313C146.774 80.6123 146.722 80.4724 146.704 80.4514C146.681 80.4619 146.567 80.4979 146.203 80.8205L145.972 81.024L145.709 80.8631C145.333 80.632 145.065 80.1209 145.029 79.5601C144.993 78.96 145.223 78.4116 145.666 78.0579C146.819 77.1466 148.384 76.1013 150.291 76.1013C151.19 76.1013 151.849 76.3475 152.247 76.8323C152.628 77.2948 152.736 77.934 152.567 78.7308L150.19 89.7752C150.031 90.5013 150.062 91.0251 150.281 91.2945C150.437 91.4843 150.707 91.5767 151.11 91.5767C152.218 91.5767 153.266 90.9884 154.312 89.7775L156.629 78.8767C157.076 76.831 158.822 76.1013 160.308 76.1013C161.072 76.1013 161.824 76.3118 162.372 76.6783L162.602 76.8323L159.817 89.9706C159.496 91.445 159.772 91.9838 159.907 92.1467C160 92.2614 160.116 92.3146 160.269 92.3146C160.974 92.3146 161.647 91.7121 162.068 90.7025L162.173 90.4495H162.45C163.412 90.4495 164.034 91.0218 164.034 91.9065C164.034 94.9326 160.605 96.8649 158.242 96.8649H158.244Z" fill="#E30016"/>
<path fill-rule="evenodd" clip-rule="evenodd" d="M174.554 90.2158L176.85 79.4274C176.071 79.4655 175.254 79.5062 174.437 79.5827C172.957 85.5791 171.439 89.4768 169.999 91.9695C168.247 95.0076 166.34 96.4473 164.86 96.4857C163.264 96.5261 162.096 94.9659 162.096 92.1248C162.096 90.254 163.38 89.7086 164.821 89.7086C165.288 89.7086 165.911 89.9053 166.417 90.2539C165.911 91.345 165.755 92.5148 165.755 93.2924C167.779 92.046 169.688 90.0224 172.453 79.8178C170.349 80.1281 168.597 80.6357 167.819 81.5297C167.274 80.9089 167.001 80.2069 167.001 79.5443C167.001 77.1281 169.104 76.1959 171.323 76.1959C173.776 76.1959 182.145 76.5062 181.833 78.0642L179.341 89.9053C178.874 92.0841 179.497 92.7871 180.51 92.7871C181.951 92.7871 183.624 91.8142 184.598 90.8377C185.026 91.0334 185.259 91.3834 185.259 91.7725C185.259 92.046 185.142 92.3563 184.91 92.6285C183.079 94.6936 180.276 96.4857 178.174 96.4857C175.449 96.4857 173.463 95.3943 174.554 90.2158Z" fill="#E30016"/>
<path fill-rule="evenodd" clip-rule="evenodd" d="M164.803 90.0916C163.248 90.0916 162.492 90.7477 162.492 92.0972C162.492 93.3614 162.733 94.4018 163.19 95.1056C163.59 95.7215 164.14 96.0456 164.781 96.0456V96.4551L164.83 96.0456C166.297 96.0072 168.088 94.3972 169.62 91.7386C171.202 89.0036 172.68 84.8747 174.014 79.4669L174.083 79.1835L174.376 79.1569C175.199 79.0791 176.024 79.0375 176.808 78.9994L177.343 78.9738L174.937 90.2733C174.451 92.5822 174.568 94.1981 175.29 95.0768C175.831 95.7375 176.74 96.0456 178.15 96.0456C179.963 96.0456 182.665 94.4829 184.574 92.3299C184.73 92.1484 184.821 91.9329 184.821 91.7455C184.821 91.5847 184.753 91.4423 184.625 91.3275C183.579 92.2767 181.966 93.1691 180.487 93.1691C179.913 93.1691 179.469 92.9805 179.165 92.61C178.71 92.0523 178.628 91.131 178.914 89.7939L181.404 77.9623C181.28 77.269 176.275 76.5885 171.301 76.5885C170.385 76.5885 167.396 76.8002 167.396 79.526C167.396 79.9834 167.554 80.4578 167.847 80.8965C168.699 80.2032 170.158 79.7206 172.37 79.3928L172.994 79.3016L172.83 79.9047C169.981 90.4203 168.031 92.3335 165.955 93.6114L165.325 93.9989V93.263C165.325 92.7941 165.382 91.631 165.877 90.3924C165.521 90.2071 165.118 90.0916 164.803 90.0916ZM164.78 96.8649C163.858 96.8649 163.046 96.3973 162.496 95.5489C161.953 94.7122 161.666 93.5185 161.666 92.0972C161.666 90.2756 162.78 89.2733 164.802 89.2733C165.378 89.2733 166.08 89.5105 166.634 89.8911L166.917 90.087L166.773 90.3983C166.428 91.1412 166.273 91.8902 166.204 92.4493C167.812 91.2199 169.523 88.7696 171.865 80.3039C169.931 80.6429 168.669 81.1373 168.113 81.7774L167.801 82.1351L167.487 81.7785C166.895 81.1039 166.569 80.304 166.569 79.526C166.569 77.21 168.382 75.7703 171.301 75.7703C171.394 75.7703 180.681 75.7886 182.016 77.4009C182.244 77.6765 182.249 77.9472 182.213 78.1257L179.722 89.962C179.437 91.2904 179.611 91.8554 179.807 92.0949C179.947 92.2675 180.17 92.3496 180.486 92.3496C181.84 92.3496 183.401 91.403 184.278 90.5233L184.481 90.3183L184.745 90.4387C185.309 90.6979 185.647 91.1864 185.647 91.7455C185.647 92.1297 185.488 92.528 185.199 92.8646C183.488 94.7943 180.556 96.8639 178.15 96.8639C176.472 96.8639 175.359 96.46 174.648 95.5941C173.75 94.499 173.58 92.7039 174.128 90.1053L176.312 79.8443C175.799 79.8709 175.274 79.901 174.746 79.9463C173.411 85.2892 171.928 89.3924 170.337 92.1448C168.634 95.0974 166.635 96.8176 164.852 96.8639L164.78 96.8649Z" fill="#E30016"/>
<path fill-rule="evenodd" clip-rule="evenodd" d="M186.294 81.0048C186.449 80.3797 186.253 80.0292 185.902 80.0292C185.708 80.0292 185.474 80.1857 185.123 80.4967C184.617 80.1857 184.344 78.976 185.123 78.3497C186.449 77.2988 187.853 76.4797 189.492 76.4797C190.895 76.4797 191.715 77.1433 191.365 78.6235L188.986 89.6997C188.633 91.3006 189.141 92.0023 190.311 92.0023C191.675 92.0023 192.846 91.2204 193.898 89.9736L196.239 78.9379C196.63 77.1433 198.111 76.4797 199.515 76.4797C200.218 76.4797 200.882 76.6734 201.35 76.9877L198.618 89.897C198.151 92.0789 198.775 92.7841 199.788 92.7841C201.231 92.7841 202.908 91.8086 203.883 90.8307C204.314 91.028 204.547 91.3769 204.547 91.7668C204.547 92.0404 204.431 92.3515 204.196 92.625C202.363 94.6922 199.555 96.4865 197.45 96.4865C195.537 96.4865 193.626 95.5109 193.821 92.0789C192.261 94.6156 190.35 96.4865 188.126 96.4865C183.797 96.4865 183.797 91.9234 184.46 88.998L186.294 81.0048Z" fill="#E30016"/>
<path fill-rule="evenodd" clip-rule="evenodd" d="M194.329 90.454L194.236 92.0847C194.157 93.4791 194.438 94.5222 195.07 95.185C195.75 95.8972 196.736 96.0474 197.444 96.0474C199.255 96.0474 201.956 94.4864 203.864 92.3368C204.02 92.1539 204.11 91.9388 204.11 91.7517C204.11 91.5907 204.043 91.4475 203.916 91.3327C202.869 92.2833 201.257 93.1739 199.777 93.1739C199.204 93.1739 198.76 92.9865 198.458 92.6164C198.002 92.0592 197.919 91.1387 198.204 89.802L200.869 77.2204C200.483 77.0274 200 76.9198 199.505 76.9198C198.783 76.9198 197.058 77.127 196.64 79.0475L194.284 90.1465L194.218 90.2252C192.986 91.6845 191.711 92.3945 190.323 92.3945C189.663 92.3945 189.168 92.1968 188.852 91.8071C188.46 91.3259 188.376 90.6044 188.597 89.603L190.969 78.5631C191.096 78.0255 191.054 77.6243 190.844 77.3617C190.552 76.9962 189.955 76.9198 189.506 76.9198C187.858 76.9198 186.449 77.8681 185.406 78.6948C185.09 78.9469 185.065 79.3124 185.078 79.509C185.087 79.6742 185.133 79.8283 185.191 79.9473C185.724 79.5471 186.272 79.5644 186.574 79.9473C186.725 80.1381 186.871 80.4954 186.716 81.1198L184.888 89.0815C184.676 90.0216 184.089 93.227 185.48 94.9476C186.07 95.6773 186.965 96.0474 188.144 96.0474C189.966 96.0474 191.758 94.6343 193.471 91.8487L194.329 90.454ZM197.444 96.8649C196.196 96.8649 195.167 96.4777 194.469 95.7468C193.909 95.1594 193.566 94.3648 193.446 93.3752C191.78 95.6924 190 96.8649 188.144 96.8649C186.703 96.8649 185.59 96.3922 184.835 95.459C183.257 93.508 183.784 90.2228 184.083 88.9012L185.913 80.9313C185.992 80.612 185.94 80.4724 185.922 80.4515C185.895 80.4629 185.776 80.5068 185.422 80.8202L185.192 81.0238L184.929 80.8632C184.553 80.6317 184.286 80.1207 184.251 79.5599C184.211 78.9597 184.445 78.4116 184.887 78.0579C186.037 77.1467 187.599 76.1013 189.503 76.1013C190.409 76.1013 191.096 76.3626 191.489 76.854C191.864 77.3224 191.96 77.9573 191.774 78.7414L189.403 89.7754C189.243 90.5002 189.275 91.0253 189.493 91.2947C189.645 91.4809 189.924 91.577 190.321 91.577C191.427 91.577 192.473 90.9882 193.517 89.7777L195.83 78.8764C196.277 76.831 198.019 76.1013 199.503 76.1013C200.265 76.1013 201.016 76.3118 201.564 76.6783L201.793 76.8333L199.011 89.9708C198.727 91.297 198.902 91.8615 199.098 92.1017C199.239 92.2732 199.459 92.3551 199.775 92.3551C201.129 92.3551 202.69 91.4091 203.566 90.5303L203.769 90.3258L204.033 90.4461C204.598 90.7037 204.935 91.1918 204.935 91.7517C204.935 92.1355 204.776 92.5331 204.487 92.8697C202.777 94.7975 199.847 96.8649 197.442 96.8649H197.444Z" fill="#E30016"/>
<path fill-rule="evenodd" clip-rule="evenodd" d="M208.272 89.7227C207.92 91.3261 208.427 92.029 209.596 92.029C210.959 92.029 212.13 91.2461 213.182 89.9958L215.521 78.9418C215.912 77.1441 217.393 76.4797 218.796 76.4797C219.499 76.4797 220.162 76.6737 220.63 76.9886L217.901 89.92C217.198 93.7464 219.304 93.3178 220.396 90.8963C220.941 90.8172 221.41 91.0517 221.799 91.4819C222.11 100.545 216.536 104.296 212.83 104.338C209.168 104.338 209.324 101.092 211.468 98.8277C212.754 100.584 218.64 99.7654 219.771 94.8794C219.108 95.8181 217.939 96.5214 216.732 96.5214C214.82 96.5214 212.91 95.5441 213.105 92.1057C211.546 94.6469 209.635 96.5214 207.412 96.5214C203.086 96.5214 203.086 91.9499 203.748 89.0195L205.581 81.0123C205.736 80.3861 205.541 80.0353 205.19 80.0353C204.996 80.0353 204.762 80.1921 204.412 80.5034C203.905 80.1921 203.633 78.979 204.412 78.3525C205.737 77.2998 207.14 76.4797 208.778 76.4797C210.181 76.4797 210.999 77.1441 210.649 78.6269L208.272 89.7227Z" fill="#E30016"/>
<path fill-rule="evenodd" clip-rule="evenodd" d="M211.505 99.4124C210.546 100.575 210.145 101.928 210.53 102.809C210.922 103.708 212.006 103.897 212.85 103.897C214.685 103.876 216.692 102.918 218.219 101.335C219.754 99.7417 221.544 96.7725 221.406 91.6504C221.173 91.4266 220.935 91.3086 220.681 91.2922C220.108 92.4355 219.296 93.1611 218.571 93.1611C218.256 93.1611 217.981 93.0313 217.775 92.7842C217.337 92.2662 217.249 91.277 217.513 89.8478L220.18 77.2223C219.793 77.0287 219.31 76.921 218.813 76.921C218.09 76.921 216.364 77.1283 215.945 79.0541L213.586 90.1827L213.52 90.2602C212.285 91.7246 211.01 92.4355 209.618 92.4355C208.958 92.4355 208.464 92.2383 208.147 91.8476C207.753 91.3651 207.669 90.6418 207.889 89.6378L210.266 78.5684C210.393 78.0291 210.351 77.6269 210.141 77.365C209.848 76.9975 209.249 76.921 208.801 76.921C207.15 76.921 205.739 77.8717 204.695 78.7005C204.379 78.9545 204.352 79.3206 204.365 79.5168C204.374 79.6838 204.42 79.8379 204.48 79.9572C205.013 79.555 205.561 79.5734 205.863 79.9563C206.015 80.1476 206.163 80.5058 206.007 81.1319L204.177 89.1137C203.963 90.0566 203.374 93.2703 204.767 94.9963C205.358 95.7269 206.257 96.0979 207.435 96.0979C209.26 96.0979 211.055 94.6821 212.771 91.8894L213.629 90.491L213.537 92.1247C213.458 93.524 213.74 94.5697 214.373 95.2342C215.055 95.9483 216.042 96.0979 216.75 96.0979C217.762 96.0979 218.821 95.5241 219.448 94.6348L220.666 92.9118L220.191 94.9618C219.414 98.3109 216.367 100.064 213.758 100.064C212.82 100.064 212.028 99.8307 211.505 99.4124ZM212.855 104.716C210.774 104.716 210.031 103.725 209.774 103.135C209.217 101.86 209.787 100.008 211.19 98.529L211.532 98.1672L211.825 98.5685C212.137 98.9914 212.859 99.2441 213.76 99.2441C215.278 99.2441 217.59 98.4397 218.786 96.3341C218.157 96.7065 217.447 96.9174 216.752 96.9174C215.504 96.9174 214.475 96.5303 213.775 95.7974C213.212 95.2085 212.87 94.4109 212.748 93.4184C211.08 95.7419 209.296 96.9174 207.438 96.9174C205.994 96.9174 204.879 96.4431 204.123 95.5089C202.545 93.5518 203.071 90.258 203.372 88.9329L205.204 80.9428C205.283 80.624 205.235 80.4824 205.212 80.4617C205.185 80.4732 205.067 80.5172 204.713 80.8314L204.481 81.0365L204.219 80.8745C203.842 80.6438 203.575 80.1301 203.54 79.5678C203.5 78.9661 203.733 78.4176 204.177 78.0616C205.328 77.1481 206.893 76.1013 208.802 76.1013C209.708 76.1013 210.396 76.362 210.79 76.8549C211.165 77.3245 211.26 77.9608 211.074 78.7469L208.7 89.8093C208.541 90.5376 208.572 91.0637 208.791 91.3339C208.945 91.5229 209.217 91.6155 209.619 91.6155C210.726 91.6155 211.775 91.0256 212.82 89.8117L215.136 78.8836C215.584 76.8316 217.33 76.1013 218.814 76.1013C219.579 76.1013 220.331 76.3123 220.878 76.6797L221.108 76.8339L218.325 90.0052C218.023 91.6435 218.316 92.1456 218.411 92.2603C218.47 92.3309 218.523 92.3415 218.572 92.3415C218.877 92.3415 219.533 91.8407 220.036 90.7289L220.129 90.5235L220.353 90.49C221.015 90.3937 221.61 90.6408 222.123 91.2054L222.224 91.3165L222.229 91.466C222.419 96.9697 220.478 100.179 218.817 101.901C217.14 103.642 214.911 104.693 212.858 104.716H212.855Z" fill="#E30016"/>
<path fill-rule="evenodd" clip-rule="evenodd" d="M233.851 90.034L236.033 79.6115C235.371 79.3802 234.785 79.3015 234.202 79.3015C229.484 79.3015 227.808 85.4429 227.808 89.6822C227.808 91.626 228.705 92.4806 229.912 92.4806C231.16 92.4806 232.799 91.4713 233.851 90.034ZM238.569 89.917C238.14 91.8991 238.645 92.7536 239.425 92.7536C240.127 92.7536 241.023 92.2875 241.609 90.8885C242.348 90.8885 242.779 91.2782 242.779 91.9361C242.779 94.6594 239.58 96.4865 237.398 96.4865C235.565 96.4865 233.733 95.6307 233.773 92.5606C232.135 94.8525 230.068 96.4865 227.846 96.4865C223.792 96.4865 222.974 92.4426 222.974 89.9553C222.974 83.151 227.378 76.3851 232.799 76.3851C234.551 76.3851 235.838 76.8132 236.813 77.6678C237.476 76.8916 238.49 76.5402 239.465 76.5402C240.167 76.5402 240.828 76.7333 241.296 77.0479L238.569 89.917Z" fill="#E30016"/>
<path fill-rule="evenodd" clip-rule="evenodd" d="M234.179 79.6132C229.794 79.6132 228.203 85.5999 228.203 89.6235C228.203 90.5195 228.424 92.023 229.894 92.023C230.994 92.023 232.474 91.0954 233.442 89.8057L235.529 79.7933C235.089 79.6712 234.652 79.6132 234.179 79.6132ZM229.894 92.8437C228.317 92.8437 227.377 91.64 227.377 89.6235C227.377 85.8773 228.798 78.7926 234.179 78.7926C234.872 78.7926 235.496 78.8992 236.148 79.1269L236.488 79.2464L234.164 90.2177C233.036 91.764 231.281 92.8437 229.894 92.8437ZM234.181 91.1964L234.163 92.5186C234.15 93.7272 234.436 94.6384 235.02 95.2245C235.56 95.7677 236.353 96.0442 237.373 96.0442C239.35 96.0442 242.338 94.3854 242.338 91.8871C242.338 91.7489 242.338 91.3646 241.84 91.2685C241.273 92.4317 240.377 93.1174 239.4 93.1174C238.994 93.1174 238.647 92.9539 238.394 92.6452C237.936 92.0822 237.849 91.1164 238.138 89.7731L240.804 77.1439C240.417 76.9501 239.934 76.8409 239.439 76.8409C238.489 76.8409 237.638 77.2009 237.104 77.8277L236.831 78.1492L236.513 77.8695C235.598 77.0617 234.409 76.6865 232.776 76.6865C227.853 76.6865 223.371 82.9832 223.371 89.8973C223.371 91.3392 223.692 96.0442 227.828 96.0442C229.7 96.0442 231.684 94.7055 233.413 92.276L234.181 91.1964ZM237.373 96.8649C236.141 96.8649 235.123 96.497 234.432 95.8017C233.895 95.2617 233.553 94.5361 233.412 93.6341C232.069 95.264 230.158 96.8649 227.828 96.8649C222.925 96.8649 222.543 91.5317 222.543 89.8973C222.543 82.4225 227.325 75.8649 232.777 75.8649C234.428 75.8649 235.734 76.2387 236.755 77.0048C237.442 76.3756 238.397 76.0202 239.439 76.0202C240.203 76.0202 240.955 76.2314 241.503 76.5997L241.732 76.755L238.948 89.9436C238.629 91.4251 238.903 91.9648 239.038 92.1286C239.132 92.2434 239.246 92.2968 239.4 92.2968C240.105 92.2968 240.779 91.6919 241.201 90.6788L241.306 90.4244H241.583C242.544 90.4244 243.166 90.999 243.166 91.8871C243.166 94.925 239.735 96.8649 237.373 96.8649Z" fill="#E30016"/>
<path fill-rule="evenodd" clip-rule="evenodd" d="M37.0928 56.2986L35.1052 56.5713L32.8058 67.4558C32.4164 69.2889 30.8963 69.9527 29.4543 69.9527C28.557 69.9527 27.818 69.7589 27.3886 69.4481L33.6632 41.7067H33.4676C29.9225 41.7067 28.6355 43.6957 28.6355 45.5291C28.6355 46.3867 28.9477 47.2475 29.4157 47.7905C28.8305 48.0645 28.2846 48.1816 27.7408 48.1816C25.7536 48.1816 24.5835 46.4284 24.5835 44.4776C24.5835 42.0188 26.4542 39.2095 31.0511 39.2095C34.2868 39.2095 37.5991 40.9258 39.2742 39.988C39.6636 40.2239 39.8189 40.6136 39.8189 41.0047C39.8189 41.7452 39.3514 42.527 38.4554 42.527H38.1046L35.5727 54.5033L36.5078 54.1924C41.9238 51.0315 43.5599 44.9443 44.495 40.5347C44.9252 40.2992 45.4704 40.2239 45.937 40.2239C47.2236 40.2239 48.6263 41.1195 48.6263 42.5642C48.6263 46.2311 45.7046 50.094 41.3776 53.5658C41.9637 59.4977 43.1318 66.249 46.0155 66.249C47.0681 66.249 48.3155 65.3497 49.0543 64.2948C49.4827 64.4922 49.6407 64.8412 49.6407 65.1941C49.6407 66.4809 47.2623 69.9527 43.5599 69.9527C39.0789 69.9527 37.5599 62.4232 37.0928 56.2986Z" fill="#E30016"/>
<path fill-rule="evenodd" clip-rule="evenodd" d="M37.4703 55.8082L37.5018 56.2431C37.8792 61.1989 39.1637 69.5112 43.5449 69.5112C46.9777 69.5112 49.1988 66.2821 49.1988 65.1653C49.1988 65.0367 49.1674 64.9289 49.1065 64.8395C48.3491 65.7558 47.1443 66.629 45.9935 66.629C43.4337 66.629 41.8323 62.4839 40.9557 53.5838L40.933 53.3635L41.1059 53.2241C45.7375 49.5013 48.1865 45.8097 48.1865 42.5471C48.1865 41.355 47.0073 40.6172 45.916 40.6172C45.5042 40.6172 45.1294 40.6823 44.839 40.8007C43.7419 45.9096 41.8969 51.4939 36.7141 54.5231L36.6375 54.5579L35.0221 55.0974L37.764 42.0997H38.4489C39.1458 42.0997 39.3982 41.4349 39.3982 40.9884C39.3982 40.8273 39.3623 40.6186 39.2113 40.4526C38.233 40.8504 36.6842 40.5676 35.0068 40.1905C33.7811 39.9157 32.3911 39.605 31.0614 39.605C26.8887 39.605 25.0197 42.0427 25.0197 44.4598C25.0197 46.095 25.9606 47.7513 27.7568 47.7513C28.105 47.7513 28.4467 47.6954 28.7918 47.583C28.4431 46.9892 28.2377 46.2377 28.2377 45.5105C28.2377 43.5587 29.608 41.2797 33.4733 41.2797H34.1827L27.8736 69.2176C28.2608 69.4033 28.8329 69.5112 29.4671 69.5112C30.2128 69.5112 31.9917 69.3001 32.4085 67.341L34.7617 56.1807L37.4703 55.8082ZM43.5462 70.3311C38.8603 70.3311 37.2388 63.0441 36.7149 56.7405L35.4523 56.9135L33.2181 67.5103C32.8421 69.2768 31.4398 70.3311 29.4688 70.3311C28.5022 70.3311 27.6827 70.1246 27.1646 69.7475L26.9458 69.5901L33.1516 42.1066C30.1459 42.219 29.0649 43.917 29.0649 45.5105C29.0649 46.241 29.3309 47.0241 29.7441 47.5041L30.0955 47.9137L29.6067 48.1419C28.9891 48.4309 28.3841 48.5713 27.7585 48.5713C25.4196 48.5713 24.1961 46.5033 24.1961 44.4598C24.1961 41.7261 26.345 38.7838 31.0632 38.7838C32.4847 38.7838 33.9232 39.1063 35.1911 39.3904C36.8331 39.7592 38.3279 40.0295 39.066 39.6152L39.2765 39.4969L39.4826 39.6221C39.9545 39.9075 40.2262 40.4052 40.2262 40.9884C40.2262 41.9244 39.6037 42.9196 38.4506 42.9196H38.4375L36.1272 53.8632L36.3351 53.7935C41.2795 50.8814 43.0226 45.4086 44.0757 40.4342L44.116 40.2507L44.2818 40.1593C44.8281 39.8602 45.4745 39.7974 45.9204 39.7974C47.4087 39.7974 49.0163 40.8494 49.0163 42.5471C49.0163 46.023 46.5229 49.884 41.8026 53.7229C42.8096 63.7053 44.6368 65.809 45.9979 65.809C46.8386 65.809 47.9714 65.0621 48.692 64.0324L48.8903 63.7503L49.2041 63.8943C49.7284 64.1356 50.0281 64.5982 50.0281 65.1653C50.0281 66.6546 47.445 70.3311 43.5488 70.3311H43.5462Z" fill="#E30016"/>
<path fill-rule="evenodd" clip-rule="evenodd" d="M55.8765 72.2287C51.247 74.4866 48.0546 76.3589 48.0546 79.3179C48.0546 80.6814 49.1446 81.1485 49.6505 81.1485C52.3359 81.1485 53.8929 78.4998 55.8765 72.2287ZM50.7796 54.4656C50.9352 53.8409 50.7391 53.4922 50.3898 53.4922C50.1956 53.4922 49.9622 53.6475 49.612 53.9582C49.107 53.6475 48.8339 52.4393 49.612 51.8146C50.9354 50.7637 52.3359 49.9459 53.9701 49.9459C55.3707 49.9459 56.1882 50.6087 55.8375 52.0869L53.4257 63.3064C53.1535 64.515 53.4662 65.45 54.7483 65.45C55.8767 65.45 56.8493 64.9042 57.7444 64.048L60.274 52.4008C60.6642 50.6087 62.142 49.9459 63.5425 49.9459C64.2421 49.9459 64.9046 50.1394 65.3719 50.4533L62.0649 65.8786C61.9469 66.4241 61.8302 66.9699 61.7141 67.4773C63.8541 66.4241 65.9172 65.2539 67.2779 64.0861C67.8622 64.5938 67.9774 65.45 67.3182 66.0339C66.6177 66.6582 63.9703 68.41 61.2091 69.6971C59.4193 76.9418 56.539 84.6149 49.6124 84.6149C47.4324 84.6149 44.9048 83.0579 44.9048 79.8253C44.9048 74.8771 50.1963 72.5391 56.6561 69.6566C56.9292 68.7239 57.1621 67.7463 57.4737 66.6963C55.9561 68.6057 54.204 69.8908 52.2581 69.8908C48.4053 69.8908 48.173 66.072 48.9498 62.4493L50.7796 54.4656Z" fill="#E30016"/>
<path fill-rule="evenodd" clip-rule="evenodd" d="M55.1834 73.0475C51.3129 74.9711 48.4571 76.7337 48.4571 79.3368C48.4571 80.5032 49.4054 80.7569 49.6407 80.7569C51.8488 80.7569 53.2897 78.7869 55.1834 73.0475ZM49.6407 81.5756C48.8297 81.5756 47.6296 80.8633 47.6296 79.3368C47.6296 76.0689 51.1247 74.1071 55.6921 71.8825L56.5591 71.461L56.2697 72.3723C54.3787 78.3412 52.7622 81.5756 49.6407 81.5756ZM58.4773 64.7997L57.8717 66.8369C57.7042 67.3963 57.5601 67.9346 57.4213 68.4556C57.2996 68.9132 57.18 69.358 57.0525 69.7933L56.9999 69.9752L56.7346 70.092C50.347 72.9385 45.3022 75.1852 45.3022 79.8443C45.3022 83.0555 47.8727 84.2218 49.603 84.2218C56.3359 84.2218 59.1312 76.4198 60.813 69.6229L60.8595 69.4332L61.0388 69.3499C63.8002 68.0644 66.3843 66.3514 67.0556 65.754C67.2618 65.5721 67.3688 65.3521 67.3679 65.1181C67.3679 64.9701 67.3232 64.8217 67.2442 64.6851C66.0205 65.6624 64.268 66.7059 61.9045 67.8674L61.1252 68.2508L61.3173 67.4101C61.4246 66.9377 61.5345 66.4325 61.6436 65.9253L61.6664 65.8176L64.9169 50.6876C64.5307 50.4943 64.0479 50.3866 63.5508 50.3866C62.8278 50.3866 61.1013 50.5937 60.6827 52.5174L58.1221 64.282L58.0322 64.3676C56.9643 65.3879 55.8895 65.8836 54.7458 65.8836C54.1014 65.8836 53.6122 65.6834 53.292 65.2885C52.9152 64.8217 52.8204 64.1143 53.0166 63.242L55.4317 52.0322C55.5596 51.4935 55.5177 51.0927 55.3071 50.8301C55.0134 50.4628 54.4169 50.3866 53.9665 50.3866C52.3162 50.3866 50.9058 51.3373 49.8613 52.1642C49.5452 52.4176 49.5185 52.7836 49.5311 52.9793C49.5401 53.146 49.5863 53.299 49.6455 53.4182C50.1781 53.0177 50.7264 53.0351 51.0304 53.4182C51.1813 53.6092 51.3292 53.9684 51.1734 54.5937L49.3429 62.5658C48.7533 65.3082 48.9216 67.4252 49.8174 68.5219C50.3581 69.1831 51.1543 69.5038 52.2514 69.5038C53.8963 69.5038 55.5445 68.4825 57.149 66.4673L58.4773 64.7997ZM49.603 85.0405C47.1165 85.0405 44.4743 83.219 44.4743 79.8443C44.4743 74.6793 49.9503 72.2173 56.3109 69.3833C56.4129 69.0255 56.5108 68.6618 56.6105 68.2889C55.2008 69.6404 53.74 70.3225 52.2518 70.3225C50.9082 70.3225 49.8733 69.8905 49.175 69.037C47.8206 67.3799 48.0802 64.5078 48.5351 62.3898L50.3678 54.405C50.4486 54.0852 50.3989 53.9441 50.381 53.923C50.3585 53.9349 50.2448 53.9693 49.8806 54.2927L49.649 54.4975L49.3859 54.3354C49.0105 54.1049 48.7439 53.5931 48.7075 53.0314C48.6671 52.4304 48.9019 51.8816 49.3438 51.526C50.4961 50.6134 52.061 49.5676 53.9687 49.5676C54.8753 49.5676 55.5627 49.8282 55.957 50.3216C56.3324 50.7894 56.4276 51.4252 56.2416 52.2114L53.8275 63.417C53.6883 64.0332 53.7278 64.5147 53.9397 64.7767C54.0951 64.9678 54.3663 65.0649 54.748 65.0649C55.6358 65.0649 56.4952 64.6723 57.37 63.8641L59.8767 52.3447C60.3226 50.2973 62.0684 49.5676 63.553 49.5676C64.3164 49.5676 65.0694 49.7783 65.6177 50.1456L65.8479 50.2996L62.4549 66.0957C62.4082 66.3133 62.3613 66.531 62.3146 66.7463C64.4054 65.6775 65.9881 64.6887 67.0236 63.8014L67.296 63.5687L67.5674 63.8037C67.9648 64.149 68.1945 64.6273 68.1967 65.1148C68.1967 65.5839 67.9899 66.0274 67.6082 66.3642C66.9216 66.9758 64.3388 68.6966 61.5717 70.0077C59.8109 77.0498 56.8473 85.0405 49.6047 85.0405H49.603Z" fill="#E30016"/>
<path fill-rule="evenodd" clip-rule="evenodd" d="M77.9322 53.2938C77.3094 53.1383 76.7256 53.1383 76.219 53.1383C72.871 53.1383 70.7688 58.3667 70.7688 62.1124C70.7688 64.1013 71.4688 65.6607 73.0652 65.6607C76.4517 65.6607 78.3204 59.2626 78.3204 55.4798C78.3204 54.698 78.1646 53.9576 77.9322 53.2938ZM84.3555 42.3311C84.7046 42.8393 84.7438 43.5412 84.6272 44.2431C84.3162 45.609 83.2662 47.1313 81.4348 47.1313C78.7881 47.1313 76.4515 46.1939 73.7649 46.0383C76.8024 48.2996 80.6562 51.3434 80.6562 56.2192C80.6562 61.8397 77.2299 69.9527 71.4309 69.9527C67.3808 69.9527 65.7857 66.8711 65.7857 63.282C65.7857 57.8585 69.7554 50.9523 75.3637 50.9523C75.829 50.9523 76.2563 50.994 76.6466 51.0694C75.0108 49.0818 72.5193 47.7914 71.0414 46.7787C71.0414 44.8279 71.1581 42.3311 74.7784 42.3311C78.5158 42.3311 81.9022 42.9945 84.3555 42.3311Z" fill="#E30016"/>
<path fill-rule="evenodd" clip-rule="evenodd" d="M76.1982 53.5634C73.1247 53.5634 71.1619 58.6211 71.1619 62.1042C71.1619 63.0449 71.3467 65.233 73.0452 65.233C75.9554 65.233 77.8861 59.3687 77.8861 55.489C77.8861 54.8908 77.7864 54.2751 77.5914 53.6585C77.0976 53.5634 76.6238 53.5634 76.1982 53.5634ZM73.0452 66.051C71.349 66.051 70.3363 64.5757 70.3363 62.1042C70.3363 58.1967 72.5663 52.7453 76.1982 52.7453C76.7063 52.7453 77.3395 52.7453 78.0123 52.9133L78.2269 52.9664L78.3009 53.1747C78.574 53.9511 78.7117 54.7297 78.7117 55.489C78.7117 59.2798 76.8183 66.051 73.0452 66.051ZM75.3428 51.3835C70.1834 51.3835 66.1821 57.7729 66.1821 63.2692C66.1821 65.1474 66.6912 69.513 71.412 69.513C76.8696 69.513 80.2214 61.7742 80.2214 56.2271C80.2214 51.7699 76.9003 48.9294 73.4972 46.4008L72.4013 45.5864L73.7696 45.6661C75.0357 45.7389 76.2277 45.981 77.3789 46.2159C78.7401 46.4924 80.0264 46.7551 81.4131 46.7551C83.0389 46.7551 83.93 45.3758 84.2 44.193C84.2641 43.8113 84.2943 43.2812 84.1189 42.8499C83.4126 43.007 82.5983 43.0802 81.5901 43.0802C80.6285 43.0802 79.6022 43.0142 78.5146 42.9447C77.3077 42.866 76.0578 42.7863 74.759 42.7863C71.7868 42.7863 71.4553 44.4919 71.4374 46.5953C71.7239 46.7862 72.0426 46.9863 72.3812 47.1995C73.8321 48.111 75.6398 49.2476 76.9467 50.8328L77.6719 51.7122L76.5468 51.4934C76.1741 51.4206 75.7688 51.3835 75.3437 51.3835H75.3428ZM71.412 70.3311C67.62 70.3311 65.3552 67.6917 65.3552 63.2692C65.3552 57.3947 69.7183 50.5655 75.3428 50.5655C75.424 50.5655 75.5034 50.5663 75.5824 50.5686C74.4522 49.4707 73.0803 48.6084 71.9367 47.8901C71.516 47.6251 71.126 47.3797 70.787 47.1482L70.61 47.0268V46.8117C70.61 45.1188 70.61 41.9677 74.7581 41.9677C76.0838 41.9677 77.3459 42.0488 78.5672 42.1275C79.6404 42.197 80.6546 42.262 81.5892 42.262C82.6781 42.262 83.5146 42.1728 84.2214 41.9819L84.5048 41.9054L84.6708 42.1462C85.0435 42.6864 85.1605 43.4477 85.0098 44.3503C84.6416 45.9657 83.3896 47.5729 81.4123 47.5729C79.9412 47.5729 78.5535 47.2905 77.2112 47.0163C76.5479 46.8822 75.8701 46.7444 75.1772 46.6391C77.8574 48.7104 81.0461 51.6854 81.0461 56.2269C81.0461 62.1168 77.3804 70.3309 71.4111 70.3309L71.412 70.3311Z" fill="#E30016"/>
<path fill-rule="evenodd" clip-rule="evenodd" d="M94.8391 53.0775C94.1775 52.8428 93.5942 52.7677 93.0107 52.7677C88.3011 52.7677 86.6277 58.9093 86.6277 63.1487C86.6277 65.0925 87.522 65.947 88.7291 65.947C89.9743 65.947 91.6097 64.9375 92.6602 63.5001L94.8391 53.0775ZM95.6184 51.1337C96.2801 50.3555 97.2918 50.0061 98.2652 50.0061C98.9658 50.0061 99.6262 50.1995 100.094 50.5128L97.3698 63.3833C96.9028 65.5573 97.5252 66.2604 98.5372 66.2604C99.9767 66.2604 101.652 65.2856 102.624 64.313C103.052 64.5097 103.285 64.8578 103.285 65.2475C103.285 65.5202 103.17 65.8304 102.935 66.1021C101.106 68.1639 98.3035 69.9527 96.2015 69.9527C94.3731 69.9527 92.5436 69.0968 92.5831 66.0267C90.9476 68.3186 88.884 69.9527 86.6654 69.9527C82.6193 69.9527 81.8016 65.9087 81.8016 63.4204C81.8016 56.6173 86.1982 49.8514 91.6097 49.8514C93.3614 49.8514 94.6441 50.2791 95.6184 51.1337Z" fill="#E30016"/>
<path fill-rule="evenodd" clip-rule="evenodd" d="M93.0109 53.0795C88.6238 53.0795 87.0322 59.0662 87.0322 63.0906C87.0322 63.9857 87.2522 65.4892 88.7236 65.4892C89.8234 65.4892 91.3048 64.5616 92.2721 63.272L94.3627 53.2581C93.926 53.135 93.4966 53.0795 93.0109 53.0795ZM88.7236 66.3099C87.1457 66.3099 86.2047 65.1062 86.2047 63.0906C86.2047 59.3436 87.6269 52.2588 93.0109 52.2588C93.7123 52.2588 94.338 52.3654 94.9813 52.5941L95.3209 52.7139L92.996 63.6839C91.8675 65.2302 90.1114 66.3099 88.7236 66.3099ZM93.0136 64.6626L92.9956 65.9848C92.9776 67.1934 93.2684 68.1033 93.852 68.6907C94.3929 69.234 95.1847 69.5091 96.2063 69.5091C98.0223 69.5091 100.728 67.943 102.638 65.784C102.795 65.6027 102.886 65.3869 102.886 65.1977C102.886 65.0364 102.818 64.8923 102.692 64.7788C101.641 65.7308 100.025 66.6245 98.5453 66.6245C97.9711 66.6245 97.5266 66.4362 97.2238 66.0651C96.7659 65.5053 96.684 64.5813 96.9706 63.2404L99.6377 50.6101C99.2518 50.4163 98.7684 50.3084 98.2719 50.3084C97.3195 50.3084 96.4688 50.6671 95.9382 51.2929L95.6658 51.6154L95.3473 51.3357C94.4289 50.5279 93.2401 50.1518 91.6065 50.1518C86.6811 50.1518 82.1968 56.4494 82.1968 63.3634C82.1968 64.8054 82.5184 69.5091 86.6553 69.5091C88.5297 69.5091 90.5139 68.1718 92.2431 65.7423L93.0136 64.6626ZM96.2076 70.3311C94.973 70.3311 93.9565 69.9632 93.2632 69.2679C92.7263 68.7279 92.386 68.0023 92.2445 67.1003C90.9011 68.7302 88.9875 70.3311 86.6566 70.3311C81.751 70.3311 81.3711 64.9982 81.3711 63.3634C81.3711 55.8887 86.1546 49.3311 91.6078 49.3311C93.2589 49.3311 94.566 49.7049 95.5886 50.4709C96.2719 49.8418 97.2287 49.4864 98.2732 49.4864C99.0375 49.4864 99.7885 49.6977 100.338 50.0659L100.567 50.2202L97.7814 63.4102C97.4957 64.7415 97.6706 65.3079 97.8674 65.5484C98.0076 65.7202 98.2298 65.8038 98.5466 65.8038C99.8993 65.8038 101.464 64.8541 102.346 63.9705L102.55 63.7666L102.814 63.887C103.379 64.146 103.716 64.6359 103.716 65.1977C103.716 65.5843 103.555 65.9838 103.265 66.3214C101.555 68.2553 98.6193 70.3311 96.2076 70.3311Z" fill="#E30016"/>
<path fill-rule="evenodd" clip-rule="evenodd" d="M111.68 63.8298L112.459 60.0475C110.98 60.515 109.229 60.9046 107.516 60.9845L106.115 67.4973C105.725 69.2882 104.364 69.9527 102.962 69.9527C102.26 69.9527 101.6 69.7577 101.133 69.447L104.364 54.472C104.519 53.8456 104.323 53.4965 103.974 53.4965C103.779 53.4965 103.546 53.652 103.196 53.964C102.691 53.652 102.418 52.442 103.196 51.8171C104.519 50.7663 105.92 49.9459 107.556 49.9459C108.956 49.9459 109.773 50.6107 109.424 52.0896L108.06 58.3296C109.813 58.2914 111.409 58.1741 112.887 58.0189L114.094 52.4039C114.483 50.6108 115.807 49.9459 117.207 49.9459C117.907 49.9459 118.57 50.1399 119.037 50.4542L116.311 63.3635C115.846 65.544 116.469 66.2493 117.48 66.2493C118.92 66.2493 120.594 65.2715 121.567 64.296C121.995 64.4932 122.229 64.8424 122.229 65.2333C122.229 65.5069 122.111 65.8179 121.878 66.0905C120.048 68.1585 117.869 69.9527 115.261 69.9527C113.316 69.9527 110.63 68.8601 111.68 63.8298Z" fill="#E30016"/>
<path fill-rule="evenodd" clip-rule="evenodd" d="M113.01 59.4468L112.088 63.9003C111.657 65.9563 111.834 67.4782 112.614 68.4253C113.393 69.3723 114.611 69.5135 115.268 69.5135C117.325 69.5135 119.333 68.3338 121.583 65.8025C121.739 65.6209 121.83 65.4059 121.83 65.2174C121.83 65.0577 121.763 64.9145 121.636 64.7998C120.585 65.7494 118.969 66.6397 117.489 66.6397C116.916 66.6397 116.471 66.4522 116.168 66.0824C115.712 65.5249 115.629 64.6044 115.916 63.269L118.583 50.686C118.197 50.493 117.714 50.3854 117.216 50.3854C116.376 50.3854 114.907 50.6617 114.504 52.5132L113.234 58.4005L112.935 58.4316C111.263 58.6063 109.67 58.7089 108.067 58.7436L107.543 58.7555L109.018 52.0274C109.146 51.4908 109.104 51.0896 108.893 50.8283C108.601 50.4615 108.003 50.3854 107.553 50.3854C105.902 50.3854 104.491 51.3347 103.447 52.1605C103.131 52.4135 103.105 52.779 103.117 52.9744C103.126 53.1409 103.173 53.2937 103.231 53.4127C103.764 53.0127 104.312 53.0301 104.616 53.4127C104.767 53.6034 104.915 53.962 104.76 54.5865L101.59 69.2149C101.976 69.4057 102.459 69.5135 102.953 69.5135C103.808 69.5135 105.302 69.2369 105.706 67.3891L107.175 60.5882L107.493 60.5731C109.365 60.4866 111.161 60.0273 112.339 59.6573L113.01 59.4468ZM115.268 70.3311C114.464 70.3311 112.968 70.1505 111.972 68.9422C111.027 67.7939 110.793 66.0418 111.278 63.7347L111.919 60.6367C110.809 60.9491 109.367 61.2694 107.851 61.371L106.515 67.5602C106.136 69.2959 104.805 70.3311 102.953 70.3311C102.193 70.3311 101.442 70.1229 100.892 69.7584L100.659 69.6047L103.953 54.4026C104.033 54.0788 103.985 53.9378 103.967 53.9168C103.944 53.9286 103.83 53.9643 103.466 54.2859L103.235 54.4905L102.972 54.3285C102.595 54.0984 102.329 53.5861 102.294 53.0252C102.253 52.4253 102.487 51.8782 102.93 51.5232C104.081 50.6119 105.646 49.5676 107.554 49.5676C108.461 49.5676 109.149 49.8278 109.543 50.3205C109.918 50.7877 110.014 51.4226 109.828 52.2077L108.577 57.9124C109.884 57.8717 111.191 57.7852 112.552 57.6488L113.696 52.3421C114.081 50.5785 115.364 49.5676 117.218 49.5676C117.982 49.5676 118.735 49.778 119.283 50.1448L119.512 50.2986L116.727 63.4364C116.443 64.7641 116.617 65.3282 116.814 65.5678C116.954 65.7389 117.175 65.8222 117.491 65.8222C118.843 65.8222 120.408 64.8762 121.29 63.996L121.494 63.7928L121.756 63.9127C122.323 64.1707 122.659 64.6588 122.659 65.2174C122.659 65.6025 122.5 65.9992 122.211 66.3368C120.685 68.0552 118.309 70.3311 115.27 70.3311H115.268Z" fill="#E30016"/>
<path fill-rule="evenodd" clip-rule="evenodd" d="M127.774 69.9527C124.114 69.9527 121.153 67.7741 121.153 62.9933C121.153 57.0065 125.242 49.8514 131.086 49.8514C134.243 49.8514 135.8 51.0957 135.8 53.6215C135.8 55.8002 134.515 56.8098 133.074 56.8098C132.568 56.8098 131.944 56.6548 131.514 56.2653C131.944 55.332 132.138 54.284 132.138 53.7395C132.138 53.0016 131.671 52.6119 130.698 52.6119C128.515 52.6119 125.984 56.7718 125.984 62.3701C125.984 65.4437 127.618 66.5714 129.724 66.5714C132.528 66.5714 136.113 64.5858 137.787 62.3701C138.801 62.1771 139.19 62.9933 138.762 63.6928C136.073 67.619 131.554 69.9527 127.774 69.9527Z" fill="#E30016"/>
<path fill-rule="evenodd" clip-rule="evenodd" d="M131.064 50.1518C125.618 50.1518 121.549 56.9003 121.549 62.9349C121.549 67.0527 123.869 69.5104 127.754 69.5104C131.628 69.5104 135.904 67.0584 138.392 63.4075C138.502 63.2252 138.528 63.0126 138.446 62.8688C138.35 62.6993 138.149 62.6819 137.986 62.6924C136.131 65.0454 132.457 66.9379 129.702 66.9379C128.152 66.9379 125.55 66.3363 125.55 62.309C125.55 56.4675 128.257 52.1023 130.676 52.1023C132.347 52.1023 132.529 53.1806 132.529 53.6453C132.529 54.1919 132.361 55.1403 131.999 56.0446C132.332 56.2421 132.74 56.3175 133.05 56.3175C134.167 56.3175 135.361 55.5839 135.361 53.5269C135.361 51.2246 133.996 50.1518 131.064 50.1518ZM127.754 70.3311C123.416 70.3311 120.722 67.4973 120.722 62.9349C120.722 56.5139 125.145 49.3311 131.064 49.3311C134.464 49.3311 136.187 50.7428 136.187 53.5269C136.187 56.0216 134.613 57.1385 133.05 57.1385C132.35 57.1385 131.662 56.8934 131.212 56.4836L130.991 56.2816L131.116 56.0111C131.545 55.0732 131.702 54.0817 131.702 53.6453C131.702 53.3933 131.702 52.9243 130.676 52.9243C128.923 52.9243 126.378 56.5801 126.378 62.309C126.378 64.8354 127.495 66.1159 129.702 66.1159C132.282 66.1159 135.748 64.2977 137.43 62.0629L137.526 61.9365L137.683 61.9063C138.382 61.7704 138.902 62.0004 139.166 62.466C139.397 62.8721 139.368 63.3901 139.089 63.8498C136.442 67.7343 131.891 70.3311 127.754 70.3311Z" fill="#E30016"/>
<path fill-rule="evenodd" clip-rule="evenodd" d="M143.155 58.7615L143.391 58.6826C145.26 58.098 147.867 54.5476 148.802 50.3741C149.425 50.063 150.087 49.9459 150.671 49.9459C151.995 49.9459 152.696 50.8032 152.696 51.7787C152.696 54.1185 149.658 57.5518 147.244 59.1909C147.789 61.3716 148.879 65.936 151.682 65.936C152.463 65.936 153.319 65.2341 154.332 64.2969C154.76 64.4942 154.993 64.8431 154.993 65.2341C154.993 65.5066 154.876 65.8177 154.642 66.0912C153.241 67.8093 150.555 69.9527 148.918 69.9527C145.025 69.9527 144.014 63.7123 143.428 60.6696L142.728 60.8669L141.364 67.4985C140.976 69.2892 139.495 69.9527 138.093 69.9527C137.393 69.9527 136.731 69.759 136.264 69.4483L139.458 54.471C139.613 53.8074 139.417 53.4967 139.067 53.4967C138.872 53.4967 138.639 53.6519 138.288 53.963C137.784 53.6519 137.51 52.4422 138.288 51.8159C139.613 50.765 141.014 49.9459 142.65 49.9459C144.051 49.9459 144.829 50.5677 144.518 52.0897L143.155 58.7615Z" fill="#E30016"/>
<path fill-rule="evenodd" clip-rule="evenodd" d="M143.752 60.1527L143.914 60.9944C144.481 63.9711 145.538 69.5123 148.929 69.5123C150.332 69.5123 152.906 67.5639 154.339 65.8142C154.506 65.6201 154.598 65.4048 154.598 65.2177C154.598 65.0547 154.529 64.9112 154.399 64.7955C153.482 65.6248 152.583 66.3265 151.697 66.3265C148.614 66.3265 147.485 61.8225 146.878 59.4034L146.781 59.016L147.018 58.8553C149.516 57.1682 152.297 53.8576 152.297 51.8041C152.297 51.1494 151.875 50.3864 150.684 50.3864C150.305 50.3864 149.748 50.4404 149.171 50.6892C148.147 54.9793 145.444 58.4761 143.517 59.0763L142.608 59.3814L144.116 52.0328C144.232 51.4733 144.182 51.0593 143.968 50.8013C143.74 50.525 143.296 50.3864 142.65 50.3864C140.998 50.3864 139.587 51.3343 138.541 52.1613C138.226 52.4134 138.2 52.7789 138.212 52.9742C138.221 53.1407 138.267 53.2945 138.326 53.4135C138.863 53.0113 139.416 53.0355 139.715 53.4066C139.929 53.6727 139.976 54.068 139.856 54.5803L136.722 69.214C137.109 69.4061 137.592 69.5123 138.088 69.5123C138.812 69.5123 140.541 69.3064 140.959 67.3892L142.373 60.5392L143.752 60.1527ZM148.929 70.3311C144.866 70.3311 143.722 64.4011 143.108 61.1833L143.081 61.1901L141.766 67.557C141.321 69.6024 139.573 70.3311 138.085 70.3311C137.322 70.3311 136.57 70.1216 136.022 69.7575L135.791 69.6037L139.046 54.4034C139.121 54.0854 139.082 53.9409 139.064 53.9143C139.037 53.9281 138.921 53.9641 138.557 54.2867L138.326 54.4903L138.063 54.3293C137.686 54.0982 137.419 53.5872 137.384 53.0263C137.343 52.4262 137.578 51.8778 138.021 51.5241C139.173 50.6129 140.739 49.5676 142.649 49.5676C143.556 49.5676 144.214 49.8091 144.607 50.2844C144.985 50.7414 145.093 51.3842 144.927 52.1948L143.715 58.0991C145.389 57.1764 147.575 54.0113 148.407 50.3155L148.448 50.1261L148.623 50.0392C149.405 49.6495 150.174 49.5676 150.681 49.5676C152.358 49.5676 153.121 50.7273 153.121 51.8041C153.121 54.385 149.982 57.7547 147.718 59.3664C148.246 61.4652 149.319 65.5077 151.694 65.5077C152.353 65.5077 153.227 64.7551 154.064 63.9848L154.268 63.7977L154.521 63.9121C155.086 64.1701 155.423 64.6578 155.423 65.2177C155.423 65.6005 155.264 65.9981 154.973 66.3357C153.658 67.9432 150.819 70.3311 148.925 70.3311H148.929Z" fill="#E30016"/>
<path fill-rule="evenodd" clip-rule="evenodd" d="M164.77 63.5002L166.947 53.0778C166.286 52.8441 165.702 52.7677 165.119 52.7677C160.412 52.7677 158.74 58.9092 158.74 63.1485C158.74 65.0923 159.633 65.9468 160.84 65.9468C162.085 65.9468 163.72 64.9375 164.77 63.5002ZM169.477 63.3831C169.049 65.3653 169.554 66.2198 170.331 66.2198C171.032 66.2198 171.927 65.7537 172.51 64.3547C173.248 64.3547 173.678 64.7445 173.678 65.4023C173.678 68.1256 170.487 69.9527 168.309 69.9527C166.481 69.9527 164.652 69.0968 164.692 66.0267C163.057 68.3186 160.995 69.9527 158.777 69.9527C154.733 69.9527 153.916 65.9087 153.916 63.4215C153.916 56.6173 158.31 49.8514 163.719 49.8514C165.469 49.8514 166.752 50.2795 167.726 51.134C168.387 50.3555 169.398 50.0064 170.371 50.0064C171.07 50.0064 171.732 50.1995 172.199 50.5142L169.477 63.3831Z" fill="#E30016"/>
<path fill-rule="evenodd" clip-rule="evenodd" d="M165.121 53.0795C160.736 53.0795 159.145 59.0662 159.145 63.0906C159.145 63.9857 159.366 65.4892 160.836 65.4892C161.937 65.4892 163.416 64.5616 164.384 63.272L166.472 53.2581C166.036 53.135 165.607 53.0795 165.121 53.0795ZM160.836 66.3099C159.259 66.3099 158.319 65.1062 158.319 63.0906C158.319 59.3436 159.74 52.2588 165.121 52.2588C165.822 52.2588 166.448 52.3654 167.091 52.5941L167.431 52.7139L165.106 63.6839C163.979 65.2302 162.223 66.3099 160.836 66.3099ZM165.124 64.6626L165.106 65.9848C165.088 67.1934 165.378 68.1033 165.962 68.6907C166.502 69.234 167.293 69.5091 168.314 69.5091C170.291 69.5091 173.279 67.8516 173.279 65.3533C173.279 65.2151 173.279 64.8321 172.781 64.7346C172.214 65.8979 171.316 66.5837 170.341 66.5837C169.935 66.5837 169.588 66.4202 169.337 66.1124C168.877 65.5484 168.79 64.5826 169.079 63.2394L171.745 50.6101C171.358 50.4163 170.875 50.3084 170.379 50.3084C169.427 50.3084 168.577 50.6671 168.047 51.2929L167.775 51.6154L167.457 51.3357C166.538 50.5279 165.35 50.1518 163.717 50.1518C158.794 50.1518 154.311 56.4494 154.311 63.3634C154.311 64.8054 154.633 69.5091 158.769 69.5091C160.641 69.5091 162.625 68.1718 164.353 65.7423L165.124 64.6626ZM168.316 70.3311C167.084 70.3311 166.066 69.9632 165.374 69.2679C164.837 68.7279 164.497 68.0023 164.354 67.1003C163.012 68.7302 161.1 70.3311 158.77 70.3311C153.867 70.3311 153.486 64.9982 153.486 63.3634C153.486 55.8887 158.267 49.3311 163.719 49.3311C165.369 49.3311 166.676 49.7049 167.698 50.4709C168.381 49.8418 169.337 49.4864 170.381 49.4864C171.145 49.4864 171.896 49.6977 172.445 50.0659L172.674 50.2202L169.89 63.4102C169.572 64.8913 169.85 65.4323 169.98 65.5958C170.074 65.7097 170.188 65.763 170.343 65.763C171.047 65.763 171.721 65.1582 172.143 64.1449L172.248 63.8906H172.526C173.487 63.8906 174.108 64.4651 174.108 65.3533C174.108 68.3912 170.677 70.3311 168.316 70.3311Z" fill="#E30016"/>
<path fill-rule="evenodd" clip-rule="evenodd" d="M182.882 59.5036H184.52L185.492 55.0202C185.961 52.8737 185.18 52.0551 184.207 52.0551C182.142 52.0551 181.013 54.4742 180.974 56.5418C180.934 58.1003 181.558 59.5036 182.882 59.5036ZM188.414 63.3641C187.985 65.3515 188.491 66.2084 189.27 66.2084C189.973 66.2084 190.868 65.7423 191.452 64.3391C192.193 64.3391 192.621 64.7289 192.621 65.3899C192.621 68.1196 189.427 69.9519 187.245 69.9519C185.298 69.9519 182.571 68.8596 183.623 63.8312L184.09 61.6465H182.259C180.817 64.7289 177.974 69.8753 174.936 69.9519C173.339 69.9936 172.171 68.4315 172.171 65.5868C172.171 63.7128 173.456 63.1668 174.898 63.1668C175.365 63.1668 175.988 63.3641 176.494 63.7128C175.988 64.8436 175.832 66.0149 175.832 66.7929C177.235 65.9767 178.597 64.8854 180.194 61.4144C177.701 60.7514 176.494 58.7636 176.494 56.5418C176.494 51.7826 180.935 49.7568 184.596 49.7568C188.141 49.7568 190.867 51.6643 189.893 56.3065L188.414 63.3641Z" fill="#E30016"/>
<path fill-rule="evenodd" clip-rule="evenodd" d="M184.226 52.4468C182.335 52.4468 181.44 54.8328 181.41 56.5267C181.383 57.4678 181.624 58.2836 182.048 58.7146C182.283 58.9534 182.563 59.0703 182.904 59.0703H184.205L185.109 54.9139C185.325 53.9197 185.267 53.155 184.946 52.7599C184.777 52.5523 184.535 52.4468 184.226 52.4468ZM184.873 59.8895H182.904C182.344 59.8895 181.844 59.681 181.455 59.2871C180.871 58.6926 180.552 57.6799 180.583 56.5096C180.628 54.1108 182.002 51.6277 184.226 51.6277C184.781 51.6277 185.265 51.8467 185.589 52.2442C186.084 52.8525 186.195 53.8097 185.916 55.0864L184.873 59.8895ZM174.922 63.5499C173.365 63.5499 172.609 64.2072 172.609 65.5582C172.609 66.8234 172.85 67.8653 173.307 68.5698C173.707 69.1861 174.256 69.5119 174.898 69.5119V69.9208L174.948 69.5105C177.753 69.4399 180.51 64.4296 181.905 61.4481L182.016 61.2116H184.621L184.047 63.8895C183.62 65.9336 183.799 67.4537 184.58 68.4063C185.369 69.367 186.6 69.5105 187.264 69.5105C189.238 69.5105 192.224 67.8561 192.224 65.3611C192.224 65.2231 192.224 64.8408 191.727 64.7436C190.927 66.403 189.766 66.5896 189.288 66.5896C188.883 66.5896 188.535 66.4273 188.284 66.1188C187.825 65.5569 187.739 64.5918 188.029 63.2523L189.506 56.2025C189.908 54.2859 189.678 52.7852 188.823 51.7436C187.743 50.4272 185.939 50.1502 184.617 50.1502C180.915 50.1502 176.931 52.1434 176.931 56.5198C176.931 58.7563 178.198 60.4295 180.322 60.9938L180.795 61.1203L180.592 61.5604C178.894 65.2464 177.424 66.3265 176.065 67.1167L175.441 67.478V66.7633C175.441 66.2975 175.5 65.1328 176 63.8537C175.642 63.6672 175.238 63.5499 174.922 63.5499ZM174.899 70.3311C173.976 70.3311 173.165 69.863 172.613 69.0136C172.071 68.177 171.783 66.981 171.783 65.5582C171.783 63.7355 172.899 62.7307 174.923 62.7307C175.499 62.7307 176.202 62.9682 176.755 63.3496L177.035 63.5443L176.897 63.8537C176.542 64.645 176.387 65.4215 176.319 65.9881C177.326 65.2927 178.41 64.193 179.642 61.6415C177.449 60.8651 176.106 58.9429 176.106 56.5198C176.106 51.8004 180.388 49.3311 184.618 49.3311C186.772 49.3311 188.448 49.9857 189.465 51.2256C190.485 52.4689 190.771 54.1989 190.317 56.3694L188.838 63.4215C188.519 64.8999 188.794 65.4399 188.927 65.6035C189.021 65.7168 189.135 65.7704 189.29 65.7704C189.628 65.7704 190.481 65.6127 191.088 64.155L191.195 63.9024H191.471C192.431 63.9024 193.052 64.4746 193.052 65.3611C193.052 68.3948 189.624 70.3298 187.266 70.3298C186.454 70.3298 184.945 70.1468 183.94 68.9233C182.995 67.7714 182.759 66.0206 183.24 63.7204L183.603 62.0308H182.544C180.739 65.8317 177.995 70.2535 174.972 70.3298L174.899 70.3311Z" fill="#E30016"/>
<path fill-rule="evenodd" clip-rule="evenodd" d="M244.696 63.7834H247.438C248.023 63.7834 248.477 63.7341 248.808 63.6385C249.137 63.5429 249.387 63.391 249.559 63.1776C249.729 62.9662 249.815 62.7363 249.815 62.4888C249.815 62.1272 249.651 61.8272 249.318 61.5936C248.989 61.3604 248.464 61.2413 247.746 61.2413H244.696V63.7834ZM243.424 68.0608V60.3986H247.695C248.555 60.3986 249.209 60.4688 249.655 60.6064C250.103 60.744 250.46 60.9878 250.726 61.3346C250.994 61.6826 251.13 62.0677 251.13 62.4888C251.13 63.0327 250.906 63.4903 250.465 63.8625C250.02 64.235 249.337 64.4719 248.412 64.5721C248.75 64.7018 249.005 64.8302 249.181 64.9549C249.554 65.2268 249.906 65.5643 250.239 65.9762L251.906 68.0608H250.313L249.037 66.4665C248.666 66.0053 248.36 65.653 248.119 65.4078C247.878 65.165 247.662 64.9946 247.467 64.8967C247.278 64.8011 247.083 64.7309 246.888 64.6959C246.74 64.6691 246.505 64.6575 246.176 64.6575H244.696V68.0608H243.424Z" fill="#E30016"/>
<path fill-rule="evenodd" clip-rule="evenodd" d="M239.963 64.2315C239.963 60.2212 243.264 56.9603 247.319 56.9603C251.379 56.9603 254.68 60.2212 254.68 64.2315C254.68 68.2385 251.379 71.5004 247.319 71.5004C243.264 71.5004 239.963 68.2385 239.963 64.2315ZM238.99 64.2315C238.99 68.7696 242.727 72.4595 247.319 72.4595C251.914 72.4595 255.652 68.7696 255.652 64.2315C255.652 59.6925 251.914 56 247.319 56C242.727 56 238.99 59.6925 238.99 64.2315Z" fill="#E30016"/>
<path fill-rule="evenodd" clip-rule="evenodd" d="M83.2114 27.9738C82.9923 27.5542 84.3142 26.526 84.8148 25.8153C86.4334 28.1233 88.4598 30.2827 89.9701 32.4365C86.4596 31.4337 84.5947 30.6201 83.2114 27.9738ZM94.8413 13.5458C92.5129 8.55438 88.1015 5.16509 82.712 3.03459C76.914 0.741743 70.9174 -0.127661 64.8913 0.014927C63.5664 0.0451891 60.6512 0.305723 59.8044 0.376705C59.7402 0.452939 55.1932 1.35586 55.1932 1.35586C53.6636 1.80472 52.0895 2.32287 50.5168 2.90252C45.6939 4.67718 40.8808 7.01403 37.3703 9.61043C13.1236 27.5473 5.38548 48.2704 3.98334 63.8126C3.59767 68.0851 3.40111 72.49 3.62425 77.0153C3.70956 78.6565 3.84415 80.305 4.02105 81.9636C4.07582 82.4726 4.48974 83.0903 4.99528 83.5714C5.55021 84.101 8.15941 83.8822 8.98911 83.7163C9.95664 83.5228 11.8865 81.8549 11.8053 81.1061C11.3518 76.9203 11.0734 72.3461 11.0231 67.3409C10.7797 43.2748 24.9816 22.7389 41.739 12.106C49.3814 7.25617 57.8366 5.07246 60.4222 4.72119C64.8971 4.11364 69.1058 3.96053 72.6163 4.52171C79.275 5.58565 85.4657 7.17041 90.078 11.7282C92.6824 14.3016 94.6845 17.2213 94.0192 20.9829C93.5985 23.3638 91.6894 24.9623 89.0073 24.9331C87.3429 24.9137 85.6916 24.4813 84.2019 24.2598C83.7296 25.1687 81.1494 27.3882 80.8679 27.844C80.8679 27.844 84.3679 33.1505 91.5783 33.7751C91.6591 32.0005 91.6555 30.007 91.88 28.0293C91.9922 27.037 92.2261 25.8547 92.9103 25.1349C96.3203 21.5461 96.7427 17.6225 94.8413 13.5458Z" fill="#E30016"/>
<path fill-rule="evenodd" clip-rule="evenodd" d="M83.7815 28.9459C77.9579 30.6498 73.2038 32.371 69.3037 33.9104C67.0374 34.8034 65.0816 35.7001 63.3389 36.4435C61.6011 37.2043 60.1339 37.9701 58.8484 38.5859C56.268 39.8153 54.584 40.8316 53.391 41.5043C51.0232 42.8754 50.8031 43.1351 50.8031 43.1351C50.8031 43.1351 51.1208 43.136 53.6429 42.1527C54.9078 41.6782 56.7018 40.872 59.3383 39.9037C60.6557 39.4129 62.1466 38.7911 63.9054 38.1591C65.6751 37.5489 67.6555 36.8009 69.9299 36.0387C74.3405 34.5901 79.7941 32.9001 86.5806 31.2646C85.4117 30.7053 84.5214 30.0073 83.7815 28.9459Z" fill="#E30016"/>
</svg>
