<svg width="619" height="310" viewBox="0 0 619 310" fill="none" xmlns="http://www.w3.org/2000/svg">
<path d="M398.472 241.753L394.329 233.929L380.062 236.231L376.841 245.435L369.477 250.498L355.67 263.384L353.369 270.748V285.015C352.264 293.852 346.158 292.379 343.243 290.538L334.959 273.97L324.834 250.498V238.992H318.851H312.408V231.628H305.504L297.68 220.583L292.618 224.725L279.731 220.583H268.225L261.322 215.06L245.214 213.219L237.85 204.474L232.787 200.332L229.566 204.474L235.088 210.918L237.85 220.583H245.214L250.276 227.026L258.56 220.583L263.163 224.725L272.828 231.628V238.992L265.464 250.498L255.799 255.1L245.214 261.083L235.088 266.606L227.264 273.97H217.6L212.997 266.606V258.322L207.935 250.498L199.19 241.753V233.929L185.383 217.821L181.241 206.776L176.178 210.918L170.656 195.73H178.94L181.241 184.684V174.559L173.417 177.321L163.292 174.559H152.246L146.263 162.593V158.451H140.74L135.218 162.593L137.979 169.036L135.218 174.559L128.774 171.337L131.076 166.735L123.252 162.593L120.03 150.627L111.746 145.564L99.7796 137.28C94.625 132.494 96.0977 137.74 97.4784 140.962L103.461 147.866C108.217 151.394 116.992 158.451 114.047 158.451C111.101 158.451 111.285 165.508 111.746 169.036L103.461 158.451L90.5749 147.866L84.1316 143.263L72.6258 147.866H66.1825L62.0404 155.229L52.3755 162.593V171.337L40.8696 174.559H30.2842L22 169.036L25.2216 147.866H44.0912L48.2333 143.263V133.598L40.8696 125.314L52.3755 123.013L62.0404 117.49L74.9269 107.365H79.9895L84.1316 103.223V94.4784L89.1942 90.3363V96.3193L95.1772 94.4784V88.0351L90.5749 84.8135L84.1316 88.0351L77.2281 84.8135V72.8474L97.4784 57.6597L111.746 47.0743L123.252 40.631H143.042L155.008 47.0743L173.417 49.3755C179.308 54.1619 175.872 56.8926 173.417 57.6597H166.053L155.008 53.9778L166.053 63.1825H173.417L178.94 57.6597L185.383 53.9778L188.145 49.3755L195.969 53.9778L207.935 49.3755H223.583L239.691 47.0743H249.816L244.293 40.631L246.594 36.0287H256.259L262.702 40.631L272.367 36.0287L279.731 31.4263H289.856V26.3637L305.044 22.6819H314.709L319.772 19H328.516L337.26 22.6819H350.147L353.369 26.3637L350.147 31.4263L367.176 33.7275H370.857H379.142H386.966H401.693L418.262 40.631H427.927H435.751L438.052 33.7275L453.239 36.0287L471.189 40.631H486.837H497.422L509.388 47.0743H531.939L536.082 44.3129H547.127L564.156 47.0743L579.344 51.6766L589.008 55.3585H599.594L606.037 62.262H592.69L585.787 57.6597L579.344 62.262L589.008 66.8643V71.9269L579.344 78.8304H569.679C560.106 81.4077 562.008 85.7339 564.156 87.5749L571.98 90.7965L574.281 102.763V115.189H569.679L557.713 102.763L549.889 90.7965L553.57 75.6088L549.889 71.9269L544.366 75.6088H538.383H531.939V83.4328H520.894H504.325L497.422 87.5749L492.82 98.6205L500.183 102.763H507.547L517.672 106.905H523.195L531.939 115.189L538.383 121.632V126.695L541.144 135.899L536.082 133.138L531.939 126.695L525.496 117.49H523.195L525.496 126.695V135.899L520.894 146.945H513.53L509.388 150.627L507.547 156.15V160.292L509.388 164.894L517.672 170.877L520.894 177.321L517.672 182.383H509.388L507.547 174.099L497.422 167.195L492.82 160.292C486.929 163.606 484.842 161.673 484.535 160.292L479.013 156.15L471.189 164.894L479.013 170.877H484.535L492.82 174.099L482.234 181.002L492.82 190.667L497.422 197.571L500.183 207.236L497.422 219.662L492.82 228.867L482.234 233.929L471.189 236.231L465.206 241.753L459.222 236.231L453.239 240.373L450.478 247.736L459.222 258.322L465.206 268.447V279.953L459.222 285.015L455.08 290.538H450.478V285.015L442.654 279.953L433.449 273.97H430.228V279.953L425.625 273.97L421.943 263.384L418.262 258.322L413.659 261.083H409.057V255.1L405.835 247.736L398.472 241.753Z" stroke="#D8B067" stroke-width="3" stroke-dasharray="2 2"/>
<path d="M528.715 193.889L526.414 187.446L527.795 183.304L531.937 179.161H537.46L543.903 175.019L550.346 167.656L547.585 161.673L542.522 152.008V146.025V139.121L548.505 143.263L556.79 146.025L554.488 150.627H548.505V157.53H552.647L556.79 163.974V169.036L558.63 175.019V182.383H550.346L545.284 187.446L539.761 186.525H535.619L531.937 184.684L529.636 186.525L533.318 190.667L531.937 196.19L528.715 193.889Z" stroke="#D8B067" stroke-width="3" stroke-dasharray="2 2"/>
<path d="M239.692 176.86L228.646 169.496V158.451L217.141 146.945V140.501L228.646 129.916L237.391 136.82L233.709 140.501H228.646V146.945L237.391 151.087H243.374L246.596 156.149L239.692 158.451L243.374 164.894L246.596 171.797L239.692 176.86Z" stroke="#D8B067" stroke-width="3" stroke-dasharray="2 2"/>
<path d="M168.357 153.849L157.771 157.53L151.328 148.326L154.09 140.041L163.294 132.678L168.357 140.041H175.721V132.678H184.465V140.041L192.289 145.104L199.653 153.849L192.289 157.53L180.783 153.849H168.357Z" stroke="#D8B067" stroke-width="3" stroke-dasharray="2 2"/>
<path d="M50.9973 97.2396L58.8213 108.745L62.043 111.507L58.8213 115.649L47.7757 118.871H39.0312L41.7927 111.507V108.745L47.7757 102.302L41.7927 97.2396V93.0975V88.4951H47.7757L50.9973 97.2396Z" stroke="#D8B067" stroke-width="3" stroke-dasharray="2 2"/>
<path d="M25.6797 103.683L33.0434 100.462C38.9344 97.8843 37.6458 101.536 36.2651 103.683L33.0434 110.587L25.6797 114.269V103.683Z" stroke="#D8B067" stroke-width="3" stroke-dasharray="2 2"/>
<path d="M105.763 97.6998L109.905 89.8758L112.667 84.353L114.968 80.2109L109.905 74.6881V69.6255L119.57 66.4039L125.553 57.1992L131.997 62.2618L123.252 69.6255L125.553 77.9098H141.201L147.184 80.2109L141.201 84.353H131.997V89.8758H125.553V97.6998L119.57 101.842H114.968L105.763 105.064L101.161 101.842H91.4961L97.4791 97.6998H105.763Z" stroke="#D8B067" stroke-width="3" stroke-dasharray="2 2"/>
<path d="M325.893 94.4517C325.277 96.2573 322.723 96.2573 322.107 94.4517L313.644 69.6458C313.202 68.3482 314.166 67 315.537 67L332.463 67C333.834 67 334.798 68.3482 334.356 69.6458L325.893 94.4517Z" fill="#D8B067"/>
<g filter="url(#filter0_d_238_535)">
<rect x="283" y="43" width="81" height="30" rx="15" fill="#D8B067" shape-rendering="crispEdges"/>
<path d="M297.846 51.12H300.402C301.734 51.12 302.742 51.378 303.426 51.894C304.122 52.398 304.47 53.118 304.47 54.054C304.47 54.558 304.35 55.008 304.11 55.404C303.87 55.8 303.552 56.136 303.156 56.412C302.772 56.676 302.334 56.88 301.842 57.024C301.362 57.168 300.882 57.24 300.402 57.24H299.718V61.83C299.718 61.926 299.73 62.034 299.754 62.154C299.778 62.262 299.814 62.364 299.862 62.46C299.922 62.556 299.982 62.64 300.042 62.712C300.114 62.784 300.198 62.82 300.294 62.82H300.384V63H297.846V62.82H297.936C298.02 62.82 298.098 62.784 298.17 62.712C298.242 62.64 298.302 62.556 298.35 62.46C298.398 62.364 298.434 62.262 298.458 62.154C298.482 62.034 298.494 61.926 298.494 61.83V52.236C298.494 52.068 298.446 51.876 298.35 51.66C298.254 51.444 298.116 51.324 297.936 51.3H297.846V51.12ZM299.718 51.75V56.61H300.258C300.738 56.61 301.164 56.544 301.536 56.412C301.92 56.28 302.238 56.106 302.49 55.89C302.742 55.674 302.934 55.428 303.066 55.152C303.198 54.876 303.264 54.594 303.264 54.306C303.264 53.958 303.204 53.634 303.084 53.334C302.976 53.022 302.79 52.752 302.526 52.524C302.274 52.284 301.938 52.098 301.518 51.966C301.098 51.822 300.582 51.75 299.97 51.75H299.718ZM308.643 63.126C308.043 63.126 307.503 63.03 307.023 62.838C306.543 62.634 306.129 62.364 305.781 62.028C305.445 61.68 305.181 61.272 304.989 60.804C304.809 60.336 304.719 59.826 304.719 59.274C304.719 58.686 304.821 58.152 305.025 57.672C305.229 57.18 305.511 56.76 305.871 56.412C306.231 56.064 306.657 55.794 307.149 55.602C307.641 55.41 308.175 55.314 308.751 55.314C309.327 55.314 309.855 55.41 310.335 55.602C310.815 55.782 311.229 56.04 311.577 56.376C311.925 56.712 312.195 57.114 312.387 57.582C312.579 58.038 312.675 58.542 312.675 59.094C312.675 59.61 312.585 60.114 312.405 60.606C312.237 61.086 311.979 61.512 311.631 61.884C311.295 62.256 310.875 62.556 310.371 62.784C309.879 63.012 309.303 63.126 308.643 63.126ZM308.535 55.908C308.103 55.932 307.719 56.04 307.383 56.232C307.059 56.412 306.783 56.652 306.555 56.952C306.339 57.24 306.171 57.57 306.051 57.942C305.943 58.314 305.889 58.692 305.889 59.076C305.889 59.52 305.955 59.952 306.087 60.372C306.231 60.78 306.429 61.146 306.681 61.47C306.945 61.794 307.257 62.052 307.617 62.244C307.977 62.436 308.379 62.532 308.823 62.532C309.267 62.532 309.657 62.436 309.993 62.244C310.341 62.052 310.629 61.806 310.857 61.506C311.085 61.194 311.253 60.846 311.361 60.462C311.481 60.078 311.541 59.694 311.541 59.31C311.541 58.914 311.481 58.518 311.361 58.122C311.241 57.714 311.055 57.348 310.803 57.024C310.551 56.688 310.233 56.418 309.849 56.214C309.477 56.01 309.039 55.908 308.535 55.908ZM321.827 62.352C321.731 62.352 321.641 62.376 321.557 62.424C321.473 62.46 321.377 62.508 321.269 62.568C321.065 62.688 320.795 62.814 320.459 62.946C320.123 63.066 319.703 63.126 319.199 63.126C318.587 63.126 318.023 63.03 317.507 62.838C317.003 62.634 316.565 62.358 316.193 62.01C315.821 61.65 315.533 61.236 315.329 60.768C315.125 60.288 315.023 59.772 315.023 59.22C315.023 58.704 315.113 58.212 315.293 57.744C315.485 57.276 315.755 56.862 316.103 56.502C316.451 56.142 316.877 55.854 317.381 55.638C317.897 55.422 318.479 55.314 319.127 55.314C319.571 55.314 319.931 55.368 320.207 55.476C320.483 55.572 320.717 55.668 320.909 55.764C321.017 55.824 321.119 55.872 321.215 55.908C321.323 55.944 321.431 55.962 321.539 55.962V57.33H321.359C321.299 57.102 321.191 56.904 321.035 56.736C320.879 56.556 320.699 56.406 320.495 56.286C320.291 56.166 320.069 56.076 319.829 56.016C319.589 55.956 319.355 55.926 319.127 55.926C318.635 55.926 318.203 56.016 317.831 56.196C317.459 56.364 317.153 56.592 316.913 56.88C316.673 57.156 316.493 57.474 316.373 57.834C316.253 58.194 316.193 58.566 316.193 58.95C316.193 59.394 316.259 59.832 316.391 60.264C316.535 60.684 316.733 61.062 316.985 61.398C317.249 61.734 317.567 62.004 317.939 62.208C318.323 62.412 318.755 62.514 319.235 62.514C319.571 62.514 319.883 62.466 320.171 62.37C320.459 62.274 320.705 62.148 320.909 61.992C321.125 61.836 321.293 61.668 321.413 61.488C321.545 61.296 321.623 61.116 321.647 60.948H321.827V62.352ZM330.18 62.352C330.084 62.352 329.994 62.376 329.91 62.424C329.826 62.46 329.73 62.508 329.622 62.568C329.418 62.688 329.148 62.814 328.812 62.946C328.476 63.066 328.056 63.126 327.552 63.126C326.94 63.126 326.376 63.03 325.86 62.838C325.356 62.634 324.918 62.358 324.546 62.01C324.174 61.65 323.886 61.236 323.682 60.768C323.478 60.288 323.376 59.772 323.376 59.22C323.376 58.704 323.466 58.212 323.646 57.744C323.838 57.276 324.108 56.862 324.456 56.502C324.804 56.142 325.23 55.854 325.734 55.638C326.25 55.422 326.832 55.314 327.48 55.314C327.924 55.314 328.284 55.368 328.56 55.476C328.836 55.572 329.07 55.668 329.262 55.764C329.37 55.824 329.472 55.872 329.568 55.908C329.676 55.944 329.784 55.962 329.892 55.962V57.33H329.712C329.652 57.102 329.544 56.904 329.388 56.736C329.232 56.556 329.052 56.406 328.848 56.286C328.644 56.166 328.422 56.076 328.182 56.016C327.942 55.956 327.708 55.926 327.48 55.926C326.988 55.926 326.556 56.016 326.184 56.196C325.812 56.364 325.506 56.592 325.266 56.88C325.026 57.156 324.846 57.474 324.726 57.834C324.606 58.194 324.546 58.566 324.546 58.95C324.546 59.394 324.612 59.832 324.744 60.264C324.888 60.684 325.086 61.062 325.338 61.398C325.602 61.734 325.92 62.004 326.292 62.208C326.676 62.412 327.108 62.514 327.588 62.514C327.924 62.514 328.236 62.466 328.524 62.37C328.812 62.274 329.058 62.148 329.262 61.992C329.478 61.836 329.646 61.668 329.766 61.488C329.898 61.296 329.976 61.116 330 60.948H330.18V62.352ZM339.496 61.83C339.496 61.926 339.508 62.034 339.532 62.154C339.568 62.262 339.61 62.364 339.658 62.46C339.706 62.556 339.766 62.64 339.838 62.712C339.922 62.784 340 62.82 340.072 62.82V63H337.768V62.82C337.852 62.82 337.93 62.79 338.002 62.73C338.074 62.658 338.134 62.574 338.182 62.478C338.23 62.37 338.266 62.262 338.29 62.154C338.314 62.034 338.326 61.926 338.326 61.83V57.51L334.042 61.704V61.83C334.042 61.926 334.054 62.034 334.078 62.154C334.102 62.262 334.138 62.364 334.186 62.46C334.234 62.556 334.288 62.64 334.348 62.712C334.42 62.784 334.498 62.82 334.582 62.82V63H332.296V62.82C332.38 62.82 332.458 62.79 332.53 62.73C332.602 62.658 332.662 62.574 332.71 62.478C332.758 62.37 332.794 62.262 332.818 62.154C332.842 62.034 332.854 61.926 332.854 61.83V56.556C332.854 56.472 332.842 56.376 332.818 56.268C332.794 56.16 332.758 56.058 332.71 55.962C332.662 55.866 332.602 55.788 332.53 55.728C332.458 55.656 332.38 55.62 332.296 55.62V55.44H334.582V55.62C334.486 55.62 334.402 55.656 334.33 55.728C334.27 55.788 334.216 55.866 334.168 55.962C334.132 56.058 334.102 56.16 334.078 56.268C334.054 56.376 334.042 56.472 334.042 56.556V60.858L338.326 56.664V56.556C338.326 56.472 338.314 56.376 338.29 56.268C338.266 56.16 338.23 56.058 338.182 55.962C338.134 55.866 338.074 55.788 338.002 55.728C337.93 55.656 337.852 55.62 337.768 55.62V55.44H340.072V55.62C339.976 55.62 339.886 55.656 339.802 55.728C339.73 55.788 339.67 55.866 339.622 55.962C339.586 56.058 339.556 56.16 339.532 56.268C339.508 56.376 339.496 56.472 339.496 56.556V61.83ZM348.448 61.83C348.448 61.926 348.46 62.034 348.484 62.154C348.508 62.262 348.544 62.37 348.592 62.478C348.652 62.574 348.712 62.658 348.772 62.73C348.844 62.79 348.928 62.82 349.024 62.82V63H346.684V62.82C346.768 62.82 346.846 62.784 346.918 62.712C346.99 62.64 347.05 62.556 347.098 62.46C347.158 62.364 347.2 62.262 347.224 62.154C347.248 62.034 347.26 61.926 347.26 61.83V59.31C347.128 59.334 346.978 59.406 346.81 59.526C346.642 59.634 346.468 59.778 346.288 59.958C346.108 60.126 345.934 60.312 345.766 60.516C345.598 60.72 345.442 60.924 345.298 61.128C345.178 61.296 345.076 61.434 344.992 61.542C344.908 61.65 344.836 61.752 344.776 61.848C344.656 62.004 344.536 62.154 344.416 62.298C344.296 62.43 344.158 62.55 344.002 62.658C343.858 62.766 343.684 62.85 343.48 62.91C343.276 62.97 343.036 63 342.76 63H342.094V62.82C342.238 62.82 342.382 62.778 342.526 62.694C342.682 62.61 342.832 62.508 342.976 62.388C343.12 62.256 343.252 62.118 343.372 61.974C343.504 61.818 343.618 61.674 343.714 61.542L344.272 60.768C344.476 60.492 344.686 60.222 344.902 59.958C345.118 59.682 345.364 59.466 345.64 59.31C345.208 59.298 344.824 59.238 344.488 59.13C344.152 59.022 343.87 58.878 343.642 58.698C343.414 58.518 343.24 58.314 343.12 58.086C343.012 57.846 342.958 57.594 342.958 57.33C342.958 57.078 343.012 56.838 343.12 56.61C343.24 56.382 343.426 56.184 343.678 56.016C343.93 55.836 344.248 55.698 344.632 55.602C345.028 55.494 345.502 55.44 346.054 55.44H349.024V55.62C348.928 55.62 348.844 55.656 348.772 55.728C348.712 55.788 348.652 55.866 348.592 55.962C348.544 56.058 348.508 56.16 348.484 56.268C348.46 56.376 348.448 56.472 348.448 56.556V61.83ZM344.128 57.222C344.128 57.402 344.182 57.582 344.29 57.762C344.41 57.942 344.566 58.104 344.758 58.248C344.962 58.392 345.19 58.512 345.442 58.608C345.694 58.692 345.964 58.734 346.252 58.734H347.26V56.016H346.09C345.37 56.016 344.86 56.13 344.56 56.358C344.272 56.586 344.128 56.874 344.128 57.222Z" fill="#0C0500"/>
</g>
<path d="M201.959 145.473C201.521 147.603 198.479 147.603 198.041 145.473L189.236 102.653C188.981 101.412 189.928 100.25 191.195 100.25L208.805 100.25C210.072 100.25 211.019 101.412 210.764 102.653L201.959 145.473Z" fill="#D8B067"/>
<g filter="url(#filter1_d_238_535)">
<rect x="152" y="76" width="95" height="30" rx="15" fill="#D8B067" shape-rendering="crispEdges"/>
<path d="M173.944 95.82H174.034C174.322 95.82 174.466 95.688 174.466 95.424C174.466 95.328 174.448 95.226 174.412 95.118L172.792 90.744H169.642L168.076 95.046C168.04 95.142 168.022 95.232 168.022 95.316C168.022 95.472 168.064 95.598 168.148 95.694C168.232 95.778 168.322 95.82 168.418 95.82H168.508V96H166.51V95.82H166.6C166.756 95.82 166.906 95.73 167.05 95.55C167.206 95.358 167.332 95.136 167.428 94.884L171.55 83.904L175.582 94.776C175.666 95.016 175.78 95.25 175.924 95.478C176.08 95.706 176.278 95.82 176.518 95.82H176.608V96H173.944V95.82ZM169.822 90.132H172.594L171.208 86.37L169.822 90.132ZM182.473 88.314C183.073 88.314 183.613 88.416 184.093 88.62C184.585 88.812 184.999 89.082 185.335 89.43C185.683 89.766 185.947 90.168 186.127 90.636C186.307 91.104 186.397 91.614 186.397 92.166C186.397 92.754 186.295 93.294 186.091 93.786C185.887 94.266 185.605 94.68 185.245 95.028C184.885 95.376 184.459 95.646 183.967 95.838C183.475 96.03 182.941 96.126 182.365 96.126C181.753 96.126 181.207 96.012 180.727 95.784C180.247 95.544 179.839 95.22 179.503 94.812C179.167 94.404 178.909 93.924 178.729 93.372C178.549 92.808 178.459 92.202 178.459 91.554C178.459 91.182 178.477 90.84 178.513 90.528C178.561 90.216 178.627 89.916 178.711 89.628C178.807 89.328 178.921 89.04 179.053 88.764C179.185 88.488 179.341 88.2 179.521 87.9C180.025 87.108 180.655 86.484 181.411 86.028C182.179 85.572 182.959 85.344 183.751 85.344H186.037L185.335 86.496H183.463C183.079 86.496 182.695 86.568 182.311 86.712C181.927 86.844 181.561 87.048 181.213 87.324C180.877 87.588 180.577 87.912 180.313 88.296C180.049 88.68 179.839 89.118 179.683 89.61C180.007 89.214 180.379 88.902 180.799 88.674C181.231 88.434 181.789 88.314 182.473 88.314ZM182.581 95.514C183.025 95.49 183.415 95.388 183.751 95.208C184.087 95.016 184.369 94.776 184.597 94.488C184.825 94.188 184.993 93.858 185.101 93.498C185.221 93.126 185.281 92.748 185.281 92.364C185.281 91.92 185.209 91.494 185.065 91.086C184.921 90.666 184.717 90.3 184.453 89.988C184.189 89.676 183.871 89.424 183.499 89.232C183.139 89.04 182.737 88.944 182.293 88.944C181.861 88.944 181.477 89.04 181.141 89.232C180.805 89.412 180.523 89.652 180.295 89.952C180.067 90.252 179.893 90.594 179.773 90.978C179.665 91.362 179.611 91.746 179.611 92.13C179.611 92.514 179.677 92.91 179.809 93.318C179.953 93.714 180.151 94.074 180.403 94.398C180.667 94.722 180.979 94.992 181.339 95.208C181.711 95.412 182.125 95.514 182.581 95.514ZM193.533 95.82C193.629 95.82 193.707 95.796 193.767 95.748C193.839 95.7 193.875 95.64 193.875 95.568C193.875 95.484 193.803 95.352 193.659 95.172C193.347 94.764 193.041 94.35 192.741 93.93C192.453 93.51 192.159 93.096 191.859 92.688L189.987 95.226C189.951 95.274 189.909 95.34 189.861 95.424C189.813 95.508 189.789 95.58 189.789 95.64C189.789 95.76 189.855 95.82 189.987 95.82V96H188.295V95.82C188.463 95.82 188.643 95.754 188.835 95.622C189.027 95.478 189.189 95.31 189.321 95.118L191.499 92.166L189.483 89.43C189.423 89.358 189.351 89.274 189.267 89.178C189.195 89.082 189.111 88.998 189.015 88.926C188.919 88.842 188.823 88.77 188.727 88.71C188.631 88.65 188.541 88.62 188.457 88.62V88.44H191.049V88.62C190.977 88.62 190.899 88.644 190.815 88.692C190.743 88.74 190.707 88.83 190.707 88.962C190.707 89.034 190.743 89.118 190.815 89.214L192.273 91.23L193.659 89.394C193.755 89.274 193.815 89.178 193.839 89.106C193.863 89.034 193.875 88.968 193.875 88.908C193.875 88.836 193.851 88.77 193.803 88.71C193.767 88.65 193.707 88.62 193.623 88.62V88.44H195.351V88.62C195.159 88.62 194.973 88.716 194.793 88.908C194.625 89.1 194.481 89.28 194.361 89.448L192.615 91.752L195.027 95.01C195.183 95.226 195.357 95.418 195.549 95.586C195.741 95.742 195.927 95.82 196.107 95.82V96H193.533V95.82ZM202.944 96V95.082L202.854 95.172C202.554 95.472 202.206 95.706 201.81 95.874C201.426 96.042 200.958 96.126 200.406 96.126C199.986 96.126 199.626 96.078 199.326 95.982C199.026 95.886 198.78 95.754 198.588 95.586C198.396 95.406 198.252 95.202 198.156 94.974C198.072 94.746 198.03 94.506 198.03 94.254C198.03 93.846 198.138 93.486 198.354 93.174C198.582 92.862 198.906 92.586 199.326 92.346C199.746 92.106 200.256 91.89 200.856 91.698C201.468 91.494 202.164 91.296 202.944 91.104C202.92 90.636 202.824 90.258 202.656 89.97C202.488 89.682 202.29 89.46 202.062 89.304C201.834 89.136 201.594 89.028 201.342 88.98C201.09 88.92 200.874 88.89 200.694 88.89C200.382 88.89 200.106 88.938 199.866 89.034C199.626 89.118 199.416 89.238 199.236 89.394C199.056 89.538 198.906 89.706 198.786 89.898C198.678 90.09 198.594 90.282 198.534 90.474H198.372V89.07C198.48 89.07 198.606 89.034 198.75 88.962C198.894 88.878 199.062 88.788 199.254 88.692C199.458 88.596 199.698 88.512 199.974 88.44C200.262 88.356 200.604 88.314 201 88.314C201.66 88.314 202.194 88.398 202.602 88.566C203.01 88.734 203.322 88.956 203.538 89.232C203.766 89.508 203.916 89.826 203.988 90.186C204.06 90.534 204.096 90.894 204.096 91.266V94.83C204.096 95.07 204.156 95.298 204.276 95.514C204.396 95.718 204.558 95.82 204.762 95.82V96H202.944ZM202.944 94.29V91.716L202.764 91.752C202.476 91.824 202.122 91.92 201.702 92.04C201.294 92.16 200.904 92.316 200.532 92.508C200.16 92.7 199.842 92.928 199.578 93.192C199.314 93.456 199.182 93.762 199.182 94.11C199.182 94.494 199.338 94.812 199.65 95.064C199.962 95.316 200.37 95.442 200.874 95.442C201.27 95.442 201.618 95.358 201.918 95.19C202.218 95.01 202.494 94.782 202.746 94.506L202.944 94.29ZM212.232 90.204C212.232 90.492 212.106 90.804 211.854 91.14C211.602 91.464 211.26 91.722 210.828 91.914C211.5 92.058 211.98 92.31 212.268 92.67C212.568 93.018 212.718 93.39 212.718 93.786C212.718 94.158 212.628 94.488 212.448 94.776C212.268 95.064 212.022 95.304 211.71 95.496C211.41 95.688 211.062 95.832 210.666 95.928C210.282 96.024 209.88 96.072 209.46 96.072C209.064 96.072 208.71 96.036 208.398 95.964C208.086 95.88 207.816 95.796 207.588 95.712C207.36 95.616 207.168 95.532 207.012 95.46C206.868 95.376 206.754 95.334 206.67 95.334V93.876H206.832C206.856 94.128 206.94 94.356 207.084 94.56C207.228 94.752 207.408 94.92 207.624 95.064C207.852 95.196 208.104 95.298 208.38 95.37C208.668 95.442 208.962 95.478 209.262 95.478C209.538 95.478 209.808 95.448 210.072 95.388C210.348 95.328 210.588 95.238 210.792 95.118C211.008 94.986 211.182 94.824 211.314 94.632C211.446 94.44 211.512 94.218 211.512 93.966C211.512 93.702 211.44 93.468 211.296 93.264C211.152 93.048 210.96 92.868 210.72 92.724C210.492 92.58 210.234 92.472 209.946 92.4C209.67 92.328 209.394 92.292 209.118 92.292H208.542V91.716H209.172C209.424 91.716 209.664 91.674 209.892 91.59C210.132 91.506 210.336 91.398 210.504 91.266C210.672 91.134 210.804 90.984 210.9 90.816C211.008 90.636 211.062 90.456 211.062 90.276C211.062 90.06 211.002 89.868 210.882 89.7C210.774 89.532 210.624 89.388 210.432 89.268C210.24 89.148 210.024 89.058 209.784 88.998C209.556 88.926 209.316 88.89 209.064 88.89C208.836 88.89 208.614 88.92 208.398 88.98C208.182 89.028 207.984 89.112 207.804 89.232C207.636 89.352 207.492 89.502 207.372 89.682C207.264 89.862 207.192 90.078 207.156 90.33H206.994V88.926C207.09 88.926 207.18 88.914 207.264 88.89C207.348 88.854 207.444 88.806 207.552 88.746C207.744 88.65 207.978 88.56 208.254 88.476C208.53 88.38 208.878 88.332 209.298 88.332C210.234 88.332 210.954 88.5 211.458 88.836C211.974 89.172 212.232 89.628 212.232 90.204ZM222.292 94.83C222.292 94.926 222.304 95.034 222.328 95.154C222.364 95.262 222.406 95.364 222.454 95.46C222.502 95.556 222.562 95.64 222.634 95.712C222.718 95.784 222.796 95.82 222.868 95.82V96H220.564V95.82C220.648 95.82 220.726 95.79 220.798 95.73C220.87 95.658 220.93 95.574 220.978 95.478C221.026 95.37 221.062 95.262 221.086 95.154C221.11 95.034 221.122 94.926 221.122 94.83V90.51L216.838 94.704V94.83C216.838 94.926 216.85 95.034 216.874 95.154C216.898 95.262 216.934 95.364 216.982 95.46C217.03 95.556 217.084 95.64 217.144 95.712C217.216 95.784 217.294 95.82 217.378 95.82V96H215.092V95.82C215.176 95.82 215.254 95.79 215.326 95.73C215.398 95.658 215.458 95.574 215.506 95.478C215.554 95.37 215.59 95.262 215.614 95.154C215.638 95.034 215.65 94.926 215.65 94.83V89.556C215.65 89.472 215.638 89.376 215.614 89.268C215.59 89.16 215.554 89.058 215.506 88.962C215.458 88.866 215.398 88.788 215.326 88.728C215.254 88.656 215.176 88.62 215.092 88.62V88.44H217.378V88.62C217.282 88.62 217.198 88.656 217.126 88.728C217.066 88.788 217.012 88.866 216.964 88.962C216.928 89.058 216.898 89.16 216.874 89.268C216.85 89.376 216.838 89.472 216.838 89.556V93.858L221.122 89.664V89.556C221.122 89.472 221.11 89.376 221.086 89.268C221.062 89.16 221.026 89.058 220.978 88.962C220.93 88.866 220.87 88.788 220.798 88.728C220.726 88.656 220.648 88.62 220.564 88.62V88.44H222.868V88.62C222.772 88.62 222.682 88.656 222.598 88.728C222.526 88.788 222.466 88.866 222.418 88.962C222.382 89.058 222.352 89.16 222.328 89.268C222.304 89.376 222.292 89.472 222.292 89.556V94.83ZM231.243 94.83C231.243 94.926 231.255 95.034 231.279 95.154C231.303 95.262 231.339 95.37 231.387 95.478C231.447 95.574 231.507 95.658 231.567 95.73C231.639 95.79 231.723 95.82 231.819 95.82V96H229.479V95.82C229.563 95.82 229.641 95.784 229.713 95.712C229.785 95.64 229.845 95.556 229.893 95.46C229.953 95.364 229.995 95.262 230.019 95.154C230.043 95.034 230.055 94.926 230.055 94.83V92.31C229.923 92.334 229.773 92.406 229.605 92.526C229.437 92.634 229.263 92.778 229.083 92.958C228.903 93.126 228.729 93.312 228.561 93.516C228.393 93.72 228.237 93.924 228.093 94.128C227.973 94.296 227.871 94.434 227.787 94.542C227.703 94.65 227.631 94.752 227.571 94.848C227.451 95.004 227.331 95.154 227.211 95.298C227.091 95.43 226.953 95.55 226.797 95.658C226.653 95.766 226.479 95.85 226.275 95.91C226.071 95.97 225.831 96 225.555 96H224.889V95.82C225.033 95.82 225.177 95.778 225.321 95.694C225.477 95.61 225.627 95.508 225.771 95.388C225.915 95.256 226.047 95.118 226.167 94.974C226.299 94.818 226.413 94.674 226.509 94.542L227.067 93.768C227.271 93.492 227.481 93.222 227.697 92.958C227.913 92.682 228.159 92.466 228.435 92.31C228.003 92.298 227.619 92.238 227.283 92.13C226.947 92.022 226.665 91.878 226.437 91.698C226.209 91.518 226.035 91.314 225.915 91.086C225.807 90.846 225.753 90.594 225.753 90.33C225.753 90.078 225.807 89.838 225.915 89.61C226.035 89.382 226.221 89.184 226.473 89.016C226.725 88.836 227.043 88.698 227.427 88.602C227.823 88.494 228.297 88.44 228.849 88.44H231.819V88.62C231.723 88.62 231.639 88.656 231.567 88.728C231.507 88.788 231.447 88.866 231.387 88.962C231.339 89.058 231.303 89.16 231.279 89.268C231.255 89.376 231.243 89.472 231.243 89.556V94.83ZM226.923 90.222C226.923 90.402 226.977 90.582 227.085 90.762C227.205 90.942 227.361 91.104 227.553 91.248C227.757 91.392 227.985 91.512 228.237 91.608C228.489 91.692 228.759 91.734 229.047 91.734H230.055V89.016H228.885C228.165 89.016 227.655 89.13 227.355 89.358C227.067 89.586 226.923 89.874 226.923 90.222Z" fill="#0C0500"/>
</g>
<path d="M327.893 167.452C327.277 169.257 324.723 169.257 324.107 167.452L315.644 142.646C315.202 141.348 316.166 140 317.537 140L334.463 140C335.834 140 336.798 141.348 336.356 142.646L327.893 167.452Z" fill="#D8B067"/>
<g filter="url(#filter2_d_238_535)">
<rect x="271" y="116" width="110" height="30" rx="15" fill="#D8B067" shape-rendering="crispEdges"/>
<path d="M285.988 135.82H286.078C286.174 135.82 286.258 135.784 286.33 135.712C286.402 135.64 286.462 135.556 286.51 135.46C286.57 135.364 286.612 135.262 286.636 135.154C286.66 135.034 286.672 134.926 286.672 134.83V125.236C286.672 125.152 286.66 125.056 286.636 124.948C286.612 124.84 286.57 124.738 286.51 124.642C286.462 124.546 286.402 124.468 286.33 124.408C286.258 124.336 286.18 124.3 286.096 124.3H286.006V124.12H288.562V124.3H288.472C288.376 124.3 288.292 124.336 288.22 124.408C288.148 124.468 288.082 124.546 288.022 124.642C287.974 124.738 287.932 124.84 287.896 124.948C287.872 125.056 287.86 125.152 287.86 125.236V128.962L292.036 124.804C292.132 124.708 292.18 124.594 292.18 124.462C292.18 124.354 292.132 124.3 292.036 124.3V124.12H293.98V124.3C293.74 124.312 293.524 124.384 293.332 124.516C293.152 124.648 292.954 124.822 292.738 125.038L288.472 129.304C289.252 129.328 289.882 129.496 290.362 129.808C290.842 130.12 291.22 130.552 291.496 131.104L292.918 133.984C293.002 134.164 293.11 134.362 293.242 134.578C293.386 134.782 293.542 134.98 293.71 135.172C293.89 135.352 294.088 135.508 294.304 135.64C294.52 135.76 294.748 135.82 294.988 135.82V136H294.088C293.74 136 293.44 135.952 293.188 135.856C292.936 135.748 292.714 135.61 292.522 135.442C292.342 135.262 292.18 135.064 292.036 134.848C291.904 134.632 291.784 134.416 291.676 134.2L290.218 131.302C289.99 130.858 289.672 130.522 289.264 130.294C288.868 130.054 288.4 129.922 287.86 129.898V134.83C287.86 134.926 287.872 135.028 287.896 135.136C287.92 135.244 287.956 135.352 288.004 135.46C288.052 135.556 288.112 135.64 288.184 135.712C288.256 135.772 288.334 135.808 288.418 135.82H288.544V136H285.988V135.82ZM301.713 136V135.082L301.623 135.172C301.323 135.472 300.975 135.706 300.579 135.874C300.195 136.042 299.727 136.126 299.175 136.126C298.755 136.126 298.395 136.078 298.095 135.982C297.795 135.886 297.549 135.754 297.357 135.586C297.165 135.406 297.021 135.202 296.925 134.974C296.841 134.746 296.799 134.506 296.799 134.254C296.799 133.846 296.907 133.486 297.123 133.174C297.351 132.862 297.675 132.586 298.095 132.346C298.515 132.106 299.025 131.89 299.625 131.698C300.237 131.494 300.933 131.296 301.713 131.104C301.689 130.636 301.593 130.258 301.425 129.97C301.257 129.682 301.059 129.46 300.831 129.304C300.603 129.136 300.363 129.028 300.111 128.98C299.859 128.92 299.643 128.89 299.463 128.89C299.151 128.89 298.875 128.938 298.635 129.034C298.395 129.118 298.185 129.238 298.005 129.394C297.825 129.538 297.675 129.706 297.555 129.898C297.447 130.09 297.363 130.282 297.303 130.474H297.141V129.07C297.249 129.07 297.375 129.034 297.519 128.962C297.663 128.878 297.831 128.788 298.023 128.692C298.227 128.596 298.467 128.512 298.743 128.44C299.031 128.356 299.373 128.314 299.769 128.314C300.429 128.314 300.963 128.398 301.371 128.566C301.779 128.734 302.091 128.956 302.307 129.232C302.535 129.508 302.685 129.826 302.757 130.186C302.829 130.534 302.865 130.894 302.865 131.266V134.83C302.865 135.07 302.925 135.298 303.045 135.514C303.165 135.718 303.327 135.82 303.531 135.82V136H301.713ZM301.713 134.29V131.716L301.533 131.752C301.245 131.824 300.891 131.92 300.471 132.04C300.063 132.16 299.673 132.316 299.301 132.508C298.929 132.7 298.611 132.928 298.347 133.192C298.083 133.456 297.951 133.762 297.951 134.11C297.951 134.494 298.107 134.812 298.419 135.064C298.731 135.316 299.139 135.442 299.643 135.442C300.039 135.442 300.387 135.358 300.687 135.19C300.987 135.01 301.263 134.782 301.515 134.506L301.713 134.29ZM311.001 130.204C311.001 130.492 310.875 130.804 310.623 131.14C310.371 131.464 310.029 131.722 309.597 131.914C310.269 132.058 310.749 132.31 311.037 132.67C311.337 133.018 311.487 133.39 311.487 133.786C311.487 134.158 311.397 134.488 311.217 134.776C311.037 135.064 310.791 135.304 310.479 135.496C310.179 135.688 309.831 135.832 309.435 135.928C309.051 136.024 308.649 136.072 308.229 136.072C307.833 136.072 307.479 136.036 307.167 135.964C306.855 135.88 306.585 135.796 306.357 135.712C306.129 135.616 305.937 135.532 305.781 135.46C305.637 135.376 305.523 135.334 305.439 135.334V133.876H305.601C305.625 134.128 305.709 134.356 305.853 134.56C305.997 134.752 306.177 134.92 306.393 135.064C306.621 135.196 306.873 135.298 307.149 135.37C307.437 135.442 307.731 135.478 308.031 135.478C308.307 135.478 308.577 135.448 308.841 135.388C309.117 135.328 309.357 135.238 309.561 135.118C309.777 134.986 309.951 134.824 310.083 134.632C310.215 134.44 310.281 134.218 310.281 133.966C310.281 133.702 310.209 133.468 310.065 133.264C309.921 133.048 309.729 132.868 309.489 132.724C309.261 132.58 309.003 132.472 308.715 132.4C308.439 132.328 308.163 132.292 307.887 132.292H307.311V131.716H307.941C308.193 131.716 308.433 131.674 308.661 131.59C308.901 131.506 309.105 131.398 309.273 131.266C309.441 131.134 309.573 130.984 309.669 130.816C309.777 130.636 309.831 130.456 309.831 130.276C309.831 130.06 309.771 129.868 309.651 129.7C309.543 129.532 309.393 129.388 309.201 129.268C309.009 129.148 308.793 129.058 308.553 128.998C308.325 128.926 308.085 128.89 307.833 128.89C307.605 128.89 307.383 128.92 307.167 128.98C306.951 129.028 306.753 129.112 306.573 129.232C306.405 129.352 306.261 129.502 306.141 129.682C306.033 129.862 305.961 130.078 305.925 130.33H305.763V128.926C305.859 128.926 305.949 128.914 306.033 128.89C306.117 128.854 306.213 128.806 306.321 128.746C306.513 128.65 306.747 128.56 307.023 128.476C307.299 128.38 307.647 128.332 308.067 128.332C309.003 128.332 309.723 128.5 310.227 128.836C310.743 129.172 311.001 129.628 311.001 130.204ZM318.595 136V135.082L318.505 135.172C318.205 135.472 317.857 135.706 317.461 135.874C317.077 136.042 316.609 136.126 316.057 136.126C315.637 136.126 315.277 136.078 314.977 135.982C314.677 135.886 314.431 135.754 314.239 135.586C314.047 135.406 313.903 135.202 313.807 134.974C313.723 134.746 313.681 134.506 313.681 134.254C313.681 133.846 313.789 133.486 314.005 133.174C314.233 132.862 314.557 132.586 314.977 132.346C315.397 132.106 315.907 131.89 316.507 131.698C317.119 131.494 317.815 131.296 318.595 131.104C318.571 130.636 318.475 130.258 318.307 129.97C318.139 129.682 317.941 129.46 317.713 129.304C317.485 129.136 317.245 129.028 316.993 128.98C316.741 128.92 316.525 128.89 316.345 128.89C316.033 128.89 315.757 128.938 315.517 129.034C315.277 129.118 315.067 129.238 314.887 129.394C314.707 129.538 314.557 129.706 314.437 129.898C314.329 130.09 314.245 130.282 314.185 130.474H314.023V129.07C314.131 129.07 314.257 129.034 314.401 128.962C314.545 128.878 314.713 128.788 314.905 128.692C315.109 128.596 315.349 128.512 315.625 128.44C315.913 128.356 316.255 128.314 316.651 128.314C317.311 128.314 317.845 128.398 318.253 128.566C318.661 128.734 318.973 128.956 319.189 129.232C319.417 129.508 319.567 129.826 319.639 130.186C319.711 130.534 319.747 130.894 319.747 131.266V134.83C319.747 135.07 319.807 135.298 319.927 135.514C320.047 135.718 320.209 135.82 320.413 135.82V136H318.595ZM318.595 134.29V131.716L318.415 131.752C318.127 131.824 317.773 131.92 317.353 132.04C316.945 132.16 316.555 132.316 316.183 132.508C315.811 132.7 315.493 132.928 315.229 133.192C314.965 133.456 314.833 133.762 314.833 134.11C314.833 134.494 314.989 134.812 315.301 135.064C315.613 135.316 316.021 135.442 316.525 135.442C316.921 135.442 317.269 135.358 317.569 135.19C317.869 135.01 318.145 134.782 318.397 134.506L318.595 134.29ZM327.595 135.82C327.691 135.82 327.769 135.796 327.829 135.748C327.901 135.7 327.937 135.64 327.937 135.568C327.937 135.484 327.865 135.352 327.721 135.172C327.409 134.764 327.103 134.35 326.803 133.93C326.515 133.51 326.221 133.096 325.921 132.688L324.049 135.226C324.013 135.274 323.971 135.34 323.923 135.424C323.875 135.508 323.851 135.58 323.851 135.64C323.851 135.76 323.917 135.82 324.049 135.82V136H322.357V135.82C322.525 135.82 322.705 135.754 322.897 135.622C323.089 135.478 323.251 135.31 323.383 135.118L325.561 132.166L323.545 129.43C323.485 129.358 323.413 129.274 323.329 129.178C323.257 129.082 323.173 128.998 323.077 128.926C322.981 128.842 322.885 128.77 322.789 128.71C322.693 128.65 322.603 128.62 322.519 128.62V128.44H325.111V128.62C325.039 128.62 324.961 128.644 324.877 128.692C324.805 128.74 324.769 128.83 324.769 128.962C324.769 129.034 324.805 129.118 324.877 129.214L326.335 131.23L327.721 129.394C327.817 129.274 327.877 129.178 327.901 129.106C327.925 129.034 327.937 128.968 327.937 128.908C327.937 128.836 327.913 128.77 327.865 128.71C327.829 128.65 327.769 128.62 327.685 128.62V128.44H329.413V128.62C329.221 128.62 329.035 128.716 328.855 128.908C328.687 129.1 328.543 129.28 328.423 129.448L326.677 131.752L329.089 135.01C329.245 135.226 329.419 135.418 329.611 135.586C329.803 135.742 329.989 135.82 330.169 135.82V136H327.595V135.82ZM338.896 135.352C338.8 135.352 338.71 135.376 338.626 135.424C338.542 135.46 338.446 135.508 338.338 135.568C338.134 135.688 337.864 135.814 337.528 135.946C337.192 136.066 336.772 136.126 336.268 136.126C335.656 136.126 335.092 136.03 334.576 135.838C334.072 135.634 333.634 135.358 333.262 135.01C332.89 134.65 332.602 134.236 332.398 133.768C332.194 133.288 332.092 132.772 332.092 132.22C332.092 131.704 332.182 131.212 332.362 130.744C332.554 130.276 332.824 129.862 333.172 129.502C333.52 129.142 333.946 128.854 334.45 128.638C334.966 128.422 335.548 128.314 336.196 128.314C336.64 128.314 337 128.368 337.276 128.476C337.552 128.572 337.786 128.668 337.978 128.764C338.086 128.824 338.188 128.872 338.284 128.908C338.392 128.944 338.5 128.962 338.608 128.962V130.33H338.428C338.368 130.102 338.26 129.904 338.104 129.736C337.948 129.556 337.768 129.406 337.564 129.286C337.36 129.166 337.138 129.076 336.898 129.016C336.658 128.956 336.424 128.926 336.196 128.926C335.704 128.926 335.272 129.016 334.9 129.196C334.528 129.364 334.222 129.592 333.982 129.88C333.742 130.156 333.562 130.474 333.442 130.834C333.322 131.194 333.262 131.566 333.262 131.95C333.262 132.394 333.328 132.832 333.46 133.264C333.604 133.684 333.802 134.062 334.054 134.398C334.318 134.734 334.636 135.004 335.008 135.208C335.392 135.412 335.824 135.514 336.304 135.514C336.64 135.514 336.952 135.466 337.24 135.37C337.528 135.274 337.774 135.148 337.978 134.992C338.194 134.836 338.362 134.668 338.482 134.488C338.614 134.296 338.692 134.116 338.716 133.948H338.896V135.352ZM347.078 130.33C347.078 130.198 347.054 130.054 347.006 129.898C346.958 129.742 346.886 129.604 346.79 129.484C346.694 129.352 346.574 129.244 346.43 129.16C346.286 129.076 346.118 129.034 345.926 129.034H344.342V134.83C344.342 134.926 344.354 135.028 344.378 135.136C344.402 135.244 344.438 135.352 344.486 135.46C344.546 135.556 344.606 135.64 344.666 135.712C344.738 135.784 344.822 135.82 344.918 135.82V136H342.578V135.82C342.674 135.82 342.758 135.784 342.83 135.712C342.902 135.64 342.962 135.556 343.01 135.46C343.07 135.364 343.112 135.262 343.136 135.154C343.16 135.034 343.172 134.926 343.172 134.83V129.034H341.624C341.432 129.034 341.264 129.076 341.12 129.16C340.976 129.244 340.856 129.352 340.76 129.484C340.676 129.604 340.61 129.742 340.562 129.898C340.514 130.054 340.49 130.198 340.49 130.33H340.31V128.44H347.24V130.33H347.078ZM353.923 136V135.082L353.833 135.172C353.533 135.472 353.185 135.706 352.789 135.874C352.405 136.042 351.937 136.126 351.385 136.126C350.965 136.126 350.605 136.078 350.305 135.982C350.005 135.886 349.759 135.754 349.567 135.586C349.375 135.406 349.231 135.202 349.135 134.974C349.051 134.746 349.009 134.506 349.009 134.254C349.009 133.846 349.117 133.486 349.333 133.174C349.561 132.862 349.885 132.586 350.305 132.346C350.725 132.106 351.235 131.89 351.835 131.698C352.447 131.494 353.143 131.296 353.923 131.104C353.899 130.636 353.803 130.258 353.635 129.97C353.467 129.682 353.269 129.46 353.041 129.304C352.813 129.136 352.573 129.028 352.321 128.98C352.069 128.92 351.853 128.89 351.673 128.89C351.361 128.89 351.085 128.938 350.845 129.034C350.605 129.118 350.395 129.238 350.215 129.394C350.035 129.538 349.885 129.706 349.765 129.898C349.657 130.09 349.573 130.282 349.513 130.474H349.351V129.07C349.459 129.07 349.585 129.034 349.729 128.962C349.873 128.878 350.041 128.788 350.233 128.692C350.437 128.596 350.677 128.512 350.953 128.44C351.241 128.356 351.583 128.314 351.979 128.314C352.639 128.314 353.173 128.398 353.581 128.566C353.989 128.734 354.301 128.956 354.517 129.232C354.745 129.508 354.895 129.826 354.967 130.186C355.039 130.534 355.075 130.894 355.075 131.266V134.83C355.075 135.07 355.135 135.298 355.255 135.514C355.375 135.718 355.537 135.82 355.741 135.82V136H353.923ZM353.923 134.29V131.716L353.743 131.752C353.455 131.824 353.101 131.92 352.681 132.04C352.273 132.16 351.883 132.316 351.511 132.508C351.139 132.7 350.821 132.928 350.557 133.192C350.293 133.456 350.161 133.762 350.161 134.11C350.161 134.494 350.317 134.812 350.629 135.064C350.941 135.316 351.349 135.442 351.853 135.442C352.249 135.442 352.597 135.358 352.897 135.19C353.197 135.01 353.473 134.782 353.725 134.506L353.923 134.29ZM360.062 134.83C360.062 134.926 360.074 135.034 360.098 135.154C360.122 135.262 360.158 135.364 360.206 135.46C360.254 135.556 360.308 135.64 360.368 135.712C360.44 135.784 360.518 135.82 360.602 135.82V136H358.334V135.82C358.418 135.82 358.49 135.79 358.55 135.73C358.622 135.658 358.682 135.574 358.73 135.478C358.778 135.37 358.814 135.262 358.838 135.154C358.862 135.034 358.874 134.926 358.874 134.83V129.556C358.874 129.472 358.862 129.376 358.838 129.268C358.814 129.16 358.778 129.058 358.73 128.962C358.682 128.866 358.622 128.788 358.55 128.728C358.49 128.656 358.418 128.62 358.334 128.62V128.44H360.602V128.62C360.506 128.62 360.422 128.656 360.35 128.728C360.29 128.788 360.236 128.866 360.188 128.962C360.152 129.058 360.122 129.16 360.098 129.268C360.074 129.376 360.062 129.472 360.062 129.556V131.734H364.166V129.556C364.166 129.472 364.154 129.376 364.13 129.268C364.106 129.16 364.07 129.058 364.022 128.962C363.986 128.866 363.932 128.788 363.86 128.728C363.8 128.656 363.722 128.62 363.626 128.62V128.44H365.894V128.62C365.798 128.62 365.714 128.656 365.642 128.728C365.582 128.788 365.528 128.866 365.48 128.962C365.432 129.058 365.396 129.16 365.372 129.268C365.36 129.376 365.354 129.472 365.354 129.556V134.83C365.354 134.926 365.366 135.034 365.39 135.154C365.414 135.262 365.45 135.364 365.498 135.46C365.546 135.556 365.6 135.64 365.66 135.712C365.732 135.784 365.81 135.82 365.894 135.82V136H363.626V135.82C363.71 135.82 363.782 135.79 363.842 135.73C363.914 135.658 363.974 135.574 364.022 135.478C364.07 135.37 364.106 135.262 364.13 135.154C364.154 135.034 364.166 134.926 364.166 134.83V132.328H360.062V134.83Z" fill="#0C0500"/>
</g>
<path d="M457.893 194.452C457.277 196.257 454.723 196.257 454.107 194.452L445.644 169.646C445.202 168.348 446.166 167 447.537 167L464.463 167C465.834 167 466.798 168.348 466.356 169.646L457.893 194.452Z" fill="#D8B067"/>
<g filter="url(#filter3_d_238_535)">
<rect x="417" y="143" width="77" height="30" rx="15" fill="#D8B067" shape-rendering="crispEdges"/>
<path d="M432.195 162.82H432.285C432.381 162.82 432.465 162.784 432.537 162.712C432.609 162.64 432.669 162.556 432.717 162.46C432.777 162.364 432.819 162.262 432.843 162.154C432.867 162.034 432.879 161.926 432.879 161.83V152.236C432.879 152.152 432.867 152.056 432.843 151.948C432.819 151.84 432.777 151.738 432.717 151.642C432.669 151.546 432.609 151.468 432.537 151.408C432.465 151.336 432.387 151.3 432.303 151.3H432.213V151.12H434.769V151.3H434.679C434.583 151.3 434.499 151.336 434.427 151.408C434.355 151.468 434.289 151.546 434.229 151.642C434.181 151.738 434.139 151.84 434.103 151.948C434.079 152.056 434.067 152.152 434.067 152.236V155.962L438.243 151.804C438.339 151.708 438.387 151.594 438.387 151.462C438.387 151.354 438.339 151.3 438.243 151.3V151.12H440.187V151.3C439.947 151.312 439.731 151.384 439.539 151.516C439.359 151.648 439.161 151.822 438.945 152.038L434.679 156.304C435.459 156.328 436.089 156.496 436.569 156.808C437.049 157.12 437.427 157.552 437.703 158.104L439.125 160.984C439.209 161.164 439.317 161.362 439.449 161.578C439.593 161.782 439.749 161.98 439.917 162.172C440.097 162.352 440.295 162.508 440.511 162.64C440.727 162.76 440.955 162.82 441.195 162.82V163H440.295C439.947 163 439.647 162.952 439.395 162.856C439.143 162.748 438.921 162.61 438.729 162.442C438.549 162.262 438.387 162.064 438.243 161.848C438.111 161.632 437.991 161.416 437.883 161.2L436.425 158.302C436.197 157.858 435.879 157.522 435.471 157.294C435.075 157.054 434.607 156.922 434.067 156.898V161.83C434.067 161.926 434.079 162.028 434.103 162.136C434.127 162.244 434.163 162.352 434.211 162.46C434.259 162.556 434.319 162.64 434.391 162.712C434.463 162.772 434.541 162.808 434.625 162.82H434.751V163H432.195V162.82ZM450.385 161.83C450.385 161.926 450.397 162.034 450.421 162.154C450.457 162.262 450.499 162.364 450.547 162.46C450.595 162.556 450.655 162.64 450.727 162.712C450.811 162.784 450.889 162.82 450.961 162.82V163H448.657V162.82C448.741 162.82 448.819 162.79 448.891 162.73C448.963 162.658 449.023 162.574 449.071 162.478C449.119 162.37 449.155 162.262 449.179 162.154C449.203 162.034 449.215 161.926 449.215 161.83V157.51L444.931 161.704V161.83C444.931 161.926 444.943 162.034 444.967 162.154C444.991 162.262 445.027 162.364 445.075 162.46C445.123 162.556 445.177 162.64 445.237 162.712C445.309 162.784 445.387 162.82 445.471 162.82V163H443.185V162.82C443.269 162.82 443.347 162.79 443.419 162.73C443.491 162.658 443.551 162.574 443.599 162.478C443.647 162.37 443.683 162.262 443.707 162.154C443.731 162.034 443.743 161.926 443.743 161.83V156.556C443.743 156.472 443.731 156.376 443.707 156.268C443.683 156.16 443.647 156.058 443.599 155.962C443.551 155.866 443.491 155.788 443.419 155.728C443.347 155.656 443.269 155.62 443.185 155.62V155.44H445.471V155.62C445.375 155.62 445.291 155.656 445.219 155.728C445.159 155.788 445.105 155.866 445.057 155.962C445.021 156.058 444.991 156.16 444.967 156.268C444.943 156.376 444.931 156.472 444.931 156.556V160.858L449.215 156.664V156.556C449.215 156.472 449.203 156.376 449.179 156.268C449.155 156.16 449.119 156.058 449.071 155.962C449.023 155.866 448.963 155.788 448.891 155.728C448.819 155.656 448.741 155.62 448.657 155.62V155.44H450.961V155.62C450.865 155.62 450.775 155.656 450.691 155.728C450.619 155.788 450.559 155.866 450.511 155.962C450.475 156.058 450.445 156.16 450.421 156.268C450.397 156.376 450.385 156.472 450.385 156.556V161.83ZM459.678 157.33C459.678 157.198 459.654 157.054 459.606 156.898C459.558 156.742 459.486 156.604 459.39 156.484C459.294 156.352 459.174 156.244 459.03 156.16C458.886 156.076 458.718 156.034 458.526 156.034H456.942V161.83C456.942 161.926 456.954 162.028 456.978 162.136C457.002 162.244 457.038 162.352 457.086 162.46C457.146 162.556 457.206 162.64 457.266 162.712C457.338 162.784 457.422 162.82 457.518 162.82V163H455.178V162.82C455.274 162.82 455.358 162.784 455.43 162.712C455.502 162.64 455.562 162.556 455.61 162.46C455.67 162.364 455.712 162.262 455.736 162.154C455.76 162.034 455.772 161.926 455.772 161.83V156.034H454.224C454.032 156.034 453.864 156.076 453.72 156.16C453.576 156.244 453.456 156.352 453.36 156.484C453.276 156.604 453.21 156.742 453.162 156.898C453.114 157.054 453.09 157.198 453.09 157.33H452.91V155.44H459.84V157.33H459.678ZM466.524 163V162.082L466.434 162.172C466.134 162.472 465.786 162.706 465.39 162.874C465.006 163.042 464.538 163.126 463.986 163.126C463.566 163.126 463.206 163.078 462.906 162.982C462.606 162.886 462.36 162.754 462.168 162.586C461.976 162.406 461.832 162.202 461.736 161.974C461.652 161.746 461.61 161.506 461.61 161.254C461.61 160.846 461.718 160.486 461.934 160.174C462.162 159.862 462.486 159.586 462.906 159.346C463.326 159.106 463.836 158.89 464.436 158.698C465.048 158.494 465.744 158.296 466.524 158.104C466.5 157.636 466.404 157.258 466.236 156.97C466.068 156.682 465.87 156.46 465.642 156.304C465.414 156.136 465.174 156.028 464.922 155.98C464.67 155.92 464.454 155.89 464.274 155.89C463.962 155.89 463.686 155.938 463.446 156.034C463.206 156.118 462.996 156.238 462.816 156.394C462.636 156.538 462.486 156.706 462.366 156.898C462.258 157.09 462.174 157.282 462.114 157.474H461.952V156.07C462.06 156.07 462.186 156.034 462.33 155.962C462.474 155.878 462.642 155.788 462.834 155.692C463.038 155.596 463.278 155.512 463.554 155.44C463.842 155.356 464.184 155.314 464.58 155.314C465.24 155.314 465.774 155.398 466.182 155.566C466.59 155.734 466.902 155.956 467.118 156.232C467.346 156.508 467.496 156.826 467.568 157.186C467.64 157.534 467.676 157.894 467.676 158.266V161.83C467.676 162.07 467.736 162.298 467.856 162.514C467.976 162.718 468.138 162.82 468.342 162.82V163H466.524ZM466.524 161.29V158.716L466.344 158.752C466.056 158.824 465.702 158.92 465.282 159.04C464.874 159.16 464.484 159.316 464.112 159.508C463.74 159.7 463.422 159.928 463.158 160.192C462.894 160.456 462.762 160.762 462.762 161.11C462.762 161.494 462.918 161.812 463.23 162.064C463.542 162.316 463.95 162.442 464.454 162.442C464.85 162.442 465.198 162.358 465.498 162.19C465.798 162.01 466.074 161.782 466.326 161.506L466.524 161.29ZM478.116 161.83C478.116 161.926 478.128 162.034 478.152 162.154C478.188 162.262 478.23 162.364 478.278 162.46C478.326 162.556 478.386 162.64 478.458 162.712C478.542 162.784 478.62 162.82 478.692 162.82V163H476.388V162.82C476.472 162.82 476.55 162.79 476.622 162.73C476.694 162.658 476.754 162.574 476.802 162.478C476.85 162.37 476.886 162.262 476.91 162.154C476.934 162.034 476.946 161.926 476.946 161.83V157.51L472.662 161.704V161.83C472.662 161.926 472.674 162.034 472.698 162.154C472.722 162.262 472.758 162.364 472.806 162.46C472.854 162.556 472.908 162.64 472.968 162.712C473.04 162.784 473.118 162.82 473.202 162.82V163H470.916V162.82C471 162.82 471.078 162.79 471.15 162.73C471.222 162.658 471.282 162.574 471.33 162.478C471.378 162.37 471.414 162.262 471.438 162.154C471.462 162.034 471.474 161.926 471.474 161.83V156.556C471.474 156.472 471.462 156.376 471.438 156.268C471.414 156.16 471.378 156.058 471.33 155.962C471.282 155.866 471.222 155.788 471.15 155.728C471.078 155.656 471 155.62 470.916 155.62V155.44H473.202V155.62C473.106 155.62 473.022 155.656 472.95 155.728C472.89 155.788 472.836 155.866 472.788 155.962C472.752 156.058 472.722 156.16 472.698 156.268C472.674 156.376 472.662 156.472 472.662 156.556V160.858L476.946 156.664V156.556C476.946 156.472 476.934 156.376 476.91 156.268C476.886 156.16 476.85 156.058 476.802 155.962C476.754 155.866 476.694 155.788 476.622 155.728C476.55 155.656 476.472 155.62 476.388 155.62V155.44H478.692V155.62C478.596 155.62 478.506 155.656 478.422 155.728C478.35 155.788 478.29 155.866 478.242 155.962C478.206 156.058 478.176 156.16 478.152 156.268C478.128 156.376 478.116 156.472 478.116 156.556V161.83ZM476.73 153.01C476.73 153.202 476.682 153.412 476.586 153.64C476.49 153.856 476.352 154.06 476.172 154.252C475.992 154.432 475.776 154.582 475.524 154.702C475.284 154.822 475.014 154.882 474.714 154.882C474.438 154.882 474.174 154.828 473.922 154.72C473.682 154.6 473.472 154.45 473.292 154.27C473.112 154.09 472.968 153.892 472.86 153.676C472.752 153.448 472.698 153.226 472.698 153.01H472.806C472.818 153.082 472.854 153.184 472.914 153.316C472.986 153.436 473.094 153.562 473.238 153.694C473.382 153.826 473.568 153.94 473.796 154.036C474.036 154.132 474.336 154.18 474.696 154.18C475.068 154.18 475.374 154.132 475.614 154.036C475.854 153.94 476.046 153.826 476.19 153.694C476.334 153.562 476.436 153.436 476.496 153.316C476.556 153.184 476.598 153.082 476.622 153.01H476.73Z" fill="#0C0500"/>
</g>
<path d="M214.893 161.452C214.277 163.257 211.723 163.257 211.107 161.452L202.644 136.646C202.202 135.348 203.166 134 204.537 134L221.463 134C222.834 134 223.798 135.348 223.356 136.646L214.893 161.452Z" fill="#D8B067"/>
<g filter="url(#filter4_d_238_535)">
<rect x="172" y="110" width="82" height="30" rx="15" fill="#D8B067" shape-rendering="crispEdges"/>
<path d="M189.725 129.82H189.815V130H187.223V129.82H187.313C187.409 129.82 187.493 129.79 187.565 129.73C187.637 129.658 187.697 129.574 187.745 129.478C187.805 129.382 187.847 129.28 187.871 129.172C187.895 129.064 187.907 128.962 187.907 128.866V119.236C187.907 119.152 187.895 119.056 187.871 118.948C187.847 118.84 187.805 118.738 187.745 118.642C187.697 118.546 187.637 118.468 187.565 118.408C187.493 118.336 187.409 118.3 187.313 118.3H187.223V118.12H194.153V120.028H193.973C193.973 119.596 193.877 119.278 193.685 119.074C193.505 118.858 193.217 118.75 192.821 118.75H189.131V128.866C189.131 128.962 189.143 129.064 189.167 129.172C189.191 129.28 189.227 129.382 189.275 129.478C189.335 129.574 189.401 129.658 189.473 129.73C189.545 129.79 189.629 129.82 189.725 129.82ZM198.408 122.314C199.056 122.314 199.614 122.428 200.082 122.656C200.562 122.872 200.958 123.16 201.27 123.52C201.594 123.88 201.834 124.294 201.99 124.762C202.146 125.23 202.224 125.71 202.224 126.202C202.224 126.682 202.146 127.156 201.99 127.624C201.846 128.092 201.618 128.512 201.306 128.884C201.006 129.256 200.628 129.556 200.172 129.784C199.716 130.012 199.176 130.126 198.552 130.126C198.18 130.126 197.796 130.03 197.4 129.838C197.016 129.634 196.668 129.382 196.356 129.082V132.79C196.356 132.886 196.368 132.988 196.392 133.096C196.416 133.216 196.452 133.324 196.5 133.42C196.56 133.516 196.62 133.6 196.68 133.672C196.752 133.744 196.836 133.78 196.932 133.78V133.96H194.592V133.78C194.676 133.78 194.754 133.744 194.826 133.672C194.898 133.6 194.958 133.516 195.006 133.42C195.066 133.324 195.108 133.216 195.132 133.096C195.156 132.988 195.168 132.886 195.168 132.79V123.502C195.168 123.394 195.162 123.292 195.15 123.196C195.15 123.088 195.132 122.998 195.096 122.926C195.06 122.842 195 122.776 194.916 122.728C194.844 122.668 194.736 122.632 194.592 122.62V122.44H196.356V123.232C196.596 122.944 196.884 122.722 197.22 122.566C197.568 122.398 197.964 122.314 198.408 122.314ZM198.57 129.514C198.99 129.502 199.356 129.406 199.668 129.226C199.98 129.046 200.238 128.812 200.442 128.524C200.646 128.236 200.796 127.918 200.892 127.57C200.988 127.21 201.036 126.838 201.036 126.454C201.036 126.022 200.976 125.596 200.856 125.176C200.736 124.756 200.562 124.384 200.334 124.06C200.106 123.724 199.824 123.454 199.488 123.25C199.164 123.034 198.792 122.926 198.372 122.926C198.12 122.926 197.868 122.974 197.616 123.07C197.376 123.166 197.16 123.304 196.968 123.484C196.788 123.664 196.638 123.88 196.518 124.132C196.41 124.372 196.356 124.642 196.356 124.942V127.3C196.356 127.624 196.422 127.924 196.554 128.2C196.686 128.464 196.854 128.698 197.058 128.902C197.274 129.094 197.514 129.244 197.778 129.352C198.042 129.46 198.306 129.514 198.57 129.514ZM207.618 132.574C207.45 133.078 207.234 133.42 206.97 133.6C206.718 133.78 206.454 133.87 206.178 133.87C205.998 133.87 205.836 133.84 205.692 133.78C205.548 133.72 205.422 133.654 205.314 133.582C205.206 133.51 205.122 133.444 205.062 133.384C205.014 133.324 204.99 133.294 204.99 133.294L205.584 131.836C205.632 132.028 205.692 132.19 205.764 132.322C205.824 132.442 205.908 132.55 206.016 132.646C206.124 132.742 206.256 132.79 206.412 132.79C206.7 132.79 206.928 132.58 207.096 132.16L207.96 129.946L205.08 123.394C204.984 123.19 204.882 123.01 204.774 122.854C204.678 122.698 204.51 122.62 204.27 122.62V122.44H206.592V122.62C206.544 122.62 206.484 122.662 206.412 122.746C206.34 122.83 206.304 122.938 206.304 123.07C206.304 123.166 206.328 123.262 206.376 123.358L208.59 128.452L210.714 123.25C210.75 123.166 210.768 123.088 210.768 123.016C210.768 122.896 210.726 122.8 210.642 122.728C210.57 122.656 210.492 122.62 210.408 122.62V122.44H212.154V122.62C211.962 122.62 211.794 122.704 211.65 122.872C211.518 123.028 211.41 123.208 211.326 123.412L207.618 132.574ZM219.077 124.204C219.077 124.492 218.951 124.804 218.699 125.14C218.447 125.464 218.105 125.722 217.673 125.914C218.345 126.058 218.825 126.31 219.113 126.67C219.413 127.018 219.563 127.39 219.563 127.786C219.563 128.158 219.473 128.488 219.293 128.776C219.113 129.064 218.867 129.304 218.555 129.496C218.255 129.688 217.907 129.832 217.511 129.928C217.127 130.024 216.725 130.072 216.305 130.072C215.909 130.072 215.555 130.036 215.243 129.964C214.931 129.88 214.661 129.796 214.433 129.712C214.205 129.616 214.013 129.532 213.857 129.46C213.713 129.376 213.599 129.334 213.515 129.334V127.876H213.677C213.701 128.128 213.785 128.356 213.929 128.56C214.073 128.752 214.253 128.92 214.469 129.064C214.697 129.196 214.949 129.298 215.225 129.37C215.513 129.442 215.807 129.478 216.107 129.478C216.383 129.478 216.653 129.448 216.917 129.388C217.193 129.328 217.433 129.238 217.637 129.118C217.853 128.986 218.027 128.824 218.159 128.632C218.291 128.44 218.357 128.218 218.357 127.966C218.357 127.702 218.285 127.468 218.141 127.264C217.997 127.048 217.805 126.868 217.565 126.724C217.337 126.58 217.079 126.472 216.791 126.4C216.515 126.328 216.239 126.292 215.963 126.292H215.387V125.716H216.017C216.269 125.716 216.509 125.674 216.737 125.59C216.977 125.506 217.181 125.398 217.349 125.266C217.517 125.134 217.649 124.984 217.745 124.816C217.853 124.636 217.907 124.456 217.907 124.276C217.907 124.06 217.847 123.868 217.727 123.7C217.619 123.532 217.469 123.388 217.277 123.268C217.085 123.148 216.869 123.058 216.629 122.998C216.401 122.926 216.161 122.89 215.909 122.89C215.681 122.89 215.459 122.92 215.243 122.98C215.027 123.028 214.829 123.112 214.649 123.232C214.481 123.352 214.337 123.502 214.217 123.682C214.109 123.862 214.037 124.078 214.001 124.33H213.839V122.926C213.935 122.926 214.025 122.914 214.109 122.89C214.193 122.854 214.289 122.806 214.397 122.746C214.589 122.65 214.823 122.56 215.099 122.476C215.375 122.38 215.723 122.332 216.143 122.332C217.079 122.332 217.799 122.5 218.303 122.836C218.819 123.172 219.077 123.628 219.077 124.204ZM229.137 128.83C229.137 128.926 229.149 129.034 229.173 129.154C229.209 129.262 229.251 129.364 229.299 129.46C229.347 129.556 229.407 129.64 229.479 129.712C229.563 129.784 229.641 129.82 229.713 129.82V130H227.409V129.82C227.493 129.82 227.571 129.79 227.643 129.73C227.715 129.658 227.775 129.574 227.823 129.478C227.871 129.37 227.907 129.262 227.931 129.154C227.955 129.034 227.967 128.926 227.967 128.83V124.51L223.683 128.704V128.83C223.683 128.926 223.695 129.034 223.719 129.154C223.743 129.262 223.779 129.364 223.827 129.46C223.875 129.556 223.929 129.64 223.989 129.712C224.061 129.784 224.139 129.82 224.223 129.82V130H221.937V129.82C222.021 129.82 222.099 129.79 222.171 129.73C222.243 129.658 222.303 129.574 222.351 129.478C222.399 129.37 222.435 129.262 222.459 129.154C222.483 129.034 222.495 128.926 222.495 128.83V123.556C222.495 123.472 222.483 123.376 222.459 123.268C222.435 123.16 222.399 123.058 222.351 122.962C222.303 122.866 222.243 122.788 222.171 122.728C222.099 122.656 222.021 122.62 221.937 122.62V122.44H224.223V122.62C224.127 122.62 224.043 122.656 223.971 122.728C223.911 122.788 223.857 122.866 223.809 122.962C223.773 123.058 223.743 123.16 223.719 123.268C223.695 123.376 223.683 123.472 223.683 123.556V127.858L227.967 123.664V123.556C227.967 123.472 227.955 123.376 227.931 123.268C227.907 123.16 227.871 123.058 227.823 122.962C227.775 122.866 227.715 122.788 227.643 122.728C227.571 122.656 227.493 122.62 227.409 122.62V122.44H229.713V122.62C229.617 122.62 229.527 122.656 229.443 122.728C229.371 122.788 229.311 122.866 229.263 122.962C229.227 123.058 229.197 123.16 229.173 123.268C229.149 123.376 229.137 123.472 229.137 123.556V128.83ZM238.088 128.83C238.088 128.926 238.1 129.034 238.124 129.154C238.148 129.262 238.184 129.37 238.232 129.478C238.292 129.574 238.352 129.658 238.412 129.73C238.484 129.79 238.568 129.82 238.664 129.82V130H236.324V129.82C236.408 129.82 236.486 129.784 236.558 129.712C236.63 129.64 236.69 129.556 236.738 129.46C236.798 129.364 236.84 129.262 236.864 129.154C236.888 129.034 236.9 128.926 236.9 128.83V126.31C236.768 126.334 236.618 126.406 236.45 126.526C236.282 126.634 236.108 126.778 235.928 126.958C235.748 127.126 235.574 127.312 235.406 127.516C235.238 127.72 235.082 127.924 234.938 128.128C234.818 128.296 234.716 128.434 234.632 128.542C234.548 128.65 234.476 128.752 234.416 128.848C234.296 129.004 234.176 129.154 234.056 129.298C233.936 129.43 233.798 129.55 233.642 129.658C233.498 129.766 233.324 129.85 233.12 129.91C232.916 129.97 232.676 130 232.4 130H231.734V129.82C231.878 129.82 232.022 129.778 232.166 129.694C232.322 129.61 232.472 129.508 232.616 129.388C232.76 129.256 232.892 129.118 233.012 128.974C233.144 128.818 233.258 128.674 233.354 128.542L233.912 127.768C234.116 127.492 234.326 127.222 234.542 126.958C234.758 126.682 235.004 126.466 235.28 126.31C234.848 126.298 234.464 126.238 234.128 126.13C233.792 126.022 233.51 125.878 233.282 125.698C233.054 125.518 232.88 125.314 232.76 125.086C232.652 124.846 232.598 124.594 232.598 124.33C232.598 124.078 232.652 123.838 232.76 123.61C232.88 123.382 233.066 123.184 233.318 123.016C233.57 122.836 233.888 122.698 234.272 122.602C234.668 122.494 235.142 122.44 235.694 122.44H238.664V122.62C238.568 122.62 238.484 122.656 238.412 122.728C238.352 122.788 238.292 122.866 238.232 122.962C238.184 123.058 238.148 123.16 238.124 123.268C238.1 123.376 238.088 123.472 238.088 123.556V128.83ZM233.768 124.222C233.768 124.402 233.822 124.582 233.93 124.762C234.05 124.942 234.206 125.104 234.398 125.248C234.602 125.392 234.83 125.512 235.082 125.608C235.334 125.692 235.604 125.734 235.892 125.734H236.9V123.016H235.73C235.01 123.016 234.5 123.13 234.2 123.358C233.912 123.586 233.768 123.874 233.768 124.222Z" fill="#0C0500"/>
</g>
<defs>
<filter id="filter0_d_238_535" x="265" y="25" width="117" height="66" filterUnits="userSpaceOnUse" color-interpolation-filters="sRGB">
<feFlood flood-opacity="0" result="BackgroundImageFix"/>
<feColorMatrix in="SourceAlpha" type="matrix" values="0 0 0 0 0 0 0 0 0 0 0 0 0 0 0 0 0 0 127 0" result="hardAlpha"/>
<feOffset/>
<feGaussianBlur stdDeviation="9"/>
<feComposite in2="hardAlpha" operator="out"/>
<feColorMatrix type="matrix" values="0 0 0 0 0.2125 0 0 0 0 0.150521 0 0 0 0 0.150521 0 0 0 0.1 0"/>
<feBlend mode="normal" in2="BackgroundImageFix" result="effect1_dropShadow_238_535"/>
<feBlend mode="normal" in="SourceGraphic" in2="effect1_dropShadow_238_535" result="shape"/>
</filter>
<filter id="filter1_d_238_535" x="134" y="58" width="131" height="66" filterUnits="userSpaceOnUse" color-interpolation-filters="sRGB">
<feFlood flood-opacity="0" result="BackgroundImageFix"/>
<feColorMatrix in="SourceAlpha" type="matrix" values="0 0 0 0 0 0 0 0 0 0 0 0 0 0 0 0 0 0 127 0" result="hardAlpha"/>
<feOffset/>
<feGaussianBlur stdDeviation="9"/>
<feComposite in2="hardAlpha" operator="out"/>
<feColorMatrix type="matrix" values="0 0 0 0 0.2125 0 0 0 0 0.150521 0 0 0 0 0.150521 0 0 0 0.1 0"/>
<feBlend mode="normal" in2="BackgroundImageFix" result="effect1_dropShadow_238_535"/>
<feBlend mode="normal" in="SourceGraphic" in2="effect1_dropShadow_238_535" result="shape"/>
</filter>
<filter id="filter2_d_238_535" x="253" y="98" width="146" height="66" filterUnits="userSpaceOnUse" color-interpolation-filters="sRGB">
<feFlood flood-opacity="0" result="BackgroundImageFix"/>
<feColorMatrix in="SourceAlpha" type="matrix" values="0 0 0 0 0 0 0 0 0 0 0 0 0 0 0 0 0 0 127 0" result="hardAlpha"/>
<feOffset/>
<feGaussianBlur stdDeviation="9"/>
<feComposite in2="hardAlpha" operator="out"/>
<feColorMatrix type="matrix" values="0 0 0 0 0.2125 0 0 0 0 0.150521 0 0 0 0 0.150521 0 0 0 0.1 0"/>
<feBlend mode="normal" in2="BackgroundImageFix" result="effect1_dropShadow_238_535"/>
<feBlend mode="normal" in="SourceGraphic" in2="effect1_dropShadow_238_535" result="shape"/>
</filter>
<filter id="filter3_d_238_535" x="399" y="125" width="113" height="66" filterUnits="userSpaceOnUse" color-interpolation-filters="sRGB">
<feFlood flood-opacity="0" result="BackgroundImageFix"/>
<feColorMatrix in="SourceAlpha" type="matrix" values="0 0 0 0 0 0 0 0 0 0 0 0 0 0 0 0 0 0 127 0" result="hardAlpha"/>
<feOffset/>
<feGaussianBlur stdDeviation="9"/>
<feComposite in2="hardAlpha" operator="out"/>
<feColorMatrix type="matrix" values="0 0 0 0 0.2125 0 0 0 0 0.150521 0 0 0 0 0.150521 0 0 0 0.1 0"/>
<feBlend mode="normal" in2="BackgroundImageFix" result="effect1_dropShadow_238_535"/>
<feBlend mode="normal" in="SourceGraphic" in2="effect1_dropShadow_238_535" result="shape"/>
</filter>
<filter id="filter4_d_238_535" x="154" y="92" width="118" height="66" filterUnits="userSpaceOnUse" color-interpolation-filters="sRGB">
<feFlood flood-opacity="0" result="BackgroundImageFix"/>
<feColorMatrix in="SourceAlpha" type="matrix" values="0 0 0 0 0 0 0 0 0 0 0 0 0 0 0 0 0 0 127 0" result="hardAlpha"/>
<feOffset/>
<feGaussianBlur stdDeviation="9"/>
<feComposite in2="hardAlpha" operator="out"/>
<feColorMatrix type="matrix" values="0 0 0 0 0.2125 0 0 0 0 0.150521 0 0 0 0 0.150521 0 0 0 0.1 0"/>
<feBlend mode="normal" in2="BackgroundImageFix" result="effect1_dropShadow_238_535"/>
<feBlend mode="normal" in="SourceGraphic" in2="effect1_dropShadow_238_535" result="shape"/>
</filter>
</defs>
</svg>
