<svg width="20" height="14" viewBox="0 0 20 14" fill="none" xmlns="http://www.w3.org/2000/svg">
<path opacity="0.5" fill-rule="evenodd" clip-rule="evenodd" d="M0.25 1C0.25 0.801088 0.329018 0.610322 0.46967 0.46967C0.610322 0.329018 0.801088 0.25 1 0.25H18C18.1989 0.25 18.3897 0.329018 18.5303 0.46967C18.671 0.610322 18.75 0.801088 18.75 1C18.75 1.19891 18.671 1.38968 18.5303 1.53033C18.3897 1.67098 18.1989 1.75 18 1.75H1C0.801088 1.75 0.610322 1.67098 0.46967 1.53033C0.329018 1.38968 0.25 1.19891 0.25 1ZM0.25 6C0.25 5.80109 0.329018 5.61032 0.46967 5.46967C0.610322 5.32902 0.801088 5.25 1 5.25H18C18.1989 5.25 18.3897 5.32902 18.5303 5.46967C18.671 5.61032 18.75 5.80109 18.75 6C18.75 6.19891 18.671 6.38968 18.5303 6.53033C18.3897 6.67098 18.1989 6.75 18 6.75H1C0.801088 6.75 0.610322 6.67098 0.46967 6.53033C0.329018 6.38968 0.25 6.19891 0.25 6ZM0.25 11C0.25 10.8011 0.329018 10.6103 0.46967 10.4697C0.610322 10.329 0.801088 10.25 1 10.25H8C8.19891 10.25 8.38968 10.329 8.53033 10.4697C8.67098 10.6103 8.75 10.8011 8.75 11C8.75 11.1989 8.67098 11.3897 8.53033 11.5303C8.38968 11.671 8.19891 11.75 8 11.75H1C0.801088 11.75 0.610322 11.671 0.46967 11.5303C0.329018 11.3897 0.25 11.1989 0.25 11Z" fill="black"/>
<path fill-rule="evenodd" clip-rule="evenodd" d="M15.0119 13.57C15.2919 13.81 15.7069 13.81 15.9879 13.57L19.4879 10.57C19.5628 10.5059 19.6243 10.4277 19.6689 10.3399C19.7136 10.252 19.7405 10.1562 19.7481 10.058C19.7557 9.95974 19.7439 9.86096 19.7133 9.76728C19.6827 9.6736 19.634 9.58685 19.5699 9.512C19.5059 9.43715 19.4277 9.37565 19.3398 9.33102C19.252 9.28639 19.1562 9.2595 19.0579 9.25188C18.9597 9.24427 18.8609 9.25608 18.7672 9.28664C18.6735 9.3172 18.5868 9.36592 18.5119 9.43L15.4999 12.013L12.4879 9.432C12.4133 9.36713 12.3265 9.31767 12.2326 9.28648C12.1388 9.25528 12.0396 9.24296 11.941 9.25023C11.8423 9.25749 11.7461 9.2842 11.6578 9.32882C11.5695 9.37344 11.4909 9.43507 11.4266 9.51019C11.3622 9.5853 11.3133 9.67241 11.2828 9.76649C11.2522 9.86056 11.2406 9.95976 11.2485 10.0584C11.2564 10.157 11.2838 10.253 11.329 10.341C11.3742 10.429 11.4364 10.5071 11.5119 10.571L15.0119 13.57Z" fill="black"/>
</svg>
