<svg width="28" height="25" viewBox="0 0 28 25" fill="none" xmlns="http://www.w3.org/2000/svg">
<path d="M27.6108 0.27352C27.4559 0.139731 27.2674 0.0507517 27.0656 0.0161696C26.8638 -0.0184126 26.6565 0.00271312 26.4658 0.0772705L1.1333 9.99102C0.774285 10.1306 0.470334 10.3831 0.26721 10.7104C0.0640856 11.0377 -0.0272168 11.4221 0.00704791 11.8058C0.0413126 12.1895 0.19929 12.5516 0.457196 12.8378C0.715102 13.1239 1.05898 13.3185 1.43705 13.3923L8.0008 14.681V21.9998C7.99951 22.3984 8.11798 22.7883 8.34086 23.1188C8.56373 23.4493 8.88074 23.7053 9.2508 23.8535C9.62029 24.0044 10.0266 24.0406 10.417 23.9575C10.8073 23.8743 11.1636 23.6756 11.4396 23.3873L14.6046 20.1048L19.6258 24.4998C19.9881 24.8211 20.4553 24.9989 20.9396 24.9998C21.1518 24.9996 21.3626 24.9663 21.5646 24.901C21.8945 24.7963 22.1912 24.607 22.4252 24.352C22.6593 24.0969 22.8224 23.785 22.8983 23.4473L27.9721 1.37477C28.0174 1.17571 28.0078 0.968046 27.9442 0.774046C27.8805 0.580046 27.7653 0.407022 27.6108 0.27352ZM19.9683 4.77352L8.76955 12.7935L2.56955 11.5773L19.9683 4.77352ZM10.0008 21.9998V16.0648L13.0996 18.7823L10.0008 21.9998ZM20.9421 22.9998L10.6071 13.9373L25.4821 3.27602L20.9421 22.9998Z" fill="#FFFCF9"/>
</svg>
